<svg width="380" height="434" viewBox="0 0 380 434" fill="none" xmlns="http://www.w3.org/2000/svg">
<path d="M185.965 415.726C179.681 415.726 173.397 413.214 169.626 408.189L167.741 405.677C133.179 367.992 42.6885 267.499 42.6885 164.493C42.6885 118.015 72.852 28.1988 186.593 21.918V22.5461H187.222V21.918V22.5461C202.304 20.6618 236.238 27.5707 256.346 36.3639C292.794 51.4379 336.154 85.3544 336.154 160.724C337.411 171.402 343.067 252.425 203.56 407.561C199.162 412.586 192.877 415.726 185.965 415.726ZM187.222 40.7605C63.4259 47.6694 61.5407 159.468 61.5407 164.493C61.5407 260.59 148.889 356.686 181.566 393.115L183.451 395.628C184.08 396.256 185.337 396.884 185.965 396.884C187.222 396.884 188.479 396.256 189.107 394.999C262.631 313.977 293.422 254.937 306.619 219.764C320.444 182.079 317.302 163.237 317.302 162.609V160.724C317.302 125.552 307.247 97.288 286.51 77.1893C248.806 40.7605 190.364 40.7605 187.222 40.7605Z" fill="#A8DCDF"/>
<path d="M190.363 224.789C156.429 224.789 128.779 197.153 128.779 163.237C128.779 129.32 156.429 101.684 190.363 101.684C224.297 101.684 251.947 129.32 251.947 163.237C251.947 197.153 224.925 224.789 190.363 224.789ZM190.363 120.527C166.484 120.527 147.631 139.997 147.631 163.237C147.631 187.104 167.112 205.946 190.363 205.946C213.614 205.946 233.095 186.476 233.095 163.237C233.723 139.369 214.243 120.527 190.363 120.527Z" fill="#A8DCDF"/>
</svg>
