<svg width="58" height="58" viewBox="0 0 58 58" fill="none" xmlns="http://www.w3.org/2000/svg">
<path d="M25.6289 33.8213C24.7027 33.1063 23.5781 34.5291 24.5033 35.2423C26.6829 36.9252 27.8873 39.1066 28.5189 41.5099C26.0186 40.9009 22.6111 41.5616 20.843 43.0959C20.4316 43.452 20.3056 44.1825 20.8222 44.5314C23.1449 46.1028 26.5243 45.9261 29.0509 44.7371C29.3255 48.3893 28.7301 52.2671 28.3567 55.5976C28.2289 56.7549 30.026 56.9996 30.1556 55.835C30.9758 48.4627 32.4222 39.0658 25.628 33.8213" fill="#A0ECE6"/>
<path d="M36.5853 31.542C37.5115 30.827 38.6352 32.2498 37.7109 32.963C35.5304 34.6441 34.3269 36.8273 33.6953 39.2306C36.1956 38.6198 39.6031 39.2823 41.3712 40.8148C41.7826 41.1709 41.9077 41.9032 41.392 42.2521C39.0684 43.8217 35.689 43.645 33.1633 42.456C32.8896 46.1082 33.485 49.986 33.8575 53.3165C33.9862 54.4756 32.1891 54.7185 32.0595 53.5539C31.2402 46.1834 29.792 36.7847 36.5871 31.542" fill="#A0ECE6"/>
<path d="M44.3499 31.1614C42.6561 29.0462 39.9056 28.3222 37.4452 29.6978C33.6797 31.8003 31.9433 35.5305 31.1476 39.6756C29.9423 35.9745 27.6232 33.1461 23.3212 32.9531C16.2226 32.6341 17.6073 42.4778 17.6028 47.3625C17.601 49.117 18.9749 49.2774 18.9749 47.5238C18.9776 44.274 18.5752 34.7547 23.8106 35.7887C31.3443 37.2777 29.7538 50.2036 29.2844 55.3991C29.1267 57.1427 31.8454 57.0702 32.0031 55.3393C32.0394 54.9411 32.0756 54.514 32.1119 54.0578C32.7118 53.9609 33.2501 53.5177 33.2501 52.7356C33.2311 47.831 33.0743 42.9454 34.3929 38.1722C35.107 35.5794 36.6368 32.935 39.2296 31.8901C44.1297 29.9162 43.0195 38.2247 42.145 40.3227C41.478 41.9232 41.9447 43.1674 42.6171 41.5498C44.0055 38.2275 46.8366 34.2726 44.3499 31.1651" fill="#47D3A7"/>
<path d="M15.0454 16.3125L12.5994 13.5666C12.5994 13.5666 11.8427 9.20662 15.7559 11.7233L16.8905 15.2305L15.0454 16.308" fill="#DDE4E9"/>
<path d="M16.9377 15.301L15.7886 11.8102C15.7886 11.8102 16.8289 7.51001 19.4136 11.3779L19.0556 15.0455L16.9341 15.301" fill="#C8D2D9"/>
<path d="M17.856 14.906L19.4365 11.3499C19.4365 11.3499 23.3153 8.71995 22.5912 13.5938L19.7012 16.2183L17.856 14.906ZM18.1134 20.1722L17.9077 23.8416C17.9077 23.8416 15.3584 27.4576 14.3706 22.9127L16.0481 19.6294L18.1134 20.1722ZM19.6731 16.9569L23.202 18.0679C23.202 18.0679 25.8619 21.702 21.0614 21.682L18.4234 19.0693L19.6731 16.9569Z" fill="#DDE4E9"/>
<path d="M16.0587 19.5495L14.4039 22.8329C14.4039 22.8329 10.6257 25.1338 11.532 20.5709L14.3794 18.2273L16.0587 19.5495Z" fill="#C8D2D9"/>
<path d="M14.9596 19.1489L11.5322 20.4675C11.5322 20.4675 7.18669 19.632 10.9241 16.8616L14.6062 17.0419L14.9596 19.1489Z" fill="#DDE4E9"/>
<path d="M14.5997 17.7036L11.0282 16.8435C11.0282 16.8435 7.92878 13.6898 12.5778 13.5303L15.5059 15.766L14.5997 17.7036ZM18.4893 16.1122L22.1062 13.9C22.1062 13.9 27.2111 13.9426 23.5471 17.8667L19.3312 18.4313L18.4893 16.1122Z" fill="#C8D2D9"/>
<path d="M16.8462 20.1143C18.4103 20.1143 19.6782 18.8463 19.6782 17.2822C19.6782 15.7181 18.4103 14.4502 16.8462 14.4502C15.2821 14.4502 14.0142 15.7181 14.0142 17.2822C14.0142 18.8463 15.2821 20.1143 16.8462 20.1143Z" fill="#F8AE1C"/>
<path d="M16.2239 17.836C15.8452 17.4099 15.6046 16.879 15.5339 16.3133C15.4632 15.7477 15.5657 15.1739 15.8278 14.6677C15.3954 14.8265 15.0083 15.0882 14.6998 15.4304C14.3914 15.7725 14.171 16.1846 14.0577 16.6311C13.9445 17.0775 13.9417 17.5449 14.0498 17.9927C14.1578 18.4404 14.3734 18.8551 14.6778 19.2008C14.9831 19.5464 15.3682 19.8121 15.7996 19.975C16.231 20.1378 16.6957 20.1928 17.1532 20.1352C17.6107 20.0776 18.0472 19.9091 18.4247 19.6444C18.8023 19.3797 19.1095 19.0267 19.3196 18.6163C18.785 18.8126 18.2036 18.8431 17.6513 18.7039C17.099 18.5647 16.6016 18.2622 16.2239 17.836Z" fill="#CA8A2A"/>
<path d="M19.0947 19.2505L21.3123 22.1849C21.3123 22.1849 21.7093 26.5902 18.0136 23.7654L17.1689 20.1758L19.0947 19.2505Z" fill="#C8D2D9"/>
<path d="M37.9854 22.4705L35.5395 19.7336C35.5395 19.7336 34.7819 15.3736 38.6959 17.8903L39.8315 21.3984L37.9854 22.475" fill="#86CDEC"/>
<path d="M39.8843 21.4546L38.7324 17.9646C38.7324 17.9646 39.7746 13.6636 42.3574 17.5323L42.0013 21.1999L39.8806 21.4546" fill="#8ABDD8"/>
<path d="M40.7995 21.0612L42.38 17.505C42.38 17.505 46.2579 14.8751 45.5329 19.7498L42.6456 22.3743L40.7995 21.0612ZM41.0533 26.3265L40.8421 29.9968C40.8421 29.9968 38.2947 33.6109 37.3096 29.067L38.9852 25.7836L41.0533 26.3265ZM42.612 23.1102L46.141 24.2222C46.141 24.2222 48.8035 27.8562 44.0013 27.8363L41.3614 25.2236L42.612 23.1102Z" fill="#86CDEC"/>
<path d="M38.9961 25.7041L37.3431 28.9874C37.3431 28.9874 33.5658 31.2893 34.4685 26.7254L37.3168 24.3818L38.9961 25.7041Z" fill="#8ABDD8"/>
<path d="M37.8982 25.2979L34.4699 26.6174C34.4699 26.6174 30.1262 25.7819 33.8645 23.0115L37.5466 23.1909L37.8982 25.2979Z" fill="#DDE4E9"/>
<path d="M37.5369 23.8579L33.9635 22.9969C33.9635 22.9969 30.8642 19.8432 35.5141 19.6846L38.4413 21.9203L37.5369 23.8579ZM41.3875 22.223L45.0053 20.0117C45.0053 20.0117 50.1102 20.0525 46.4462 23.9784L42.2294 24.5412L41.3875 22.223Z" fill="#8ABDD8"/>
<path d="M39.7861 26.2721C41.3506 26.2721 42.619 25.0037 42.619 23.4391C42.619 21.8745 41.3506 20.6062 39.7861 20.6062C38.2215 20.6062 36.9531 21.8745 36.9531 23.4391C36.9531 25.0037 38.2215 26.2721 39.7861 26.2721Z" fill="#ECD4A9"/>
<path d="M39.1682 23.9893C38.7905 23.5627 38.5506 23.0319 38.4797 22.4666C38.4089 21.9012 38.5105 21.3276 38.7713 20.821C38.339 20.98 37.952 21.2419 37.6438 21.5841C37.3356 21.9263 37.1154 22.3385 37.0023 22.7849C36.8892 23.2314 36.8866 23.6986 36.9948 24.1463C37.103 24.594 37.3186 25.0085 37.6231 25.3541C38.1208 25.9167 38.8215 26.2587 39.5712 26.305C40.321 26.3512 41.0584 26.0978 41.6214 25.6006C41.8951 25.3577 42.1045 25.0777 42.264 24.7705C41.7293 24.9673 41.1477 24.9981 40.5953 24.8587C40.0429 24.7193 39.5455 24.4162 39.1682 23.9893Z" fill="#E7CB9F"/>
<path d="M41.9954 25.3623L44.2112 28.2949C44.2112 28.2949 44.6063 32.7029 40.9115 29.8763L40.0669 26.2867L41.9954 25.3623Z" fill="#8ABDD8"/>
<path d="M24.381 22.6924L21.935 19.9556C21.935 19.9556 21.1774 15.5956 25.0906 18.1132L26.2252 21.6194L24.381 22.697" fill="#86CDEC"/>
<path d="M26.2768 21.6739L25.125 18.183C25.125 18.183 26.1645 13.8837 28.75 17.7516L28.3938 21.4201L26.2741 21.6739" fill="#8ABDD8"/>
<path d="M27.1875 21.2788L28.7671 17.7227C28.7671 17.7227 32.6477 15.0928 31.9227 19.9666L29.0317 22.5911L27.1875 21.2788ZM27.4503 26.5441L27.2428 30.2135C27.2428 30.2135 24.6926 33.8295 23.7075 29.2846L25.3814 26.0013L27.4503 26.5441ZM29.0091 23.3297L32.5398 24.4416C32.5398 24.4416 35.2024 28.0848 30.3984 28.0558L27.7603 25.443L29.0091 23.3297Z" fill="#86CDEC"/>
<path d="M25.3932 25.9223L23.7384 29.2057C23.7384 29.2057 19.9602 31.5084 20.8665 26.9437L23.7112 24.6001L25.3932 25.9223Z" fill="#8ABDD8"/>
<path d="M24.2958 25.5199L20.8683 26.8394C20.8683 26.8394 16.5219 26.0039 20.2593 23.2344L23.9423 23.4129L24.2958 25.5199Z" fill="#DDE4E9"/>
<path d="M23.9348 24.0773L20.3624 23.2154C20.3624 23.2154 17.2621 20.0617 21.9102 19.9031L24.8374 22.1388L23.9348 24.0773ZM27.7809 22.4415L31.3987 20.2293C31.3987 20.2293 36.5054 20.2719 32.8414 24.196L28.6237 24.7606L27.7809 22.4415Z" fill="#8ABDD8"/>
<path d="M26.1816 26.4941C27.7457 26.4941 29.0137 25.2262 29.0137 23.6621C29.0137 22.098 27.7457 20.8301 26.1816 20.8301C24.6176 20.8301 23.3496 22.098 23.3496 23.6621C23.3496 25.2262 24.6176 26.4941 26.1816 26.4941Z" fill="#ECD4A9"/>
<path d="M25.5564 24.2078C25.1776 23.7818 24.9369 23.2509 24.866 22.6853C24.7952 22.1197 24.8975 21.5458 25.1595 21.0396C24.7272 21.1983 24.3402 21.4602 24.0321 21.8025C23.7239 22.1447 23.504 22.557 23.3913 23.0035C23.2785 23.45 23.2765 23.9173 23.3853 24.3648C23.4941 24.8123 23.7104 25.2265 24.0155 25.5714C24.3207 25.9163 24.7053 26.1816 25.1362 26.3442C25.5671 26.5068 26.0311 26.5617 26.488 26.5044C26.945 26.447 27.381 26.279 27.7583 26.0149C28.1356 25.7508 28.4427 25.3987 28.6531 24.989C28.1183 25.186 27.5365 25.2169 26.9839 25.0775C26.4313 24.9381 25.9337 24.6349 25.5564 24.2078Z" fill="#E7CB9F"/>
<path d="M28.3929 25.5835L30.6096 28.5179C30.6096 28.5179 31.0047 32.9241 27.31 30.0993L26.4653 26.5097L28.3929 25.5835Z" fill="#8ABDD8"/>
<path d="M28.6421 26.9862C28.6421 26.9862 26.8114 26.2521 26.4209 23.8859C26.0239 21.5188 24.3202 22.0499 24.3202 22.0499L20.8873 26.4597C21.1048 23.8859 21.2335 20.3606 20.378 19.5867C18.9914 18.3424 17.1544 20.4666 17.1544 20.4666C17.1544 20.4666 15.7887 21.8831 13.4452 21.362C11.1016 20.8427 10.953 22.6199 10.953 22.6199L14.1765 28.1861C11.8701 27.1965 8.96013 26.1434 8.02398 26.6636C6.39726 27.5662 7.80829 29.9986 7.80829 29.9986C7.80829 29.9986 8.70548 31.7458 7.45304 33.794C6.20513 35.8439 7.83638 36.5589 7.83638 36.5589L13.0836 35.5231C11.6861 37.6029 10.121 40.2546 10.4582 41.2687C11.0436 43.0332 13.6971 42.0952 13.6971 42.0952C13.6971 42.0952 15.5785 41.5397 17.3584 43.1501C19.1382 44.7605 20.146 43.286 20.146 43.286L20.0889 35.9635C21.2552 38.0289 23.9259 42.5039 25.3479 42.6562C27.1984 42.8583 27.4458 40.0598 27.4458 40.0598C27.4458 40.0598 27.7286 38.1131 29.9299 37.1625C32.1393 36.2155 31.2131 34.6866 31.2131 34.6866L25.8146 32.2687C28.0041 31.5256 30.3331 30.5469 30.6612 29.647C31.2974 27.897 28.6412 26.9898 28.6412 26.9898" fill="#F46384"/>
<path d="M20.0916 36.1794C20.0916 36.1794 25.2464 40.7052 28.6113 38.0181C28.6113 38.0181 27.309 39.3104 27.4494 40.0554C27.4494 40.0554 27.135 42.3228 25.9695 42.601C25.9695 42.601 25.1195 42.8847 24.3537 42.0809C23.587 41.277 21.3604 38.2202 20.0916 36.1794ZM16.762 41.4274C16.762 41.4274 14.1113 42.3654 13.524 40.6028C13.1914 39.5887 14.752 36.937 16.1485 34.8589L10.9031 35.893C10.9031 35.893 9.26554 35.1761 10.518 33.1298C11.7695 31.0799 10.8769 29.3308 10.8769 29.3308C10.8769 29.3308 10.0404 27.8844 10.4029 26.8105C9.35163 26.526 8.46442 26.4172 8.02398 26.6637C6.39726 27.5664 7.80829 29.9987 7.80829 29.9987C7.80829 29.9987 8.70548 31.746 7.45304 33.7941C6.20513 35.844 7.83638 36.5591 7.83638 36.5591L13.0836 35.5232C11.6861 37.6031 10.121 40.2548 10.4582 41.2689C11.0436 43.0333 13.6971 42.0954 13.6971 42.0954C13.6971 42.0954 15.5785 41.5398 17.3584 43.1502C19.1382 44.7606 20.146 43.2862 20.146 43.2862L20.1396 42.2476C18.4513 40.9335 16.762 41.4274 16.762 41.4274ZM17.246 27.5219L14.0243 21.9549C14.0243 21.9549 14.0424 21.7283 14.1711 21.4628C13.928 21.4487 13.6865 21.415 13.4488 21.3622C11.1052 20.8429 10.9566 22.62 10.9566 22.62L12.9214 26.0067C14.191 26.284 15.8349 26.9129 17.246 27.5219Z" fill="#D34D75"/>
<path d="M18.5221 34.7238C20.44 34.7238 21.9948 33.169 21.9948 31.2511C21.9948 29.3331 20.44 27.7783 18.5221 27.7783C16.6041 27.7783 15.0493 29.3331 15.0493 31.2511C15.0493 33.169 16.6041 34.7238 18.5221 34.7238Z" fill="#FFC84D"/>
<path d="M25.9367 28.9999C25.5724 28.8776 25.2063 28.7553 24.8519 28.6139C24.2466 28.3728 23.4336 28.9256 23.2026 29.5292C23.0838 29.8409 23.0838 30.1808 23.2107 30.4581C23.3548 30.7753 23.604 30.913 23.9158 31.0408C24.2701 31.184 24.6381 31.3082 25.0006 31.4305C25.625 31.638 26.4061 31.1459 26.6463 30.5152C26.9182 29.8237 26.5638 29.2093 25.9367 29.0018M22.8192 25.1565C22.5084 25.3849 22.1966 25.6115 21.8758 25.8172C21.3239 26.1734 21.3058 27.1512 21.6601 27.6877C21.845 27.9695 22.125 28.1644 22.4259 28.2242C22.7639 28.2876 23.0204 28.1707 23.3086 27.9868C23.6294 27.781 23.943 27.5545 24.2556 27.3279C24.7849 26.9382 24.8411 26.0193 24.4668 25.4556C24.0544 24.8366 23.3494 24.7678 22.8192 25.1565ZM17.9644 24.0564C17.9164 24.4397 17.8656 24.8203 17.7959 25.1991C17.6753 25.8417 18.3731 26.5268 19.0066 26.6383C19.3374 26.6954 19.6718 26.6292 19.9219 26.4489C20.202 26.2459 20.2908 25.9794 20.3551 25.6468C20.4312 25.2698 20.4811 24.8892 20.5273 24.5077C20.608 23.8552 19.979 23.1845 19.312 23.0658C18.5816 22.9389 18.0451 23.4048 17.9644 24.0564ZM13.5401 26.4896C13.8138 26.7606 14.0893 27.0316 14.344 27.3143C14.7799 27.7992 15.755 27.6578 16.2244 27.2219C16.4736 26.9917 16.6196 26.6872 16.6322 26.3791C16.6359 26.032 16.4773 25.8 16.2516 25.5471C15.9979 25.2626 15.7233 24.9916 15.4487 24.7215C14.9765 24.2603 14.0594 24.3572 13.5655 24.8158C13.0245 25.3197 13.0689 26.0274 13.5401 26.4896ZM11.3343 30.536C11.7041 30.6493 12.0702 30.768 12.4263 30.9022C13.039 31.136 13.8383 30.5696 14.0603 29.9642C14.1745 29.647 14.1681 29.3081 14.0358 29.0317C13.8836 28.719 13.6389 28.5849 13.3244 28.4634C12.9674 28.3239 12.5994 28.207 12.2315 28.0919C11.6062 27.8943 10.8322 28.4009 10.6011 29.0344C10.342 29.7313 10.709 30.3403 11.3343 30.536ZM12.2505 34.8851C12.604 34.7311 12.9583 34.5824 13.3181 34.451C13.938 34.2299 14.1709 33.2793 13.9452 32.6757C13.8368 32.3717 13.6127 32.1228 13.3217 31.9833C13.0009 31.8438 12.7236 31.8999 12.4064 32.015C12.0484 32.1446 11.6923 32.2951 11.3379 32.4473C10.7362 32.7056 10.4752 33.5946 10.7108 34.2227C10.9709 34.9187 11.6488 35.1452 12.2505 34.8851ZM15.2493 37.6465C15.3816 37.2822 15.5148 36.9224 15.6725 36.5689C15.9317 35.9744 15.407 35.1479 14.817 34.8942C14.5044 34.7628 14.1636 34.7528 13.8836 34.8715C13.5619 35.0057 13.4141 35.2449 13.2809 35.5567C13.1223 35.9074 12.9864 36.2663 12.8559 36.6279C12.6284 37.2459 13.0933 38.0443 13.7132 38.308C14.3956 38.5935 15.02 38.2645 15.2493 37.6465ZM19.4443 38.009C19.3697 37.6316 19.3072 37.252 19.2567 36.8707C19.1743 36.2209 18.3016 35.7805 17.6599 35.8675C17.3397 35.9081 17.0481 36.0728 16.8479 36.3261C16.6449 36.6061 16.6413 36.8852 16.6803 37.2214C16.7247 37.6039 16.7972 37.9827 16.8661 38.3597C16.9848 39.0059 17.795 39.4554 18.4611 39.3629C19.1969 39.2623 19.5667 38.6551 19.4443 38.009ZM23.6167 36.0832C23.353 35.8027 23.0988 35.5134 22.8546 35.2159C22.4458 34.7057 21.4716 34.7927 20.9759 35.2032C20.8505 35.3024 20.746 35.4253 20.6682 35.565C20.5904 35.7046 20.541 35.8582 20.5228 36.017C20.4974 36.3659 20.637 36.6043 20.8499 36.8698C21.091 37.1689 21.3493 37.4544 21.6076 37.7389C22.0498 38.2238 22.9751 38.1794 23.4916 37.7516C24.0653 37.2804 24.0581 36.5717 23.6167 36.0832ZM25.8905 33.3173C25.5622 33.1172 25.24 32.9071 24.9244 32.6875C24.3888 32.3105 23.4744 32.6576 23.1029 33.1886C22.9165 33.4514 22.8413 33.777 22.8935 34.0949C22.9597 34.4365 23.1672 34.6296 23.4427 34.8262C23.7554 35.0492 24.0816 35.2567 24.4061 35.4579C24.9661 35.8032 25.8416 35.5114 26.2276 34.9531C26.6454 34.3432 26.4496 33.6635 25.8905 33.3173Z" fill="#E45A6F"/>
<path d="M19.0401 35.6338C19.0153 35.2987 19.0008 34.9629 18.9966 34.6269C18.9839 34.0478 18.3976 33.7207 17.9345 33.843C17.6808 33.9219 17.4639 34.0895 17.3237 34.3152C17.1551 34.5807 17.1307 34.8354 17.1352 35.1344C17.1424 35.4706 17.1587 35.8087 17.1841 36.1413C17.1894 36.2669 17.2227 36.3897 17.2817 36.5008C17.3406 36.6119 17.4236 36.7084 17.5247 36.7832C17.6258 36.858 17.7423 36.9093 17.8657 36.9332C17.9892 36.9571 18.1164 36.9532 18.2381 36.9216C18.771 36.7811 19.0764 36.2074 19.0401 35.6338ZM16.1909 35.2341C16.3603 34.9423 16.5289 34.655 16.7165 34.3686C17.0319 33.8874 16.7256 33.2839 16.277 33.1334C16.0218 33.0526 15.7457 33.0704 15.503 33.1833C15.2176 33.3092 15.0544 33.5068 14.8931 33.7569C14.7082 34.0415 14.533 34.3294 14.3675 34.6206C14.3024 34.7281 14.262 34.8487 14.2492 34.9737C14.2365 35.0987 14.2517 35.225 14.2937 35.3434C14.3358 35.4618 14.4037 35.5694 14.4925 35.6583C14.5813 35.7472 14.6887 35.8153 14.807 35.8576C15.3272 36.0325 15.9 35.7262 16.1909 35.2341ZM14.6448 33.3274C14.9321 33.147 15.2157 32.9694 15.5103 32.7999C16.0132 32.5163 16.0196 31.842 15.6897 31.4967C15.4989 31.3114 15.2468 31.2024 14.981 31.1904C14.6675 31.1696 14.4327 31.2702 14.1717 31.4152C13.8772 31.5837 13.5945 31.7605 13.3081 31.9408C13.2007 32.0065 13.1092 32.0952 13.0403 32.2006C12.9714 32.3059 12.9268 32.4253 12.9097 32.55C12.8926 32.6748 12.9035 32.8018 12.9415 32.9218C12.9795 33.0418 13.0438 33.1519 13.1296 33.244C13.512 33.6391 14.1618 33.6355 14.6448 33.3274ZM13.899 30.8941C14.2325 30.9285 14.566 30.9726 14.8995 31.0264C15.4704 31.1206 15.9 30.6014 15.8628 30.1274C15.8307 29.8625 15.7023 29.6187 15.5021 29.4423C15.2728 29.2275 15.0282 29.1586 14.7318 29.1106C14.3996 29.0563 14.066 29.0113 13.7313 28.9756C13.6066 28.959 13.4797 28.9704 13.3599 29.0089C13.2401 29.0474 13.1303 29.112 13.0385 29.1982C12.9468 29.2843 12.8753 29.3897 12.8293 29.5069C12.7833 29.624 12.7639 29.7499 12.7725 29.8755C12.8196 30.4228 13.3326 30.827 13.899 30.8941ZM15.1432 28.3022C15.3508 28.5659 15.5592 28.8315 15.755 29.1097C16.0885 29.5791 16.7591 29.5175 17.0663 29.1541C17.2258 28.961 17.3119 28.6955 17.3019 28.4173C17.2911 28.101 17.166 27.879 16.9938 27.6361C16.7981 27.3588 16.5896 27.0933 16.3857 26.8277C16.3095 26.7277 16.2119 26.6459 16.1001 26.5882C15.9882 26.5306 15.865 26.4985 15.7393 26.4945C15.6135 26.4904 15.4885 26.5144 15.3731 26.5646C15.2578 26.6149 15.1551 26.6902 15.0726 26.7851C14.7164 27.2047 14.7871 27.8509 15.1432 28.3022ZM17.7424 26.9374C17.7424 27.2736 17.7387 27.6098 17.7224 27.9479C17.688 28.5251 18.2499 28.8949 18.7193 28.8025C18.9649 28.7508 19.1996 28.5967 19.3618 28.3747C19.5494 28.1191 19.5893 27.8672 19.6083 27.57C19.6256 27.2319 19.631 26.8957 19.6328 26.5595C19.6358 26.4337 19.6107 26.3088 19.5594 26.1939C19.5081 26.079 19.4319 25.977 19.3363 25.8952C19.2407 25.8134 19.1281 25.7538 19.0066 25.7209C18.8852 25.688 18.758 25.6825 18.6341 25.7049C18.0967 25.8155 17.7478 26.3637 17.7424 26.9374ZM20.4357 27.3869C20.2476 27.6667 20.0524 27.9417 19.8503 28.2116C19.5041 28.6738 19.7642 29.2946 20.2019 29.4776C20.4357 29.5746 20.7149 29.5746 20.975 29.4831C21.274 29.3761 21.4471 29.1894 21.6311 28.9538C21.835 28.681 22.0253 28.4055 22.2156 28.1255C22.2882 28.0227 22.337 27.9051 22.3584 27.7811C22.3797 27.6571 22.3732 27.5299 22.3391 27.4088C22.3051 27.2876 22.2444 27.1756 22.1616 27.0809C22.0788 26.9862 21.9759 26.9112 21.8604 26.8613C21.3511 26.651 20.7557 26.9147 20.4357 27.3869ZM22.6443 29.2719C22.3241 29.3667 21.999 29.4541 21.6692 29.5338C21.1073 29.6652 20.907 30.3086 21.1281 30.7301C21.2459 30.9494 21.4616 31.1333 21.7208 31.2276C22.0162 31.3354 22.2691 31.3055 22.5591 31.2403C22.8862 31.1641 23.2143 31.0735 23.536 30.982C24.087 30.8225 24.3082 30.2244 24.078 29.7821C23.8233 29.2946 23.198 29.1169 22.6443 29.2719ZM21.6257 34.3369C21.4181 34.0732 21.2088 33.8059 21.0157 33.5295C20.6795 33.0582 20.0098 33.1171 19.6999 33.4832C19.5357 33.693 19.4507 33.9538 19.4597 34.22C19.4724 34.5318 19.5957 34.7565 19.7687 34.9985C19.9654 35.2767 20.1693 35.5422 20.3787 35.806C20.4547 35.9062 20.5521 35.9884 20.6637 36.0464C20.7754 36.1044 20.8985 36.1369 21.0243 36.1415C21.1501 36.1461 21.2753 36.1227 21.3909 36.073C21.5065 36.0232 21.6096 35.9484 21.6927 35.854C22.0462 35.4362 21.9755 34.7882 21.6257 34.3369ZM23.0167 32.2444C22.7106 32.1036 22.4084 31.9543 22.1105 31.7967C21.6003 31.5239 21.0284 31.8801 20.9152 32.3441C20.8581 32.587 20.9016 32.8661 21.033 33.1071C21.1852 33.3854 21.3964 33.5286 21.6619 33.6681C21.9628 33.8276 22.2637 33.9726 22.5682 34.1158C22.6811 34.1712 22.805 34.2008 22.9308 34.2024C23.0566 34.204 23.1811 34.1776 23.2955 34.1251C23.4098 34.0726 23.511 33.9954 23.5918 33.8989C23.6726 33.8025 23.731 33.6893 23.7626 33.5675C23.8904 33.0337 23.5387 32.4891 23.0213 32.2444" fill="white"/>
<path d="M29.3589 27.9659C29.3589 27.9659 31.1895 27.2309 31.5801 24.8647C31.977 22.4985 33.6808 23.0295 33.6808 23.0295L37.1137 27.4384C36.8962 24.8647 36.7675 21.3394 37.623 20.5654C39.0095 19.3212 40.8465 21.4454 40.8465 21.4454C40.8465 21.4454 42.2122 22.8619 44.5558 22.3408C46.8993 21.8224 47.048 23.5996 47.048 23.5996L43.8244 29.1648C46.1308 28.1752 49.0408 27.1222 49.977 27.6423C51.6037 28.545 50.1927 30.9773 50.1927 30.9773C50.1927 30.9773 49.2955 32.7246 50.5479 34.7727C51.7958 36.8227 50.1646 37.5377 50.1646 37.5377L44.9174 36.5018C46.3148 38.5817 47.8799 41.2334 47.5428 42.2475C46.9573 44.0119 44.3038 43.074 44.3038 43.074C44.3038 43.074 42.4225 42.5184 40.6426 44.1288C38.8627 45.7392 37.855 44.2648 37.855 44.2648L37.9121 36.9423C36.7457 39.0076 34.075 43.4827 32.6531 43.6349C30.8025 43.837 30.5551 41.0385 30.5551 41.0385C30.5551 41.0385 30.2724 39.0919 28.0711 38.1412C25.8617 37.1942 26.7878 35.6654 26.7878 35.6654L32.1864 33.2475C29.9969 32.5044 27.6678 31.5256 27.3397 30.6275C26.7036 28.8757 29.3598 27.9695 29.3598 27.9695" fill="#F46384"/>
<path d="M37.9103 37.1562C37.9103 37.1562 32.7555 41.6821 29.3906 38.995C29.3906 38.995 30.6929 40.2873 30.5524 41.0323C30.5524 41.0323 30.8669 43.2997 32.0323 43.5779C32.0323 43.5779 32.8824 43.8616 33.6482 43.0577C34.4149 42.2539 36.6415 39.1971 37.9103 37.1562ZM41.2389 42.4061C41.2389 42.4061 43.8897 43.3441 44.477 41.5815C44.8096 40.5674 43.249 37.9157 41.8525 35.8376L47.0978 36.8717C47.0978 36.8717 48.7354 36.1548 47.483 34.1085C46.2315 32.0586 47.1241 30.3104 47.1241 30.3104C47.1241 30.3104 47.9606 28.8641 47.5981 27.7892C48.6493 27.5047 49.5366 27.3959 49.977 27.6424C51.6037 28.5451 50.1927 30.9774 50.1927 30.9774C50.1927 30.9774 49.2955 32.7247 50.5479 34.7728C51.7958 36.8227 50.1646 37.5378 50.1646 37.5378L44.9174 36.5019C46.3148 38.5818 47.8799 41.2335 47.5428 42.2476C46.9574 44.012 44.3039 43.0741 44.3039 43.0741C44.3039 43.0741 42.4225 42.5185 40.6426 44.1289C38.8628 45.7393 37.855 44.2649 37.855 44.2649L37.8613 43.2263C39.5497 41.9122 41.2389 42.4061 41.2389 42.4061ZM40.7586 28.5006L43.9803 22.9336C43.9803 22.9336 43.9622 22.707 43.8335 22.4415C44.0619 22.427 44.303 22.3971 44.5558 22.3409C46.8994 21.8225 47.048 23.5996 47.048 23.5996L45.0833 26.9854C43.8136 27.2627 42.1697 27.8916 40.7586 28.5006Z" fill="#D34D75"/>
<path d="M39.4791 35.7026C41.397 35.7026 42.9518 34.1478 42.9518 32.2298C42.9518 30.3119 41.397 28.7571 39.4791 28.7571C37.5612 28.7571 36.0063 30.3119 36.0063 32.2298C36.0063 34.1478 37.5612 35.7026 39.4791 35.7026Z" fill="#FFC84D"/>
<path d="M32.0633 29.9787C32.4277 29.8564 32.7938 29.734 33.1481 29.5926C33.7535 29.3516 34.5664 29.9044 34.7975 30.508C34.9162 30.8197 34.9162 31.1595 34.7893 31.4369C34.6453 31.7559 34.396 31.8918 34.0843 32.0196C33.7299 32.1646 33.362 32.2869 32.9995 32.4093C32.3751 32.6168 31.5939 32.1247 31.3538 31.494C31.0819 30.8034 31.4362 30.188 32.0633 29.9805M35.1799 26.1353C35.4908 26.3637 35.8025 26.5902 36.1233 26.796C36.6753 27.1521 36.6934 28.1309 36.339 28.6665C36.2532 28.802 36.1413 28.9193 36.0098 29.0114C35.8784 29.1034 35.73 29.1686 35.5733 29.203C35.2352 29.2664 34.9788 29.1495 34.6906 28.9655C34.3698 28.7598 34.0562 28.5332 33.7435 28.3067C33.2143 27.917 33.1581 26.999 33.5324 26.4344C33.9447 25.8154 34.6498 25.7465 35.1799 26.1353ZM40.0383 25.036C40.0864 25.4185 40.1371 25.7991 40.2069 26.1779C40.3274 26.8204 39.6296 27.5055 38.9962 27.617C38.8386 27.6475 38.6767 27.6464 38.5195 27.6139C38.3624 27.5814 38.2133 27.5181 38.0808 27.4276C37.8008 27.2255 37.712 26.9582 37.6477 26.6256C37.5752 26.2486 37.5178 25.8689 37.4755 25.4873C37.3948 24.8339 38.0238 24.1633 38.6908 24.0446C39.4212 23.9177 39.9577 24.3835 40.0383 25.036ZM44.4608 27.4684C44.1872 27.7394 43.9117 28.0103 43.657 28.2931C43.2211 28.7779 42.246 28.6365 41.7765 28.2006C41.535 27.9843 41.3885 27.6815 41.3687 27.3578C41.3651 27.0107 41.5237 26.7787 41.7493 26.5259C42.0031 26.2413 42.2777 25.9704 42.5523 25.7012C43.0244 25.239 43.9416 25.3369 44.4355 25.7955C44.9765 26.2984 44.9321 27.0062 44.4608 27.4684ZM46.663 31.5148C46.2933 31.6281 45.9272 31.7468 45.571 31.8809C44.9584 32.1147 44.1591 31.5483 43.937 30.943C43.8228 30.6276 43.8292 30.2877 43.9615 30.0122C44.1138 29.6987 44.3584 29.5645 44.6729 29.444C45.03 29.3045 45.3979 29.1875 45.7658 29.0725C46.3912 28.874 47.1651 29.3806 47.3962 30.015C47.6554 30.71 47.2883 31.319 46.663 31.5148ZM45.7477 35.8657C45.3943 35.7098 45.0399 35.5612 44.6802 35.4307C44.0603 35.2096 43.8274 34.2589 44.053 33.6554C44.1718 33.34 44.3983 33.089 44.6765 32.963C44.9973 32.8234 45.2747 32.8796 45.5918 32.9947C45.9498 33.1243 46.306 33.2747 46.6603 33.427C47.2621 33.6871 47.5231 34.5743 47.2874 35.2023C47.0273 35.8974 46.3495 36.124 45.7477 35.8657ZM42.748 38.6252C42.6198 38.2612 42.4786 37.9018 42.3248 37.5477C42.0656 36.9532 42.5903 36.1267 43.1803 35.873C43.493 35.7415 43.8337 35.7316 44.1138 35.8503C44.4355 35.9844 44.5832 36.2237 44.7164 36.5354C44.875 36.8861 45.0109 37.245 45.1414 37.6066C45.3689 38.2247 44.904 39.0231 44.2841 39.2868C43.6017 39.5723 42.9773 39.2433 42.748 38.6252ZM38.5566 38.9868C38.63 38.608 38.6962 38.2274 38.7442 37.8486C38.8267 37.1988 39.6994 36.7584 40.341 36.8454C40.67 36.8934 40.9654 37.0574 41.153 37.3039C41.356 37.584 41.3597 37.8631 41.3207 38.1993C41.2763 38.5835 41.2038 38.9606 41.1349 39.3376C41.0162 39.9837 40.206 40.4332 39.5399 40.3408C38.804 40.2402 38.4343 39.633 38.5566 38.9868ZM34.3861 37.062C34.6498 36.7783 34.9063 36.4919 35.1482 36.1947C35.5569 35.6845 36.5312 35.7715 37.0269 36.182C37.2861 36.394 37.4519 36.6904 37.48 36.9976C37.5054 37.3447 37.3658 37.583 37.1528 37.8486C36.9118 38.1476 36.6535 38.4331 36.3952 38.7177C35.953 39.2025 35.0277 39.1581 34.5111 38.7304C33.9375 38.2591 33.9447 37.5513 34.3861 37.062ZM32.1105 34.2961C32.4422 34.0904 32.7648 33.8874 33.0765 33.6662C33.6121 33.2892 34.5265 33.6381 34.8981 34.1674C35.0875 34.442 35.1636 34.7728 35.1074 35.0736C35.0413 35.4153 34.8338 35.6101 34.5583 35.805C34.2456 36.0279 33.9193 36.2355 33.5949 36.4366C33.0348 36.7819 32.1594 36.4901 31.7733 35.9319C31.3556 35.3229 31.5513 34.6432 32.1105 34.2961Z" fill="#E45A6F"/>
<path d="M38.957 36.6124C38.9806 36.278 38.9978 35.9436 39.0005 35.6056C39.0132 35.0265 39.5996 34.6993 40.0627 34.8217C40.3001 34.8887 40.5258 35.0609 40.6735 35.2938C40.8421 35.5594 40.8665 35.814 40.862 36.1131C40.8546 36.4491 40.8382 36.7848 40.813 37.1199C40.8078 37.2455 40.7744 37.3684 40.7155 37.4795C40.6566 37.5905 40.5735 37.687 40.4725 37.7618C40.3714 37.8367 40.2549 37.8879 40.1315 37.9119C40.008 37.9358 39.8808 37.9318 39.7591 37.9002C39.2262 37.7597 38.9208 37.1861 38.957 36.6124ZM41.8054 36.2128C41.6379 35.9197 41.4626 35.6311 41.2798 35.3473C40.9644 34.8661 41.2707 34.2625 41.7193 34.1121C41.9576 34.0305 42.2386 34.0486 42.4932 34.1619C42.7787 34.2879 42.9418 34.4854 43.1031 34.7356C43.288 35.0201 43.4632 35.308 43.6288 35.5992C43.6941 35.7067 43.7346 35.8273 43.7474 35.9523C43.7603 36.0774 43.7451 36.2038 43.703 36.3222C43.6609 36.4407 43.593 36.5483 43.5041 36.6372C43.4152 36.7261 43.3077 36.7941 43.1892 36.8363C42.6691 37.0112 42.0963 36.7049 41.8054 36.2128ZM43.3515 34.306C43.0642 34.1257 42.7805 33.948 42.486 33.7786C41.983 33.4967 41.9767 32.8207 42.3065 32.4754C42.4787 32.2987 42.7406 32.1854 43.0152 32.1691C43.3288 32.1482 43.5635 32.2488 43.8245 32.3938C44.1191 32.5624 44.4018 32.7391 44.6882 32.9213C44.7956 32.9867 44.887 33.0753 44.9559 33.1805C45.0248 33.2857 45.0694 33.405 45.0865 33.5296C45.1036 33.6541 45.0927 33.781 45.0547 33.9009C45.0167 34.0207 44.9525 34.1307 44.8667 34.2226C44.4843 34.6178 43.8345 34.6141 43.3515 34.306ZM44.1018 31.8727C43.7683 31.909 43.4348 31.9531 43.1013 32.005C42.5304 32.0993 42.1008 31.58 42.138 31.106C42.1616 30.8586 42.2911 30.6085 42.4987 30.4209C42.728 30.207 42.9726 30.1373 43.269 30.0901C43.6034 30.033 43.9378 29.9914 44.2695 29.9542C44.3942 29.9377 44.5209 29.949 44.6407 29.9875C44.7604 30.0259 44.8701 30.0905 44.9619 30.1765C45.0536 30.2626 45.1251 30.3679 45.1712 30.4849C45.2173 30.6019 45.2368 30.7277 45.2283 30.8532C45.1803 31.4015 44.6682 31.8057 44.1018 31.8727ZM42.8566 29.2809C42.6491 29.5455 42.4407 29.8101 42.2449 30.0883C41.9114 30.5578 41.2408 30.4952 40.9336 30.1327C40.7674 29.9243 40.6835 29.6621 40.698 29.3959C40.7088 29.0806 40.8339 28.8576 41.0061 28.6157C41.2018 28.3374 41.4103 28.0719 41.6142 27.8064C41.6904 27.7063 41.788 27.6245 41.8998 27.5669C42.0116 27.5092 42.1349 27.4772 42.2606 27.4731C42.3864 27.469 42.5114 27.493 42.6268 27.5433C42.7421 27.5936 42.8448 27.6689 42.9273 27.7638C43.2835 28.1834 43.2128 28.8295 42.8566 29.2809ZM40.2557 27.916C40.2557 28.2523 40.2593 28.5885 40.2756 28.9265C40.3101 29.5038 39.7482 29.8735 39.2788 29.782C39.0196 29.723 38.7911 29.5712 38.6362 29.3552C38.4486 29.0987 38.4088 28.8468 38.3897 28.5495C38.3741 28.2129 38.3659 27.876 38.3653 27.539C38.3625 27.4133 38.3877 27.2885 38.439 27.1737C38.4904 27.0589 38.5666 26.9569 38.6621 26.8751C38.7577 26.7933 38.8702 26.7338 38.9916 26.7008C39.113 26.6679 39.2402 26.6623 39.364 26.6844C39.9014 26.7941 40.2503 27.3424 40.2557 27.916ZM37.5641 28.3655C37.7526 28.6459 37.9478 28.9208 38.1496 29.1902C38.4958 29.6524 38.2357 30.2741 37.798 30.4563C37.5496 30.5527 37.2746 30.5546 37.0249 30.4617C36.7259 30.3557 36.5528 30.1699 36.3688 29.9324C36.1678 29.6604 35.9729 29.384 35.7843 29.1032C35.7117 29.0005 35.6629 28.8828 35.6415 28.7588C35.6201 28.6348 35.6267 28.5076 35.6608 28.3865C35.6948 28.2654 35.7554 28.1534 35.8383 28.0587C35.9211 27.9639 36.024 27.8889 36.1395 27.839C36.6488 27.6297 37.2442 27.8934 37.5641 28.3655ZM35.3529 30.2478C35.6731 30.3427 35.9981 30.4294 36.328 30.5079C36.8899 30.6393 37.0902 31.2828 36.869 31.7042C36.7512 31.9235 36.5355 32.1075 36.2764 32.2017C35.9809 32.3095 35.7281 32.2814 35.4381 32.2144C35.1104 32.1362 34.7847 32.0501 34.4611 31.9561C34.3396 31.9233 34.2268 31.864 34.1309 31.7824C34.035 31.7008 33.9584 31.599 33.9066 31.4843C33.8547 31.3695 33.829 31.2447 33.8312 31.1188C33.8334 30.9929 33.8634 30.8691 33.9192 30.7562C34.1739 30.2687 34.7992 30.0919 35.3529 30.2478ZM36.377 35.3156C36.5845 35.0519 36.7938 34.7845 36.9869 34.5081C37.3231 34.0369 37.9928 34.0958 38.3027 34.4619C38.4595 34.6513 38.5492 34.9204 38.5429 35.1987C38.5302 35.5104 38.407 35.7352 38.2339 35.9771C38.0372 36.2554 37.8333 36.5209 37.624 36.7846C37.5479 36.8849 37.4506 36.967 37.3389 37.025C37.2272 37.0831 37.1041 37.1156 36.9783 37.1202C36.8526 37.1248 36.7273 37.1014 36.6117 37.0516C36.4961 37.0019 36.393 36.9271 36.3099 36.8326C35.9565 36.4149 36.0271 35.7669 36.377 35.3156ZM34.984 33.223C35.2931 33.0799 35.5949 32.933 35.8994 32.7754C36.4096 32.5044 36.9814 32.8587 37.0947 33.3227C37.1518 33.5674 37.1083 33.8447 36.9769 34.0858C36.8246 34.364 36.6135 34.5072 36.348 34.6468C36.0471 34.8063 35.7462 34.9513 35.4417 35.0944C35.3288 35.1498 35.2049 35.1794 35.0791 35.181C34.9533 35.1826 34.8287 35.1562 34.7144 35.1037C34.6 35.0513 34.4988 34.974 34.418 34.8776C34.3372 34.7811 34.2789 34.6679 34.2473 34.5462C34.1195 34.0124 34.4711 33.4677 34.9886 33.223" fill="white"/>
<path d="M40.7505 17.8396C40.7505 17.8396 39.6884 16.1866 40.7333 14.027C41.7791 11.8656 40.0845 11.3119 40.0845 11.3119L34.7303 12.9223C36.3996 10.9503 38.5447 8.14904 38.2955 7.02257C37.8895 5.21007 35.159 5.87164 35.159 5.87164C35.159 5.87164 33.2269 6.23776 31.6146 4.45698C30.0024 2.6762 28.8542 4.0392 28.8542 4.0392L28.2597 10.4373C26.9556 8.29948 25.1902 5.75382 24.1245 5.63692C22.2785 5.43029 22.0238 8.2297 22.0238 8.2297C22.0238 8.2297 21.7392 10.1736 19.5334 11.1206C17.3276 12.0677 18.2456 13.5956 18.2456 13.5956L23.1222 15.7869C20.7804 16.6741 17.9692 17.9311 17.6575 18.9515C17.1146 20.7296 19.818 21.5008 19.818 21.5008C19.818 21.5008 21.6758 22.1397 22.1996 24.4815C22.7162 26.825 24.3936 26.2088 24.3936 26.2088L28.5841 20.2004C28.3385 22.5602 27.9298 27.7558 28.9965 28.7028C30.3894 29.9389 32.2091 27.8002 32.2091 27.8002C32.2091 27.8002 33.5685 26.3774 35.9175 26.8767C38.2638 27.3806 38.397 25.5998 38.397 25.5998L35.3946 20.5021C37.6095 21.1637 40.0763 21.7147 40.8684 21.1709C42.3981 20.1179 40.7551 17.8359 40.7551 17.8359" fill="#EFA8B6"/>
<path d="M28.4545 20.3887C28.4545 20.3887 30.0386 27.0596 34.3351 26.8195C34.3351 26.8195 32.5299 27.1176 32.2073 27.8073C32.2073 27.8073 30.6413 29.4766 29.5311 29.0271C29.5311 29.0271 28.6738 28.7634 28.5152 27.6659C28.3548 26.5675 28.3068 22.7848 28.4545 20.3887ZM22.7016 22.7377C22.7016 22.7377 19.9964 21.9665 20.5411 20.1875C20.8565 19.168 23.6631 17.911 26.0058 17.0256L21.1311 14.8325C21.1311 14.8325 20.2094 13.3009 22.4189 12.3575C24.6265 11.4123 24.9056 9.46569 24.9056 9.46569C24.9056 9.46569 25.0615 7.80362 25.9804 7.13753C25.2899 6.29925 24.6283 5.69659 24.1235 5.64131C22.2775 5.43469 22.0228 8.23409 22.0228 8.23409C22.0228 8.23409 21.7383 10.178 19.5324 11.125C17.3266 12.0721 18.2447 13.6 18.2447 13.6L23.1212 15.7913C20.7794 16.6785 17.9683 17.9355 17.6565 18.9559C17.1137 20.734 19.817 21.5052 19.817 21.5052C19.817 21.5052 21.6748 22.1441 22.1986 24.4859C22.7152 26.8294 24.3927 26.2132 24.3927 26.2132L24.9863 25.3604C24.3682 23.3114 22.7034 22.7377 22.7034 22.7377M31.1479 11.676L31.7414 5.27791C31.7414 5.27791 31.8864 5.10391 32.1465 4.96253C31.9566 4.80879 31.7782 4.64129 31.6128 4.46137C30.0014 2.68059 28.8523 4.04359 28.8523 4.04359L28.4925 7.94137C29.3716 8.90472 30.3467 10.3683 31.1479 11.6797" fill="#E295A8"/>
<path d="M30.0241 18.9325C31.9415 18.9325 33.4959 17.3781 33.4959 15.4606C33.4959 13.5432 31.9415 11.9888 30.0241 11.9888C28.1066 11.9888 26.5522 13.5432 26.5522 15.4606C26.5522 17.3781 28.1066 18.9325 30.0241 18.9325Z" fill="#FFC84D"/>
<path d="M37.3826 17.9174C37.1504 17.6105 36.9285 17.2958 36.7174 16.974C36.3631 16.4266 35.3843 16.4076 34.8478 16.7656C34.5651 16.9495 34.3748 17.2278 34.314 17.5286C34.2461 17.8721 34.3684 18.1268 34.5506 18.4104C34.759 18.7339 34.9847 19.0457 35.2121 19.3556C35.6018 19.8849 36.5226 19.9383 37.0863 19.5641C37.7025 19.1563 37.7732 18.4503 37.3826 17.9174ZM37.0636 12.9793C36.6766 12.9856 36.2897 12.9883 35.909 12.9702C35.2547 12.9403 34.6747 13.7278 34.653 14.3722C34.6403 14.7084 34.7536 15.031 34.9656 15.2512C35.2058 15.4995 35.4822 15.5548 35.8202 15.5693C36.2027 15.5883 36.5896 15.5856 36.9748 15.5802C37.6327 15.5693 38.2073 14.8507 38.2308 14.1746C38.2589 13.4351 37.7215 12.9693 37.0636 12.9793ZM33.7395 9.26907C33.4803 9.55363 33.2129 9.83547 32.9402 10.1046C32.4707 10.5578 32.6402 11.522 33.0969 11.9806C33.3308 12.218 33.6425 12.3576 33.947 12.3558C34.2986 12.3521 34.5234 12.1854 34.769 11.9507C35.0481 11.6869 35.3064 11.4051 35.5665 11.1223C36.0087 10.6375 35.8855 9.724 35.4097 9.24279C34.8886 8.71716 34.1835 8.78422 33.7395 9.26907ZM28.7234 8.68907C28.795 9.0706 28.8611 9.44941 28.9028 9.82822C28.9798 10.478 29.8526 10.9257 30.4915 10.8441C30.8129 10.8063 31.1065 10.6435 31.3089 10.391C31.5155 10.1128 31.5219 9.83003 31.4802 9.49382C31.4367 9.11319 31.3687 8.73438 31.3008 8.35375C31.1848 7.70669 30.3818 7.25357 29.713 7.34147C28.9808 7.43844 28.6074 8.042 28.7234 8.68907ZM24.5773 10.7136C24.8138 11.0227 25.0431 11.3299 25.2579 11.6462C25.6213 12.1917 26.6009 12.1935 27.1302 11.8265C27.4111 11.6362 27.6005 11.3553 27.6522 11.0544C27.7111 10.7109 27.5888 10.459 27.4003 10.1762C27.19 9.85541 26.9544 9.54819 26.7242 9.24007C26.3263 8.71897 25.4038 8.68272 24.8483 9.06607C24.2365 9.48475 24.1813 10.1925 24.5773 10.7136ZM22.8101 14.7918C23.1907 14.8706 23.5677 14.9558 23.932 15.0555C24.5655 15.2322 25.3113 14.5933 25.4718 13.9707C25.5166 13.8171 25.5301 13.6561 25.5116 13.4971C25.4931 13.3382 25.4429 13.1846 25.3639 13.0454C25.189 12.7463 24.9298 12.6349 24.6045 12.5424C24.2331 12.4431 23.859 12.3546 23.4825 12.2769C22.8418 12.1392 22.1159 12.7119 21.9464 13.3626C21.7552 14.0803 22.1712 14.6549 22.8101 14.7918ZM23.662 18.7793C23.9792 18.5599 24.2991 18.3443 24.6298 18.1458C25.1854 17.8096 25.2334 16.8344 24.9008 16.2834C24.8194 16.1454 24.7112 16.0251 24.5827 15.9294C24.4541 15.8337 24.3078 15.7646 24.1523 15.7261C23.8142 15.6482 23.5541 15.7578 23.265 15.9336C22.936 16.1315 22.6141 16.341 22.2999 16.5617C21.7579 16.9332 21.6755 17.854 22.0262 18.4276C22.4177 19.0566 23.1191 19.1499 23.662 18.7793ZM26.8701 21.5053C27.0314 21.1527 27.1936 20.8056 27.3758 20.4676C27.6857 19.8903 27.2317 19.0239 26.658 18.7249C26.3599 18.5726 26.0246 18.5328 25.7318 18.6306C25.4029 18.7367 25.2352 18.9632 25.0739 19.2614C24.8908 19.5994 24.7295 19.9492 24.5646 20.2963C24.2909 20.8944 24.6851 21.7282 25.2869 22.0363C25.9448 22.3834 26.5955 22.1016 26.8701 21.5053ZM31.3859 22.3481C31.3337 21.9665 31.295 21.5832 31.2699 21.1989C31.2255 20.5455 30.3827 20.0516 29.7402 20.0997C29.4049 20.1232 29.0958 20.27 28.8974 20.502C28.6735 20.7721 28.6518 21.0485 28.6735 21.3893C28.6935 21.7717 28.7415 22.1541 28.7868 22.5366C28.8675 23.1882 29.6478 23.6857 30.3157 23.6349C31.0579 23.5815 31.4657 23.0015 31.3859 22.3481ZM34.8424 21.4101C34.6893 21.0567 34.5482 20.6982 34.4192 20.3353C34.2008 19.719 33.2501 19.4716 32.6483 19.6928C32.3312 19.806 32.0774 20.0326 31.9505 20.3099C31.8073 20.6298 31.8581 20.9017 31.9741 21.2252C32.101 21.5895 32.246 21.9457 32.3946 22.3C32.6474 22.9036 33.531 23.1728 34.1663 22.9426C34.8668 22.6888 35.097 22.0182 34.8424 21.4128" fill="#E45A6F"/>
<path d="M27.9207 19.333C28.0948 19.0441 28.2773 18.7603 28.4681 18.482C28.7962 18.0081 28.5043 17.3955 28.0585 17.2323C27.8051 17.1481 27.5297 17.1601 27.2845 17.2659C26.9945 17.3846 26.8269 17.5758 26.6583 17.8232C26.4653 18.1014 26.2886 18.386 26.1091 18.6733C26.041 18.7792 25.9975 18.8991 25.9817 19.0241C25.9658 19.149 25.9781 19.276 26.0177 19.3956C26.0572 19.5152 26.1229 19.6244 26.2101 19.7154C26.2973 19.8063 26.4036 19.8766 26.5215 19.9212C27.0344 20.1106 27.6171 19.8206 27.9207 19.333ZM25.8246 17.3547C26.1288 17.2117 26.4374 17.0781 26.7498 16.9541C27.2882 16.743 27.3878 16.0741 27.1096 15.6908C26.9468 15.4789 26.7116 15.3344 26.449 15.2848C26.1427 15.2205 25.898 15.2875 25.6234 15.3981C25.3044 15.5204 24.9981 15.6573 24.689 15.7968C24.574 15.8474 24.4716 15.9228 24.3892 16.0176C24.3068 16.1124 24.2463 16.2243 24.2122 16.3452C24.1781 16.4661 24.1711 16.5931 24.1918 16.717C24.2125 16.8409 24.2604 16.9587 24.332 17.062C24.6537 17.5033 25.3017 17.5894 25.8246 17.3547ZM25.6723 14.9132C26.0085 14.9305 26.3457 14.9495 26.681 14.9812C27.2519 15.0428 27.6507 14.4973 27.58 14.0233C27.5318 13.7615 27.3893 13.5264 27.1794 13.3626C26.9374 13.1642 26.69 13.1116 26.3901 13.079C26.0557 13.0436 25.7194 13.0237 25.3814 13.0065C25.256 12.9978 25.1303 13.0172 25.0134 13.0631C24.8964 13.1091 24.7911 13.1806 24.7052 13.2723C24.6193 13.364 24.5549 13.4737 24.5167 13.5934C24.4785 13.7131 24.4674 13.8399 24.4842 13.9644C24.5649 14.5081 25.1005 14.8797 25.6723 14.9132ZM26.4626 12.489C26.7187 12.7126 26.967 12.9424 27.2075 13.1787C27.6126 13.5865 28.2669 13.4107 28.5107 13.0029C28.6382 12.7687 28.6753 12.4959 28.6149 12.2362C28.5497 11.9262 28.3902 11.7278 28.1799 11.5202C27.939 11.2845 27.693 11.054 27.4422 10.8288C27.3496 10.7431 27.2392 10.6789 27.1188 10.641C26.9985 10.603 26.8712 10.5922 26.7462 10.6093C26.6212 10.6264 26.5015 10.6709 26.3957 10.7397C26.29 10.8085 26.2008 10.8999 26.1345 11.0073C25.8572 11.4813 26.0403 12.1084 26.4626 12.489ZM28.9838 11.097C29.0013 11.4329 29.0118 11.7701 29.0155 12.1084C29.0118 12.6857 29.5964 13.0237 30.0577 12.905C30.2996 12.8434 30.5235 12.673 30.6766 12.4428C30.8479 12.1791 30.8769 11.9244 30.8769 11.6272C30.8769 11.2873 30.8642 10.9529 30.8452 10.6167C30.8419 10.4909 30.8105 10.3673 30.7532 10.2552C30.6959 10.1431 30.6142 10.0453 30.5142 9.96889C30.4141 9.89248 30.2983 9.83946 30.175 9.81371C30.0518 9.78797 29.9244 9.79015 29.8021 9.82011C29.2737 9.95605 28.9529 10.5243 28.9838 11.097ZM31.891 11.4903C31.6983 11.7658 31.4977 12.0365 31.2893 12.3023C30.9249 12.7527 31.1714 13.3808 31.6082 13.5774C31.8357 13.6762 32.1167 13.6871 32.3813 13.5992C32.6822 13.5013 32.858 13.3182 33.0474 13.089C33.2567 12.8216 33.4552 12.5506 33.6518 12.2779C33.7266 12.1767 33.7779 12.0602 33.8023 11.9368C33.8267 11.8134 33.8234 11.6861 33.7927 11.5641C33.762 11.4421 33.7047 11.3284 33.6249 11.2312C33.5451 11.134 33.4447 11.0557 33.331 11.0019C32.829 10.7807 32.2263 11.0263 31.891 11.4903ZM33.8213 13.4197C33.5041 13.5366 33.1924 13.6499 32.867 13.7523C32.3178 13.9272 32.171 14.5861 32.423 14.9894C32.5544 15.2014 32.7818 15.3645 33.0474 15.4398C33.3519 15.525 33.6011 15.4751 33.8893 15.3872C34.2101 15.2848 34.5264 15.1679 34.8436 15.0492C34.9621 15.0076 35.0699 14.9401 35.1591 14.8516C35.2482 14.7631 35.3166 14.6558 35.3591 14.5376C35.4016 14.4194 35.4173 14.2932 35.4049 14.1682C35.3926 14.0431 35.3525 13.9225 35.2876 13.8149C34.9967 13.3472 34.3614 13.2176 33.8213 13.4197ZM34.5463 16.23C34.2274 16.121 33.9116 16.0032 33.5993 15.8766C33.0637 15.6591 32.529 16.0696 32.4656 16.54C32.4343 16.8044 32.5028 17.071 32.6577 17.2876C32.8362 17.5468 33.0583 17.671 33.3356 17.7842C33.6482 17.912 33.9645 18.0271 34.2817 18.1386C34.8254 18.328 35.3547 17.9682 35.4154 17.4734C35.4915 16.9296 35.0873 16.4221 34.5463 16.23ZM30.7727 19.7725C30.7542 19.436 30.7442 19.0991 30.7428 18.7621C30.7428 18.183 30.161 17.8431 29.6979 17.96C29.4429 18.0346 29.224 18.2 29.0825 18.425C28.9085 18.6869 28.8786 18.9406 28.8786 19.237C28.8759 19.5768 28.8904 19.9148 28.9076 20.2492C28.9114 20.3749 28.9431 20.4982 29.0004 20.6102C29.0577 20.7222 29.1391 20.82 29.2389 20.8966C29.3387 20.9732 29.4542 21.0266 29.5771 21.0531C29.7001 21.0795 29.8274 21.0783 29.9498 21.0495C30.4836 20.9117 30.7972 20.3426 30.7727 19.7725ZM33.119 18.8699C32.9516 18.5779 32.7921 18.2814 32.6405 17.9809C32.3813 17.4634 31.7043 17.4208 31.3482 17.7344C31.1518 17.9143 31.0283 18.16 31.0011 18.425C30.9648 18.7385 31.0536 18.9769 31.1878 19.2442C31.3409 19.5487 31.4986 19.8405 31.6653 20.1341C31.7257 20.245 31.81 20.341 31.912 20.4153C32.0141 20.4895 32.1313 20.5402 32.2553 20.5636C32.3793 20.587 32.507 20.5826 32.6291 20.5506C32.7512 20.5187 32.8646 20.46 32.9613 20.3788C33.3709 20.0163 33.399 19.3693 33.119 18.8699Z" fill="white"/>
<path d="M30.2523 31.7368L27.8064 28.9909C27.8064 28.9909 27.0497 24.6309 30.9647 27.1476L32.0993 30.6557L30.2523 31.7332" fill="#DDE4E9"/>
<path d="M32.1484 30.7173L30.9966 27.2264C30.9966 27.2264 32.0388 22.9263 34.6306 26.7941L34.2736 30.4617L32.153 30.7173" fill="#C8D2D9"/>
<path d="M33.0629 30.3205L34.6443 26.7661C34.6443 26.7661 38.5222 24.1353 37.799 29.0091L34.9099 31.6345L33.0629 30.3205ZM33.3239 35.5885L33.1155 39.2579C33.1155 39.2579 30.5662 42.8738 29.582 38.329L31.2559 35.0456L33.3239 35.5885ZM34.8791 32.3722L38.4089 33.4842C38.4089 33.4842 41.0715 37.1182 36.2702 37.0983L33.6284 34.4856L34.8791 32.3722Z" fill="#DDE4E9"/>
<path d="M31.2663 34.965L29.6115 38.2484C29.6115 38.2484 25.8343 40.5494 26.7405 35.9864L29.5861 33.6428L31.2663 34.965Z" fill="#C8D2D9"/>
<path d="M30.169 34.5552L26.7424 35.8738C26.7424 35.8738 22.3952 35.0382 26.1343 32.2678L29.8164 32.4482L30.169 34.5552Z" fill="#DDE4E9"/>
<path d="M29.8064 33.119L26.234 32.259C26.234 32.259 23.1337 29.1043 27.7818 28.9448L30.7108 31.1805L29.8064 33.119ZM33.6942 31.5276L37.312 29.3146C37.312 29.3146 42.4178 29.3572 38.7538 33.2812L34.5361 33.8458L33.6942 31.5276Z" fill="#C8D2D9"/>
<path d="M32.0541 35.5304C33.6187 35.5304 34.8871 34.262 34.8871 32.6974C34.8871 31.1329 33.6187 29.8645 32.0541 29.8645C30.4895 29.8645 29.2212 31.1329 29.2212 32.6974C29.2212 34.262 30.4895 35.5304 32.0541 35.5304Z" fill="#F8AE1C"/>
<path d="M31.4313 33.2513C31.0537 32.8245 30.8139 32.2937 30.7432 31.7284C30.6726 31.163 30.7743 30.5895 31.0352 30.083C30.7044 30.2033 30.3991 30.3847 30.1353 30.6177C29.5731 31.1155 29.2312 31.816 29.1847 32.5656C29.1381 33.3151 29.3907 34.0525 29.887 34.6161C30.1925 34.961 30.5775 35.2263 31.0087 35.3888C31.4398 35.5512 31.9041 35.6061 32.3613 35.5485C32.8184 35.4909 33.2547 35.3226 33.6321 35.0583C34.0095 34.7939 34.3167 34.4415 34.527 34.0315C33.9925 34.2285 33.4109 34.2594 32.8585 34.1201C32.3061 33.9809 31.8086 33.678 31.4313 33.2513Z" fill="#CA8A2A"/>
<path d="M34.305 34.6641L36.5216 37.5985C36.5216 37.5985 36.9159 42.0038 33.2202 39.179L32.3765 35.5893L34.305 34.6641Z" fill="#C8D2D9"/>
</svg>
