<svg width="68" height="68" viewBox="0 0 68 68" fill="none" xmlns="http://www.w3.org/2000/svg">
<path d="M10.4393 44.6941C10.4393 44.6941 9.4671 46.4897 9.39273 47.6106C9.31835 48.7316 10.0674 57.8584 11.709 59.8772C13.3505 61.8959 18.3655 67.2084 33.1715 67.3572C47.9774 67.5059 55.5318 60.775 56.3552 59.4309C57.1787 58.0869 58.2252 51.8022 58.2996 46.8669C58.374 41.9316 32.0505 45.3687 32.0505 45.3687L10.4393 44.6941Z" fill="#FBB75A"/>
<path d="M32.8737 56.6577C46.038 57.0296 58.2249 48.9546 58.2249 48.9546L57.853 52.9921C57.853 52.9921 47.8337 60.6952 33.0968 60.3233C18.3599 59.9515 9.83867 52.9921 9.83867 52.9921L9.4668 49.4752C9.4668 49.4752 21.3615 56.3283 32.8737 56.6577Z" fill="#F2A05B"/>
<path d="M34.5204 25.245C28.9104 25.2716 12.0114 26.5891 10.2901 33.7716C8.56888 40.9541 8.792 47.685 9.09481 48.28C9.39231 48.8803 10.0617 47.8444 11.6395 48.4287C13.6582 49.1778 13.5095 54.6337 17.1751 55.6059C20.8408 56.5781 20.9151 51.5684 25.1014 51.8659C29.2876 52.1634 27.3433 57.7787 32.8789 57.8478C38.5632 57.9222 36.4542 52.2909 40.4333 51.7915C44.3698 51.2922 42.3033 57.4016 47.7645 56.5781C53.2258 55.7547 52.5936 47.9825 55.3879 47.159C57.5076 46.5375 57.327 48.62 58.3311 48.5297C59.1545 48.4553 58.8304 37.06 58.0814 34.5206C57.3323 31.9812 50.2986 25.1706 34.5204 25.245Z" fill="url(#paint0_radial_8303_1079)"/>
<path d="M17.5047 41.2887C13.5257 39.6099 12.2401 38.0215 11.5972 37.214C11.151 36.6508 10.4763 36.4277 10.0991 36.8793C9.72724 37.3255 9.91318 37.8143 10.3222 38.2977C10.7313 38.7865 12.5641 41.5862 17.2763 43.1215C21.4201 44.4708 24.156 44.6568 25.2026 44.694C26.366 44.7365 26.8494 43.2755 25.3141 43.0843C23.5557 42.8665 21.8451 43.1215 17.5047 41.2887ZM29.4579 43.6208C28.4379 43.5943 28.0607 44.168 28.0607 44.6196C28.0607 45.1668 28.5335 45.4696 29.3569 45.5174C30.1804 45.5652 30.6532 45.018 30.6532 44.6462C30.6585 44.269 30.4301 43.6421 29.4579 43.6208Z" fill="#FDFFFF"/>
<path d="M13.3556 47.1644C12.8881 47.6213 13.0847 48.1526 13.3078 48.4288C13.6744 48.8804 14.3331 48.9547 14.6731 48.6891C15.0609 48.3916 15.0131 47.8391 14.7688 47.4726C14.4553 46.9944 13.8178 46.7076 13.3556 47.1644ZM14.6625 49.1301C14.0197 49.4913 14.3066 50.2935 14.6519 50.9522C15.3903 52.3547 15.6241 53.4969 16.4741 54.0601C17.3347 54.6285 18.3972 54.2354 18.2963 53.6457C18.1369 52.7054 17.5578 53.4172 17.0584 52.2272C16.8513 51.7332 16.4263 50.9416 15.9322 49.8738C15.6453 49.2469 15.3106 48.7635 14.6625 49.1301ZM29.6331 52.9179C29.0009 53.3694 29.3834 54.5116 30.1803 55.4094C30.9772 56.3072 32.0981 57.0297 33.32 56.7057C34.2656 56.456 34.1912 55.4094 33.5431 55.1119C32.895 54.8144 32.1247 54.9897 31.4234 54.0654C31.0834 53.6138 30.6053 52.2219 29.6331 52.9179ZM44.6463 51.9351C44.0194 52.3972 44.6091 53.3588 44.9969 54.0229C45.3847 54.6869 46.665 55.9619 47.4141 55.2076C47.9613 54.6551 46.9306 53.9857 46.4472 53.2632C46.0859 52.716 45.4803 51.3135 44.6463 51.9351ZM43.5678 50.2032C43.1534 50.506 43.2172 50.9841 43.3659 51.2497C43.5678 51.6004 44.2159 51.7491 44.5878 51.4251C44.9491 51.1116 44.7366 50.6016 44.54 50.3519C44.3434 50.1022 43.8441 50.0013 43.5678 50.2032Z" fill="#FCE9CA"/>
<path d="M45.9002 21.0215C45.9002 21.0215 41.7937 26.6846 42.054 27.8109C42.2558 28.6981 43.2121 29.649 45.2574 29.7871C47.3027 29.9252 48.583 28.9743 48.8752 28.0712C49.2683 26.8706 47.988 23.0456 47.5258 22.2859C46.8724 21.2074 46.2827 21.0534 45.9002 21.0215ZM54.3896 26.1321L49.9749 32.3159C49.9749 32.3159 50.1077 33.6706 51.4358 34.2549C52.8224 34.8606 55.654 34.8977 56.4668 33.7131C57.3912 32.369 56.9927 30.0581 56.5252 28.6609C56.164 27.5665 55.399 26.0152 54.3896 26.1321ZM46.9149 33.1181L42.6437 39.679C42.6437 39.679 42.5958 41.3046 44.5243 41.7562C46.0543 42.1121 48.8646 42.1281 49.9112 41.2302C50.9577 40.3324 50.8727 38.5262 49.9696 36.6296C48.9815 34.5684 47.5152 32.6293 46.9149 33.1181ZM36.2793 34.7277L30.6852 41.4959C30.6852 41.4959 30.5737 42.8027 31.9549 43.4402C33.7293 44.2637 36.4599 44.2212 37.8465 43.4774C39.063 42.824 39.249 40.7521 38.808 39.4559C38.4468 38.3987 37.9474 37.5009 37.7615 37.0121C37.5755 36.5287 36.9487 35.0252 36.2793 34.7277ZM24.2358 32.4434L19.4705 39.8862C19.4705 39.8862 19.6193 41.6234 21.4362 41.9793C23.0033 42.2874 25.5852 42.4681 26.483 41.3418C27.3808 40.2156 27.418 37.3574 26.5574 35.3387C25.6968 33.3252 24.9477 32.709 24.2358 32.4434ZM17.0002 25.4256L16.3627 25.1971L12.1127 31.9121C12.1127 31.9121 11.9905 33.0968 12.9787 33.729C13.9137 34.3293 16.8887 34.6268 18.493 33.8406C20.1027 33.0543 19.9858 30.4193 18.8649 28.1562C17.829 26.0577 17.0002 25.4256 17.0002 25.4256ZM24.799 20.469L20.6712 27.5931C20.6712 27.5931 20.8518 28.5174 22.2755 28.9212C23.6727 29.3196 25.5002 29.2452 26.4352 28.5227C27.3755 27.8002 27.6252 26.2118 27.1949 24.3684C26.9027 23.1093 25.7712 20.8302 24.799 20.469Z" fill="#EE5B4A"/>
<path d="M20.724 35.0412C19.8368 36.9537 18.5937 39.7906 20.0121 40.7256C21.4306 41.6606 23.529 40.1624 24.2728 37.3574C25.0165 34.5524 25.1334 33.1499 24.4215 32.5496C23.7149 31.9599 21.8821 32.539 20.724 35.0412ZM15.9109 24.9793C14.9015 25.0431 13.7434 26.6049 13.1643 28.1403C12.5853 29.6756 11.9106 31.5828 12.1549 32.199C12.3993 32.8153 14.0621 33.5643 14.774 32.2575C15.4859 30.9506 15.3424 29.2028 15.5018 28.3103C15.7834 26.7378 16.9999 25.4309 16.9999 25.4309C16.9999 25.4309 16.5856 24.9368 15.9109 24.9793ZM23.9115 20.1609C23.189 20.2034 22.5037 20.5062 21.8874 22.525C21.5528 23.63 20.6071 24.9103 20.5168 26.1162C20.4265 27.3274 20.6974 27.6409 20.6974 27.6409C20.6974 27.6409 22.4293 27.9756 23.104 26.6262C23.7521 25.3353 23.5503 24.0178 23.7681 23.4068C23.9859 22.7906 24.9793 20.554 24.9793 20.554C24.9793 20.554 24.5437 20.129 23.9115 20.1609Z" fill="#FD6F42"/>
<path d="M45.7245 20.9845C44.9648 20.9473 43.8545 21.8876 43.1479 23.5663C42.4361 25.2451 42.0058 27.0673 42.0376 27.6038C42.0695 28.1404 44.8745 28.2041 45.8626 26.5838C46.4842 25.5638 46.4523 22.8279 46.3833 22.1691C46.3195 21.5051 46.5161 21.0216 45.7245 20.9845ZM54.1554 26.111C53.502 26.2173 51.9614 26.5945 50.7183 29.2773C49.9426 30.9507 49.7089 32.5604 50.272 32.7941C50.8351 33.0279 52.3704 33.2616 53.0717 32.3851C53.7729 31.5085 54.5486 29.1232 54.7239 27.9332C54.8939 26.7538 55.0108 25.9729 54.1554 26.111ZM42.8026 40.1307C43.642 40.8957 45.2411 40.1732 45.8148 39.4932C46.6914 38.4466 47.4245 36.2579 47.4617 34.7279C47.4883 33.6176 47.7433 32.9907 46.7711 33.0438C46.4364 33.0651 45.5173 33.2298 44.4548 34.8023C43.6101 36.0454 43.1267 37.0282 42.8451 38.2448C42.6061 39.2541 42.5583 39.9076 42.8026 40.1307ZM35.1739 34.3507C34.632 34.3295 33.6014 34.6482 32.5389 36.4066C31.4711 38.1651 30.2598 41.0073 30.7804 41.8838C31.3064 42.7604 32.592 42.856 33.9042 42.3141C35.2111 41.7723 36.1089 39.881 36.1833 39.116C36.2576 38.351 36.7623 35.0785 36.332 34.7598C35.9017 34.4463 35.6414 34.372 35.1739 34.3507Z" fill="#FF6E45"/>
<path d="M55.4095 13.8285C55.4095 21.2288 43.5839 27.7897 34.3667 27.7897C25.1495 27.7897 13.4248 20.8304 13.4248 13.4301C13.4248 6.02975 24.9848 0.138184 34.1967 0.138184C43.4086 0.138184 55.4095 6.42818 55.4095 13.8285Z" fill="url(#paint1_radial_8303_1079)"/>
<path d="M38.6697 16.5325C38.8556 16.2722 42.3565 16.5644 42.67 16.6441C42.8187 16.6813 42.7815 30.0316 42.5956 30.1432C42.4362 30.2388 41.8093 30.8178 40.614 30.8178C39.4187 30.8178 38.744 30.4088 38.5209 30.2547C38.2978 30.106 38.4837 16.7928 38.6697 16.5325Z" fill="#FEA8A8"/>
<path d="M32.2418 19.8263C32.0983 19.9485 32.0558 32.8419 32.1674 32.9535C32.2789 33.065 33.028 33.7397 34.4836 33.7025C35.9446 33.6653 36.6139 33.1394 36.7255 33.0278C36.8371 32.9163 36.7999 19.8263 36.6883 19.7519C36.5768 19.6722 32.4649 19.635 32.2418 19.8263Z" fill="#EC7FAE"/>
<path d="M25.9569 17.0583C25.7762 17.1646 25.7709 30.2599 25.8453 30.3715C25.9197 30.483 27.0034 30.8602 28.0128 30.8602C29.0222 30.8602 29.9944 30.6371 30.1059 30.5255C30.2175 30.414 30.1431 17.2124 30.0316 17.0637C29.92 16.9149 26.1428 16.9468 25.9569 17.0583Z" fill="#93C7EE"/>
<path d="M34.5204 7.96875C34.7436 7.96875 35.0464 9.72719 35.4554 10.7366C35.8645 11.7459 37.3998 14.2534 36.7995 16.4209C36.1461 18.7956 32.4433 19.2578 31.6411 16.1606C31.0779 13.9931 32.9851 11.7459 33.4739 10.7366C33.8086 10.0406 34.3664 7.96875 34.5204 7.96875Z" fill="url(#paint2_radial_8303_1079)"/>
<path d="M40.5399 5.23804C40.5399 5.23804 39.9874 7.75616 39.3074 8.82929C38.3352 10.3646 37.719 12.463 38.484 14.179C39.4561 16.3465 43.3502 16.2349 43.4193 12.5321C43.4565 10.5877 42.6065 9.5571 42.0008 8.45741C41.5865 7.70835 40.8002 5.31241 40.5399 5.23804Z" fill="url(#paint3_radial_8303_1079)"/>
<path d="M28.1614 5.65259C28.1614 5.65259 27.1521 8.16009 26.5146 9.09509C25.8771 10.0301 24.7455 12.2348 25.3936 13.9932C26.1799 16.1235 29.6596 16.3785 30.3289 13.5841C30.7752 11.7141 29.803 10.2957 29.1336 8.7604C28.7139 7.79352 28.1614 5.65259 28.1614 5.65259Z" fill="url(#paint4_radial_8303_1079)"/>
<defs>
<radialGradient id="paint0_radial_8303_1079" cx="0" cy="0" r="1" gradientUnits="userSpaceOnUse" gradientTransform="translate(34.699 33.3227) rotate(91.1173) scale(24.323 52.9497)">
<stop offset="0.445" stop-color="#FEEAC9"/>
<stop offset="0.565" stop-color="#FEE7C2"/>
<stop offset="0.741" stop-color="#FEDEAE"/>
<stop offset="0.952" stop-color="#FFCF8D"/>
<stop offset="1" stop-color="#FFCB85"/>
</radialGradient>
<radialGradient id="paint1_radial_8303_1079" cx="0" cy="0" r="1" gradientUnits="userSpaceOnUse" gradientTransform="translate(34.4203 13.9633) scale(20.7315 12.7644)">
<stop offset="0.034" stop-color="#FFE265" stop-opacity="0.7"/>
<stop offset="0.112" stop-color="#FFE575" stop-opacity="0.643"/>
<stop offset="0.417" stop-color="#FFF0B0" stop-opacity="0.422"/>
<stop offset="0.677" stop-color="#FFF8DB" stop-opacity="0.234"/>
<stop offset="0.88" stop-color="#FFFDF5" stop-opacity="0.087"/>
<stop offset="1" stop-color="white" stop-opacity="0"/>
</radialGradient>
<radialGradient id="paint2_radial_8303_1079" cx="0" cy="0" r="1" gradientUnits="userSpaceOnUse" gradientTransform="translate(34.4827 19.1133) scale(10.3211 10.3211)">
<stop offset="0.17" stop-color="#FF9616"/>
<stop offset="0.654" stop-color="#FFD429"/>
</radialGradient>
<radialGradient id="paint3_radial_8303_1079" cx="0" cy="0" r="1" gradientUnits="userSpaceOnUse" gradientTransform="translate(41.0191 16.3768) scale(10.1171 10.1171)">
<stop offset="0.17" stop-color="#FF9616"/>
<stop offset="0.654" stop-color="#FFD429"/>
</radialGradient>
<radialGradient id="paint4_radial_8303_1079" cx="0" cy="0" r="1" gradientUnits="userSpaceOnUse" gradientTransform="translate(28.0616 16.3743) scale(10.0157)">
<stop offset="0.17" stop-color="#FF9616"/>
<stop offset="0.654" stop-color="#FFD429"/>
</radialGradient>
</defs>
</svg>
