<svg width="48" height="48" viewBox="0 0 48 48" fill="none" xmlns="http://www.w3.org/2000/svg">
<path d="M43.32 43.1662L41.0025 45.33C40.11 46.1625 38.7038 46.11 37.875 45.2137L8.15625 11.9925L11.7075 9.10498L43.3875 40.0725C44.2425 40.9387 44.2087 42.3337 43.32 43.1662Z" fill="#F95D5E"/>
<path d="M10.8711 15.03L17.9436 22.9387C18.8998 21.0787 19.5261 19.0237 19.7436 16.965L12.9561 10.3237C12.4435 10.7771 12.0123 11.3149 11.6811 11.9137C11.1598 12.87 10.9086 13.9425 10.8711 15.03Z" fill="#7D5133"/>
<path d="M22.1588 6.8024L19.0725 3.7049C18.7221 3.35114 18.305 3.07026 17.8455 2.87846C17.3859 2.68666 16.893 2.58774 16.395 2.5874C15.39 2.59115 14.4338 2.98115 13.7138 3.6974L2.61751 14.7562C2.26273 15.1059 1.98119 15.5227 1.78932 15.9824C1.59745 16.4422 1.4991 16.9355 1.50001 17.4337C1.50001 18.4462 1.89376 19.3949 2.61001 20.1149L5.70001 23.2124C6.42001 23.9324 7.37626 24.3299 8.39626 24.3299H8.41876C9.42751 24.3262 10.3688 23.9287 11.0625 23.2199L22.155 12.1612C22.875 11.4449 23.2688 10.4924 23.2725 9.48365C23.2763 8.4749 22.875 7.5224 22.1588 6.8024Z" fill="#82AEC0"/>
<path d="M9.21379 7.57494C8.73379 7.61244 8.32504 7.91994 7.94629 8.21244C7.37629 8.65494 6.78754 9.11619 6.43504 9.74994C6.08254 10.3837 6.01879 11.2349 6.47629 11.7937C7.17004 12.6374 13.0913 7.27119 9.21379 7.57494Z" fill="#A06841"/>
<path d="M10.5187 22.9389C8.86119 21.2851 5.39994 17.2726 5.31369 17.1751C4.71369 16.5151 3.15369 16.6726 1.93869 17.1226C1.67619 17.2201 1.49994 17.4789 1.52244 17.7601C1.55994 18.3001 1.76619 19.2339 2.60994 20.1151L5.69994 23.2126C6.41994 23.9326 7.37619 24.3301 8.39619 24.3301H8.41869C9.21369 24.3264 9.96369 24.0789 10.5862 23.6289C10.7662 23.5014 10.7999 23.2576 10.6574 23.0851C10.6124 23.0326 10.5674 22.9839 10.5187 22.9389Z" fill="#2F7889"/>
<path d="M3.52507 43.0463L5.84257 45.21C6.73507 46.0425 7.86757 46.2638 8.69632 45.3675L38.4113 12.1463L34.8601 9.25879L3.18382 40.2263C2.32882 41.0963 2.63257 42.2138 3.52507 43.0463Z" fill="#F95D5E"/>
<path d="M35.6964 15.1838L29.2802 22.3575C31.2302 17.28 29.0439 14.9438 29.0439 14.9438L33.6152 10.4775C34.1252 10.9313 34.5639 11.4713 34.8902 12.0675C35.4114 13.0238 35.6627 14.0963 35.6964 15.1838Z" fill="#7D5133"/>
<path d="M37.3574 7.7287C37.8374 7.7662 38.2461 8.0737 38.6249 8.3662C39.1949 8.8087 39.7836 9.26995 40.1361 9.9037C40.4886 10.5374 40.5524 11.3887 40.0949 11.9474C39.4011 12.7949 33.4761 7.4287 37.3574 7.7287Z" fill="#A06841"/>
<path d="M23.355 28.9837L27.5737 33.7012C27.1725 32.055 27.5475 28.2487 29.2275 26.2312L27.405 24.45L23.355 28.9837Z" fill="#7D5133"/>
<path d="M46.4888 23.1413C46.0838 19.8938 44.595 14.1563 39.9675 8.79001C35.4113 3.51001 29.34 2.23876 27.9225 2.00251C27.9225 2.00251 27.6863 1.96501 27.5888 2.00251C27.5063 2.03626 27.405 2.09626 27.405 2.09626L24.135 4.50751C24.135 4.50751 23.985 6.40501 24.2288 6.41626C25.8038 6.49876 31.785 6.94876 33.3563 9.10501C33.3563 9.10501 30.6675 12.4463 29.8838 13.455H29.8875C29.88 13.4625 29.8725 13.4663 29.8688 13.4738C29.5838 13.7588 29.4938 14.1038 29.5425 14.4788C30.3188 13.8788 31.3313 14.3925 32.265 15.3263C33.2138 16.275 33.735 17.2988 33.0788 18.0825C33.4838 18.1575 33.8513 18.0675 34.1588 17.7638C34.2075 17.715 37.395 14.325 37.3988 14.3288C40.1325 15.5063 40.92 16.5338 42.4088 18.285C42.8925 18.855 45.69 24.1163 46.3425 23.6963C46.5075 23.5875 46.515 23.34 46.4888 23.1413Z" fill="#82AEC0"/>
<path d="M37.395 13.9724L39.4613 11.6812C41.88 13.6799 46.8188 22.7624 46.3388 23.3399C45.885 23.8837 41.7338 16.2224 37.395 13.9724Z" fill="#2F7889"/>
<path d="M16.7774 3.80255C16.9536 3.62255 17.1373 3.36005 17.0061 3.15005C16.9236 3.01505 16.7474 2.97755 16.5899 2.96255C16.1474 2.9213 15.6973 2.97755 15.2811 3.1313C14.5011 3.4163 12.2661 5.67755 11.3173 6.66005C11.2841 6.69418 11.2623 6.73785 11.2551 6.78495C11.2479 6.83205 11.2555 6.88024 11.277 6.92278C11.2985 6.96532 11.3327 7.00009 11.3749 7.02223C11.4171 7.04438 11.4651 7.05279 11.5124 7.0463C12.3374 6.9413 13.7211 6.7163 14.1111 6.3263C14.6774 5.7638 16.7774 3.80255 16.7774 3.80255Z" fill="#B9E4EA"/>
<path d="M8.09857 45.7122C8.6902 45.1205 8.01348 43.4846 6.58707 42.0583C5.16065 40.6319 3.5247 39.9552 2.93306 40.5469C2.34143 41.1385 3.01816 42.7745 4.44457 44.2008C5.87098 45.6272 7.50694 46.3039 8.09857 45.7122Z" fill="#7D5133"/>
<path d="M33.356 9.10509C33.356 9.10509 29.8685 13.4663 29.8648 13.4738C29.5798 13.7588 29.4898 14.1038 29.5385 14.4788C30.2285 13.9426 31.1098 14.2951 31.9535 15.0376C31.4735 14.4038 31.7885 13.9913 31.7885 13.9913C31.7885 13.9913 34.871 10.2976 35.891 9.07134C36.146 8.76759 36.101 8.31384 35.7898 8.06634C34.5523 7.08009 31.2485 4.83009 27.6185 4.21509L23.8385 6.08259C23.8273 6.28134 23.9023 6.40509 24.041 6.40509C24.146 6.40509 24.2998 6.42009 24.2998 6.42009C25.9798 6.51384 31.8073 6.98259 33.356 9.10509Z" fill="#2F7889"/>
<path d="M24.0789 6.25866L27.4839 4.28991C27.5664 4.24116 27.6189 4.15491 27.6189 4.05741V2.23866C27.6189 2.11866 27.4876 2.04366 27.3826 2.11116L24.1089 4.18491C23.9401 4.28991 23.8389 4.47741 23.8389 4.67616V6.12366C23.8389 6.24366 23.9739 6.32241 24.0789 6.25866Z" fill="#B9E4EA"/>
</svg>
