<svg width="62" height="62" viewBox="0 0 62 62" fill="none" xmlns="http://www.w3.org/2000/svg">
<path d="M45.8404 43.0669L5.46334 60.6357C2.83137 61.6832 0.215744 59.0901 1.24032 56.4493L18.8848 15.4368" fill="#FFB636"/>
<path d="M1.24052 56.4491L2.64279 53.1898L3.00328 52.6396C9.97792 42.0144 17.0548 31.454 24.3733 21.0623L32.5792 29.4734C26.3877 33.7241 6.28371 54.4998 2.07268 60.0105C1.156 59.1673 0.710494 57.8153 1.24052 56.4491Z" fill="#FFD469"/>
<path d="M36.859 24.7556C44.3491 32.2458 48.4458 40.2929 46.0093 42.7296C43.5728 45.1661 35.5256 41.0694 28.0354 33.5792C20.5451 26.0891 16.4485 18.0419 18.885 15.6053C21.3216 13.1686 29.3687 17.2654 36.859 24.7556Z" fill="#A06C33"/>
<path d="M18.8423 39.667C18.8423 40.395 18.2521 40.9851 17.5242 40.9851C16.7963 40.9851 16.2061 40.395 16.2061 39.667C16.2061 38.939 16.7961 38.3489 17.5242 38.3489C18.2522 38.3489 18.8423 38.939 18.8423 39.667Z" fill="#F7F9AA"/>
<path d="M60.7873 25.8124C60.7873 26.8572 59.9404 27.7041 58.8956 27.7041C57.8508 27.7041 57.0038 26.8572 57.0038 25.8124C57.0038 24.7676 57.8508 23.9207 58.8956 23.9207C59.9404 23.9207 60.7873 24.7676 60.7873 25.8124ZM48.1544 51.0025C47.1096 51.0025 46.2627 51.8495 46.2627 52.8943C46.2627 53.9391 47.1096 54.786 48.1544 54.786C49.1992 54.786 50.0462 53.9391 50.0462 52.8943C50.0462 51.8495 49.1991 51.0025 48.1544 51.0025Z" fill="#FFB636"/>
<path d="M43.1034 9.62969C42.9411 10.7274 42.2319 11.697 41.1574 12.2899C40.4156 12.6992 39.5432 12.9119 38.6378 12.9119C38.3494 12.9117 38.0613 12.8904 37.776 12.8482C37.1357 12.7536 36.4947 12.8502 36.0177 13.1133C35.8039 13.2313 35.4365 13.4893 35.3768 13.8929C35.3172 14.2965 35.5943 14.6499 35.7646 14.8246C36.1349 15.2042 36.7001 15.4762 37.3206 15.5778C37.3376 15.5796 37.3546 15.5802 37.3717 15.5828C39.9896 15.9698 41.8595 18.0434 41.5398 20.2053C41.3776 21.3031 40.6683 22.2727 39.5937 22.8656C38.8519 23.2749 37.9797 23.4877 37.0743 23.4877C36.7858 23.4874 36.4978 23.4661 36.2124 23.424C35.5722 23.3292 34.931 23.4258 34.454 23.689C34.2402 23.807 33.8728 24.065 33.8131 24.4686C33.7174 25.1164 34.5128 25.9715 35.8075 26.1629C36.5119 26.267 36.9986 26.9225 36.8944 27.627C36.7997 28.2676 36.2493 28.728 35.6205 28.728C35.5576 28.728 35.4942 28.7233 35.4303 28.7139C32.8124 28.3269 30.9426 26.2532 31.2621 24.0914C31.4244 22.9936 32.1336 22.024 33.2082 21.4311C34.1836 20.893 35.3845 20.6946 36.5896 20.8728C37.23 20.9673 37.8708 20.8708 38.3479 20.6077C38.5618 20.4897 38.9292 20.2317 38.9889 19.8281C39.083 19.1909 38.3135 18.3543 37.0559 18.1451C37.0353 18.1431 37.0146 18.1414 36.9939 18.1383C35.7889 17.9601 34.6966 17.4229 33.9187 16.6255C33.0617 15.7471 32.6633 14.6137 32.8257 13.5157C32.988 12.418 33.6972 11.4484 34.7717 10.8555C35.7471 10.3174 36.948 10.119 38.1531 10.2972C38.7932 10.3916 39.4344 10.2952 39.9114 10.0321C40.1252 9.91414 40.4926 9.65609 40.5523 9.25249C40.6119 8.84888 40.3348 8.49553 40.1645 8.32079C39.784 7.93087 39.1985 7.65284 38.5579 7.55827C37.8535 7.45412 37.3668 6.79864 37.471 6.09412C37.5751 5.3896 38.2307 4.90353 38.9351 5.00706C40.1401 5.18531 41.2324 5.72248 42.0103 6.51989C42.8674 7.39842 43.2658 8.53186 43.1034 9.62969Z" fill="#BEA4FF"/>
<path d="M9.89731 19.3373C9.89731 20.5213 8.93752 21.4811 7.75359 21.4811C6.56965 21.4811 5.60986 20.5213 5.60986 19.3373C5.60986 18.1534 6.56965 17.1936 7.75359 17.1936C8.93752 17.1936 9.89731 18.1533 9.89731 19.3373ZM48.2168 16.8606C46.8489 16.8606 45.7402 17.9695 45.7402 19.3372C45.7402 20.705 46.8491 21.8138 48.2168 21.8138C49.5846 21.8138 50.6934 20.705 50.6934 19.3372C50.6934 17.9695 49.5847 16.8606 48.2168 16.8606ZM26.0994 47.9409C24.7315 47.9409 23.6228 49.0497 23.6228 50.4175C23.6228 51.7852 24.7317 52.8941 26.0994 52.8941C27.4672 52.8941 28.576 51.7852 28.576 50.4175C28.576 49.0497 27.4673 47.9409 26.0994 47.9409ZM58.9525 36.6009C59.3271 35.8757 59.0427 34.9841 58.3175 34.6096C58.0283 34.4604 57.6832 34.2623 57.2836 34.033C53.7727 32.0189 46.4676 27.8279 37.866 34.7728C37.2308 35.2855 37.1318 36.2161 37.6445 36.8511C38.1571 37.4863 39.0876 37.5856 39.7228 37.0726C46.7505 31.3986 52.4234 34.6525 55.8127 36.5969C56.2248 36.8333 56.6139 37.0566 56.961 37.2358C57.1334 37.3249 57.3218 37.3792 57.5152 37.3955C57.7086 37.4118 57.9033 37.3898 58.0883 37.3309C58.2732 37.2719 58.4447 37.1771 58.593 37.0519C58.7413 36.9266 58.8634 36.7734 58.9525 36.6009Z" fill="#FF6E83"/>
<path d="M52.6557 7.60182C52.6557 8.32984 52.0655 8.91993 51.3376 8.91993C50.6097 8.91993 50.0195 8.32984 50.0195 7.60182C50.0195 6.87381 50.6096 6.28371 51.3376 6.28371C52.0656 6.28359 52.6557 6.87381 52.6557 7.60182ZM5.60961 1.44033C4.88159 1.44033 4.2915 2.03042 4.2915 2.75843C4.2915 3.48645 4.88159 4.07654 5.60961 4.07654C6.33763 4.07654 6.92784 3.48645 6.92784 2.75843C6.92784 2.03042 6.33763 1.44033 5.60961 1.44033ZM26.278 18.6425C26.4271 18.3502 26.6109 18.0173 26.8055 17.665C27.7929 15.8763 29.145 13.4268 29.2264 10.5738C29.3241 7.14639 27.5391 4.03452 23.921 1.32468C23.2929 0.854235 22.4026 0.982231 21.9326 1.6101C21.4622 2.23809 21.59 3.12838 22.218 3.59858C25.094 5.7526 26.4575 8.00773 26.3866 10.4928C26.3249 12.657 25.2124 14.6725 24.3183 16.2919C24.1124 16.6652 23.9177 17.0177 23.7476 17.3511C23.391 18.0499 23.6684 18.9054 24.3672 19.2621C24.5667 19.3642 24.7876 19.4175 25.0117 19.4177C25.2738 19.4178 25.5307 19.3455 25.7542 19.2087C25.9777 19.0719 26.159 18.876 26.278 18.6425Z" fill="#59CAFC"/>
</svg>
