<svg width="62" height="62" viewBox="0 0 62 62" fill="none" xmlns="http://www.w3.org/2000/svg">
<path d="M17.4183 1.54526C17.1955 1.68088 17.3214 13.3688 17.4619 13.6062C17.6362 13.9017 19.937 16.0474 21.9859 17.8348C23.5892 19.2298 25.0036 18.2514 25.27 18.2514C25.8755 18.2514 36.0473 18.3628 36.3525 18.3628C36.4784 18.3628 38.2803 19.4139 39.7964 18.1254C41.9519 16.2848 44.5433 13.9743 44.5869 13.6353C44.6305 13.3059 44.6353 1.69057 44.4755 1.58885C44.4028 1.54041 42.567 1.51135 40.0047 1.48229C37.825 1.45807 33.3833 2.57697 30.5497 2.56729C26.9169 2.5576 24.8389 1.42416 22.0101 1.44838C19.4187 1.46776 17.5006 1.49197 17.4183 1.54526Z" fill="#176BC6"/>
<path d="M22.0004 1.43372L21.9858 17.8347C21.9858 17.8347 22.7802 18.5418 23.5794 19.1958C24.3351 19.8158 25.0955 20.3825 25.1537 20.3776C25.6816 20.3389 36.6624 20.6101 36.8901 20.4987C37.016 20.4358 37.8346 19.7915 38.6047 19.157C39.2005 18.6629 39.806 18.1398 39.806 18.1398L40.024 1.47247C40.024 1.47247 38.6483 1.46763 36.8465 1.4531C36.8368 1.4531 32.3612 1.97622 30.6658 1.98106C28.6315 1.98591 26.7715 1.41919 24.9793 1.41919C22.9062 1.41919 22.0004 1.43372 22.0004 1.43372Z" fill="white"/>
<path d="M25.1001 20.3923C24.7949 20.1646 24.9742 1.41934 24.9742 1.41934C24.9742 1.41934 26.9795 1.39512 31.2371 1.4145C34.9474 1.42903 36.8462 1.45325 36.8462 1.45325C36.8462 1.45325 37.0206 20.1695 36.8317 20.4746C36.6428 20.7798 33.5379 22.3298 31.4164 22.3637C29.2948 22.3976 25.2503 20.5086 25.1001 20.3923Z" fill="#DB0D2A"/>
<path d="M31.121 25.449C32.1285 25.3908 37.0595 20.6246 36.9674 20.4696C36.9045 20.363 33.9692 20.3485 31.0048 20.334C28.0404 20.3194 25.0615 20.2565 25.047 20.363C25.0227 20.5713 29.881 25.5216 31.121 25.449Z" fill="#FBC21F"/>
<path d="M30.9951 24.616C30.6609 24.616 30.4332 25.2457 30.2347 25.6719C30.0361 26.0982 25.0325 37.263 24.9695 37.3647C24.9017 37.4616 13.6593 37.5633 13.1314 37.6311C12.6034 37.6989 12.2159 37.8927 12.2159 38.1252C12.2159 38.3577 12.1432 38.8324 12.4387 39.06C12.7342 39.2925 21.8453 46.8294 21.8453 46.9941C21.8453 47.1588 18.8712 59.0792 18.9051 59.3457C18.939 59.6121 19.1086 59.893 19.3072 60.0577C19.5057 60.2224 19.6414 60.2175 19.9756 60.1449C20.6004 60.0092 30.4526 53.9594 30.5882 53.9933C30.719 54.0272 40.8473 59.9802 41.1089 60.0141C41.3753 60.048 41.6707 60.0141 41.8645 59.8785C42.0583 59.7428 42.2568 59.2246 42.1551 58.8613C42.0582 58.498 40.0142 47.9919 40.082 47.7933C40.1498 47.5947 48.8347 40.0966 48.9993 39.7672C49.164 39.4378 48.8492 38.6628 48.5537 38.4303C48.2583 38.1978 37.1031 37.4035 36.8706 37.2727C36.6381 37.1419 32.0172 25.7736 31.9542 25.5411C31.8912 25.3086 31.3584 24.616 30.9951 24.616Z" fill="#FBC21F"/>
<path d="M26.3743 37.4277C26.3743 37.6796 29.513 43.9329 29.7116 43.9329C29.9102 43.9329 31.0969 43.4388 31.0969 43.4388C31.0969 43.4388 31.1308 27.3576 31.0291 27.5223C30.9322 27.6869 26.3743 36.8998 26.3743 37.4277ZM32.9133 44.0685C32.7874 43.9135 35.8196 39.0165 36.2168 38.8518C36.6139 38.6871 47.2799 39.3119 47.246 39.5444C47.2121 39.7721 33.0441 44.2332 32.9133 44.0685ZM23.1047 47.1733C22.9449 47.3138 20.5957 57.1805 20.7265 57.4082C20.8572 57.6407 29.4452 47.2702 29.4113 47.0716C29.3774 46.873 29.4452 45.0227 29.4452 45.0227C29.4452 45.0227 23.3663 46.9408 23.1047 47.1733Z" fill="#FDEFAA"/>
<path d="M31.9783 43.4437C31.9444 43.3419 31.6586 42.0196 31.5908 41.666C31.523 41.3318 31.2905 40.9637 30.9563 40.9637C30.6366 40.9637 30.3944 41.3076 30.2878 41.7677C30.1377 42.4022 29.9052 43.4437 29.9052 43.4437C29.9052 43.4437 28.6652 43.3371 28.3843 43.3274C27.9483 43.3129 27.43 43.3419 27.3477 43.7294C27.2944 43.9668 27.3719 44.2816 28.0161 44.6837C28.5538 45.0179 29.1883 45.386 29.1883 45.386C29.1883 45.386 28.9994 46.0883 28.8541 46.7229C28.7718 47.091 28.5683 47.7788 28.9219 47.9629C29.2707 48.1469 29.6775 47.8466 30.0747 47.4591L30.9272 46.6405C30.9272 46.6405 31.6732 47.2072 31.9541 47.4349C32.2932 47.711 32.826 47.8854 33.0924 47.6529C33.3782 47.401 33.3152 46.9844 33.1602 46.5291C32.9907 46.0447 32.6564 45.323 32.6564 45.323C32.6564 45.323 33.8093 44.5965 34.0224 44.4463C34.2403 44.2962 34.4922 43.9426 34.3421 43.5599C34.2403 43.2983 33.8044 43.2063 33.4363 43.2741C33.0682 43.3419 31.9783 43.4437 31.9783 43.4437ZM35.7177 43.1385C35.8824 43.7246 36.4636 43.6083 37.4953 43.3468C38.5222 43.0901 48.2485 40.0918 48.5778 39.9804C48.9363 39.8593 49.4885 39.4427 49.3238 38.9535C49.1591 38.4594 48.6457 38.3432 48.0596 38.4837C47.4735 38.6241 37.8199 41.8743 37.1853 42.1068C36.7736 42.2618 35.553 42.5524 35.7177 43.1385ZM31.0193 39.2877C31.6247 39.2199 31.5811 37.9315 31.6635 36.8755C31.7458 35.8196 31.8911 25.4976 31.8911 25.1488C31.8911 24.771 31.6635 24.1655 31.1452 24.1655C30.6269 24.1655 30.3605 24.5627 30.3072 25.1585C30.2539 25.7591 30.3024 36.0424 30.3411 36.7108C30.4089 37.7765 30.4428 39.3555 31.0193 39.2877ZM25.8074 43.0222C25.9575 42.4362 24.7902 42.0147 23.8118 41.6079C22.8333 41.1962 13.6253 37.9266 13.2911 37.8152C12.9327 37.699 12.3272 37.7038 12.1625 38.193C11.9978 38.6871 12.2546 39.0794 12.8068 39.3216C13.3589 39.5638 22.5185 42.688 23.1675 42.8624C24.1993 43.1337 25.6524 43.6277 25.8074 43.0222ZM28.1275 48.9122C27.6093 48.5926 26.8488 49.416 26.1319 50.2007C25.415 50.9854 19.3022 58.6676 19.0843 58.9437C18.8518 59.244 18.6193 59.8979 19.031 60.2127C19.4378 60.5324 19.9319 60.3435 20.3436 59.9027C20.7553 59.4619 26.7422 51.8282 27.12 51.2712C27.7207 50.3944 28.6216 49.2174 28.1275 48.9122ZM33.8528 48.7476C33.3975 49.1496 34.0853 49.973 34.6278 50.8837C35.1703 51.7943 40.5178 59.4377 40.7213 59.7235C40.9393 60.0335 41.4963 60.4452 41.9225 60.1449C42.3488 59.8446 42.31 59.3215 42.0097 58.8032C41.7094 58.2849 36.1149 50.6221 35.6935 50.099C35.0202 49.2707 34.2888 48.3649 33.8528 48.7476Z" fill="#F6922C"/>
</svg>
