<svg width="100" height="100" viewBox="0 0 100 100" fill="none" xmlns="http://www.w3.org/2000/svg">
<circle cx="50" cy="50" r="49.5" fill="white" stroke="#E08CB8"/>
<path d="M29.8941 72.4573L69.9178 60.9718L71.1967 59.7953V36.9641L69.5359 33.7466L27.3672 45.6822V69.9662C27.3672 71.9568 28.1732 72.8685 29.8941 72.4573Z" fill="url(#paint0_linear_406_1)"/>
<path d="M29.8941 72.4573L69.9178 60.9718L71.1967 59.7953V36.9641L69.5359 33.7466L27.3672 45.6822V69.9662C27.3672 71.9568 28.1732 72.8685 29.8941 72.4573Z" fill="url(#paint1_linear_406_1)"/>
<path d="M29.8941 72.4573L69.9178 60.9718L71.1967 59.7953V36.9641L69.5359 33.7466L27.3672 45.6822V69.9662C27.3672 71.9568 28.1732 72.8685 29.8941 72.4573Z" fill="url(#paint2_linear_406_1)"/>
<path d="M29.8941 72.4573L69.9178 60.9718L71.1967 59.7953V36.9641L69.5359 33.7466L27.3672 45.6822V69.9662C27.3672 71.9568 28.1732 72.8685 29.8941 72.4573Z" fill="url(#paint3_linear_406_1)"/>
<path d="M29.8941 72.4573L69.9178 60.9718L71.1967 59.7953V36.9641L69.5359 33.7466L27.3672 45.6822V69.9662C27.3672 71.9568 28.1732 72.8685 29.8941 72.4573Z" fill="url(#paint4_linear_406_1)"/>
<path d="M45.1803 28.0755L28.979 43.0629C25.8168 45.7636 27.4596 47.6307 30.4968 46.9612L67.914 36.2265C68.876 35.999 69.4838 35.9242 69.4838 37.0374V43.5699C69.4838 44.6862 69.5878 45.268 68.876 45.4922C68.876 45.4922 32.7929 56.37 32.0161 56.5812C31.2394 56.7925 29.5136 57.1142 28.9774 57.0362C28.4428 56.9582 27.7635 56.5812 27.4596 56.5812C27.1558 56.5812 27.1558 56.7567 27.1558 57.5936V61.115C27.1558 61.3799 27.3833 61.5505 27.3833 61.5505C27.8421 61.8387 28.3542 62.0314 28.8892 62.1171C29.4242 62.2028 29.9709 62.1798 30.4968 62.0494L68.2699 51.1131C68.876 50.9604 69.4838 51.3666 69.4838 52.1255V60.7347C69.4838 61.258 69.8006 61.2856 70.0233 61.258C71.6353 60.7932 72.75 59.8394 72.75 58.2014V37.0374C72.75 35.6512 71.7474 33.3356 69.4838 32.6336L51.56 28.4281C49.8586 28.0739 46.568 26.9997 45.1803 28.0755Z" fill="url(#paint5_linear_406_1)"/>
<path d="M45.1803 28.0755L28.979 43.0629C25.8168 45.7636 27.4596 47.6307 30.4968 46.9612L67.914 36.2265C68.876 35.999 69.4838 35.9242 69.4838 37.0374V43.5699C69.4838 44.6862 69.5878 45.268 68.876 45.4922C68.876 45.4922 32.7929 56.37 32.0161 56.5812C31.2394 56.7925 29.5136 57.1142 28.9774 57.0362C28.4428 56.9582 27.7635 56.5812 27.4596 56.5812C27.1558 56.5812 27.1558 56.7567 27.1558 57.5936V61.115C27.1558 61.3799 27.3833 61.5505 27.3833 61.5505C27.8421 61.8387 28.3542 62.0314 28.8892 62.1171C29.4242 62.2028 29.9709 62.1798 30.4968 62.0494L68.2699 51.1131C68.876 50.9604 69.4838 51.3666 69.4838 52.1255V60.7347C69.4838 61.258 69.8006 61.2856 70.0233 61.258C71.6353 60.7932 72.75 59.8394 72.75 58.2014V37.0374C72.75 35.6512 71.7474 33.3356 69.4838 32.6336L51.56 28.4281C49.8586 28.0739 46.568 26.9997 45.1803 28.0755Z" fill="url(#paint6_linear_406_1)"/>
<path d="M45.1803 28.0755L28.979 43.0629C25.8168 45.7636 27.4596 47.6307 30.4968 46.9612L67.914 36.2265C68.876 35.999 69.4838 35.9242 69.4838 37.0374V43.5699C69.4838 44.6862 69.5878 45.268 68.876 45.4922C68.876 45.4922 32.7929 56.37 32.0161 56.5812C31.2394 56.7925 29.5136 57.1142 28.9774 57.0362C28.4428 56.9582 27.7635 56.5812 27.4596 56.5812C27.1558 56.5812 27.1558 56.7567 27.1558 57.5936V61.115C27.1558 61.3799 27.3833 61.5505 27.3833 61.5505C27.8421 61.8387 28.3542 62.0314 28.8892 62.1171C29.4242 62.2028 29.9709 62.1798 30.4968 62.0494L68.2699 51.1131C68.876 50.9604 69.4838 51.3666 69.4838 52.1255V60.7347C69.4838 61.258 69.8006 61.2856 70.0233 61.258C71.6353 60.7932 72.75 59.8394 72.75 58.2014V37.0374C72.75 35.6512 71.7474 33.3356 69.4838 32.6336L51.56 28.4281C49.8586 28.0739 46.568 26.9997 45.1803 28.0755Z" fill="url(#paint7_linear_406_1)"/>
<path d="M45.1803 28.0755L28.979 43.0629C25.8168 45.7636 27.4596 47.6307 30.4968 46.9612L67.914 36.2265C68.876 35.999 69.4838 35.9242 69.4838 37.0374V43.5699C69.4838 44.6862 69.5878 45.268 68.876 45.4922C68.876 45.4922 32.7929 56.37 32.0161 56.5812C31.2394 56.7925 29.5136 57.1142 28.9774 57.0362C28.4428 56.9582 27.7635 56.5812 27.4596 56.5812C27.1558 56.5812 27.1558 56.7567 27.1558 57.5936V61.115C27.1558 61.3799 27.3833 61.5505 27.3833 61.5505C27.8421 61.8387 28.3542 62.0314 28.8892 62.1171C29.4242 62.2028 29.9709 62.1798 30.4968 62.0494L68.2699 51.1131C68.876 50.9604 69.4838 51.3666 69.4838 52.1255V60.7347C69.4838 61.258 69.8006 61.2856 70.0233 61.258C71.6353 60.7932 72.75 59.8394 72.75 58.2014V37.0374C72.75 35.6512 71.7474 33.3356 69.4838 32.6336L51.56 28.4281C49.8586 28.0739 46.568 26.9997 45.1803 28.0755Z" fill="url(#paint8_linear_406_1)"/>
<path d="M45.1803 28.0755L28.979 43.0629C25.8168 45.7636 27.4596 47.6307 30.4968 46.9612L67.914 36.2265C68.876 35.999 69.4838 35.9242 69.4838 37.0374V43.5699C69.4838 44.6862 69.5878 45.268 68.876 45.4922C68.876 45.4922 32.7929 56.37 32.0161 56.5812C31.2394 56.7925 29.5136 57.1142 28.9774 57.0362C28.4428 56.9582 27.7635 56.5812 27.4596 56.5812C27.1558 56.5812 27.1558 56.7567 27.1558 57.5936V61.115C27.1558 61.3799 27.3833 61.5505 27.3833 61.5505C27.8421 61.8387 28.3542 62.0314 28.8892 62.1171C29.4242 62.2028 29.9709 62.1798 30.4968 62.0494L68.2699 51.1131C68.876 50.9604 69.4838 51.3666 69.4838 52.1255V60.7347C69.4838 61.258 69.8006 61.2856 70.0233 61.258C71.6353 60.7932 72.75 59.8394 72.75 58.2014V37.0374C72.75 35.6512 71.7474 33.3356 69.4838 32.6336L51.56 28.4281C49.8586 28.0739 46.568 26.9997 45.1803 28.0755Z" fill="url(#paint9_radial_406_1)"/>
<path d="M45.1803 28.0755L28.979 43.0629C25.8168 45.7636 27.4596 47.6307 30.4968 46.9612L67.914 36.2265C68.876 35.999 69.4838 35.9242 69.4838 37.0374V43.5699C69.4838 44.6862 69.5878 45.268 68.876 45.4922C68.876 45.4922 32.7929 56.37 32.0161 56.5812C31.2394 56.7925 29.5136 57.1142 28.9774 57.0362C28.4428 56.9582 27.7635 56.5812 27.4596 56.5812C27.1558 56.5812 27.1558 56.7567 27.1558 57.5936V61.115C27.1558 61.3799 27.3833 61.5505 27.3833 61.5505C27.8421 61.8387 28.3542 62.0314 28.8892 62.1171C29.4242 62.2028 29.9709 62.1798 30.4968 62.0494L68.2699 51.1131C68.876 50.9604 69.4838 51.3666 69.4838 52.1255V60.7347C69.4838 61.258 69.8006 61.2856 70.0233 61.258C71.6353 60.7932 72.75 59.8394 72.75 58.2014V37.0374C72.75 35.6512 71.7474 33.3356 69.4838 32.6336L51.56 28.4281C49.8586 28.0739 46.568 26.9997 45.1803 28.0755Z" fill="url(#paint10_linear_406_1)"/>
<path d="M45.1803 28.0755L28.979 43.0629C25.8168 45.7636 27.4596 47.6307 30.4968 46.9612L67.914 36.2265C68.876 35.999 69.4838 35.9242 69.4838 37.0374V43.5699C69.4838 44.6862 69.5878 45.268 68.876 45.4922C68.876 45.4922 32.7929 56.37 32.0161 56.5812C31.2394 56.7925 29.5136 57.1142 28.9774 57.0362C28.4428 56.9582 27.7635 56.5812 27.4596 56.5812C27.1558 56.5812 27.1558 56.7567 27.1558 57.5936V61.115C27.1558 61.3799 27.3833 61.5505 27.3833 61.5505C27.8421 61.8387 28.3542 62.0314 28.8892 62.1171C29.4242 62.2028 29.9709 62.1798 30.4968 62.0494L68.2699 51.1131C68.876 50.9604 69.4838 51.3666 69.4838 52.1255V60.7347C69.4838 61.258 69.8006 61.2856 70.0233 61.258C71.6353 60.7932 72.75 59.8394 72.75 58.2014V37.0374C72.75 35.6512 71.7474 33.3356 69.4838 32.6336L51.56 28.4281C49.8586 28.0739 46.568 26.9997 45.1803 28.0755Z" fill="url(#paint11_linear_406_1)"/>
<path d="M45.1803 28.0755L28.979 43.0629C25.8168 45.7636 27.4596 47.6307 30.4968 46.9612L67.914 36.2265C68.876 35.999 69.4838 35.9242 69.4838 37.0374V43.5699C69.4838 44.6862 69.5878 45.268 68.876 45.4922C68.876 45.4922 32.7929 56.37 32.0161 56.5812C31.2394 56.7925 29.5136 57.1142 28.9774 57.0362C28.4428 56.9582 27.7635 56.5812 27.4596 56.5812C27.1558 56.5812 27.1558 56.7567 27.1558 57.5936V61.115C27.1558 61.3799 27.3833 61.5505 27.3833 61.5505C27.8421 61.8387 28.3542 62.0314 28.8892 62.1171C29.4242 62.2028 29.9709 62.1798 30.4968 62.0494L68.2699 51.1131C68.876 50.9604 69.4838 51.3666 69.4838 52.1255V60.7347C69.4838 61.258 69.8006 61.2856 70.0233 61.258C71.6353 60.7932 72.75 59.8394 72.75 58.2014V37.0374C72.75 35.6512 71.7474 33.3356 69.4838 32.6336L51.56 28.4281C49.8586 28.0739 46.568 26.9997 45.1803 28.0755Z" fill="url(#paint12_radial_406_1)"/>
<g filter="url(#filter0_f_406_1)">
<path d="M44.5791 36.3143C43.5391 36.3143 43.1816 35.7293 43.323 34.6503C44.4036 19.2046 57.6929 36.3143 47.769 36.3143H44.5791Z" fill="#D52D26"/>
<path d="M44.5791 36.3143C43.5391 36.3143 43.1816 35.7293 43.323 34.6503C44.4036 19.2046 57.6929 36.3143 47.769 36.3143H44.5791Z" fill="#A23828"/>
</g>
<path d="M43.539 31.3399C43.7437 30.3194 44.0834 27.4367 47.6275 26.7314L51.456 28.6928L52.8502 32.8772C51.5437 36.3888 48.8462 36.1386 47.7689 36.1386H44.579C43.539 36.1386 42.9475 35.5471 43.0905 34.4599L43.539 31.3399Z" fill="#D52D26"/>
<path d="M43.539 31.3399C43.7437 30.3194 44.0834 27.4367 47.6275 26.7314L51.456 28.6928L52.8502 32.8772C51.5437 36.3888 48.8462 36.1386 47.7689 36.1386H44.579C43.539 36.1386 42.9475 35.5471 43.0905 34.4599L43.539 31.3399Z" fill="url(#paint13_radial_406_1)"/>
<g filter="url(#filter1_f_406_1)">
<path d="M51.4591 31.2622C50.7441 30.4578 50.8806 29.1984 50.8806 29.1984C50.8806 29.1984 49.7529 29.1724 49.1874 28.5582C45.4629 24.8369 50.0096 27.3232 51.1813 28.3664C52.7039 29.7249 52.9704 32.112 52.9704 32.112C52.8436 32.2664 53.2239 32.9115 52.8176 32.684C52.4114 32.4565 51.4591 31.2622 51.4591 31.2622Z" fill="#8DC527"/>
<path d="M51.4591 31.2622C50.7441 30.4578 50.8806 29.1984 50.8806 29.1984C50.8806 29.1984 49.7529 29.1724 49.1874 28.5582C45.4629 24.8369 50.0096 27.3232 51.1813 28.3664C52.7039 29.7249 52.9704 32.112 52.9704 32.112C52.8436 32.2664 53.2239 32.9115 52.8176 32.684C52.4114 32.4565 51.4591 31.2622 51.4591 31.2622Z" fill="#672A17"/>
</g>
<path d="M51.5273 31.1043C50.8123 30.2999 51.0073 29.0731 51.0073 29.0731C51.0073 29.0731 49.8471 29.0731 49.2816 28.4556L47.3429 26.4487C47.2389 26.3057 47.3429 26.1513 47.4859 26.0457C47.4859 26.0457 48.6251 25.1828 50.3931 26.3057C51.3713 27.0272 53.2303 29.3314 53.7016 30.2999C54.5579 31.7624 53.4643 33.0186 53.4643 33.0186C53.3392 33.1729 53.1929 33.2168 53.0158 33.0186L51.5273 31.1043Z" fill="#8DC527"/>
<path d="M51.5273 31.1043C50.8123 30.2999 51.0073 29.0731 51.0073 29.0731C51.0073 29.0731 49.8471 29.0731 49.2816 28.4556L47.3429 26.4487C47.2389 26.3057 47.3429 26.1513 47.4859 26.0457C47.4859 26.0457 48.6251 25.1828 50.3931 26.3057C51.3713 27.0272 53.2303 29.3314 53.7016 30.2999C54.5579 31.7624 53.4643 33.0186 53.4643 33.0186C53.3392 33.1729 53.1929 33.2168 53.0158 33.0186L51.5273 31.1043Z" fill="url(#paint14_radial_406_1)"/>
<defs>
<filter id="filter0_f_406_1" x="43.1935" y="28.0919" width="8.33428" height="8.32256" filterUnits="userSpaceOnUse" color-interpolation-filters="sRGB">
<feFlood flood-opacity="0" result="BackgroundImageFix"/>
<feBlend mode="normal" in="SourceGraphic" in2="BackgroundImageFix" result="shape"/>
<feGaussianBlur stdDeviation="0.05" result="effect1_foregroundBlur_406_1"/>
</filter>
<filter id="filter1_f_406_1" x="47.6485" y="26.4825" width="5.4627" height="6.34941" filterUnits="userSpaceOnUse" color-interpolation-filters="sRGB">
<feFlood flood-opacity="0" result="BackgroundImageFix"/>
<feBlend mode="normal" in="SourceGraphic" in2="BackgroundImageFix" result="shape"/>
<feGaussianBlur stdDeviation="0.05" result="effect1_foregroundBlur_406_1"/>
</filter>
<linearGradient id="paint0_linear_406_1" x1="26.7432" y1="54.012" x2="66.1494" y2="53.9616" gradientUnits="userSpaceOnUse">
<stop offset="0.015" stop-color="#CA957F"/>
<stop offset="0.049" stop-color="#FFB4A4"/>
<stop offset="0.077" stop-color="#FFD6B0"/>
<stop offset="0.142" stop-color="#FFD9B0"/>
<stop offset="0.521" stop-color="#FFC18A"/>
<stop offset="0.915" stop-color="#FF9D50"/>
</linearGradient>
<linearGradient id="paint1_linear_406_1" x1="46.7502" y1="59.2428" x2="49.2819" y2="67.571" gradientUnits="userSpaceOnUse">
<stop offset="0.782" stop-color="#FFB37B" stop-opacity="0"/>
<stop offset="0.886" stop-color="#FF9C81"/>
<stop offset="0.927" stop-color="#F67F9D"/>
</linearGradient>
<linearGradient id="paint2_linear_406_1" x1="56.2971" y1="48.6803" x2="58.1252" y2="55.2811" gradientUnits="userSpaceOnUse">
<stop offset="0.261" stop-color="#F08456" stop-opacity="0"/>
<stop offset="0.76" stop-color="#E4794B"/>
<stop offset="0.919" stop-color="#E4794B" stop-opacity="0"/>
</linearGradient>
<linearGradient id="paint3_linear_406_1" x1="49.2819" y1="37.1022" x2="50.7119" y2="42.1803" gradientUnits="userSpaceOnUse">
<stop offset="0.261" stop-color="#F08456" stop-opacity="0"/>
<stop offset="0.76" stop-color="#E4794B"/>
<stop offset="0.919" stop-color="#E4794B" stop-opacity="0"/>
</linearGradient>
<linearGradient id="paint4_linear_406_1" x1="27.3688" y1="57.3123" x2="30.5002" y2="57.3123" gradientUnits="userSpaceOnUse">
<stop stop-color="#C29677"/>
<stop offset="0.578" stop-color="#FEB3A3"/>
<stop offset="1" stop-color="#FFCEB1" stop-opacity="0"/>
</linearGradient>
<linearGradient id="paint5_linear_406_1" x1="41.8246" y1="29.6371" x2="52.6406" y2="66.25" gradientUnits="userSpaceOnUse">
<stop stop-color="#F3CFA2"/>
<stop offset="0.256" stop-color="#F3CFA2"/>
<stop offset="0.298" stop-color="#FFF0CB"/>
<stop offset="0.322" stop-color="#FFD5CE"/>
<stop offset="0.547" stop-color="#FFD6CF"/>
<stop offset="0.604" stop-color="#FFFEE2"/>
<stop offset="0.621" stop-color="#FFE4E5"/>
<stop offset="0.972" stop-color="#FFE3E3"/>
<stop offset="1" stop-color="#F9AAE0"/>
</linearGradient>
<linearGradient id="paint6_linear_406_1" x1="27.1558" y1="59.1406" x2="29.993" y2="59.1406" gradientUnits="userSpaceOnUse">
<stop stop-color="#C69C9B"/>
<stop offset="0.141" stop-color="#DDA4B5"/>
<stop offset="1" stop-color="#F8B6D3" stop-opacity="0"/>
</linearGradient>
<linearGradient id="paint7_linear_406_1" x1="37.8125" y1="34.6389" x2="38.5486" y2="35.4254" gradientUnits="userSpaceOnUse">
<stop stop-color="#B7A287"/>
<stop offset="0.816" stop-color="#CFB18C" stop-opacity="0"/>
</linearGradient>
<linearGradient id="paint8_linear_406_1" x1="58.6076" y1="29.967" x2="58.4809" y2="30.5374" gradientUnits="userSpaceOnUse">
<stop stop-color="#B7A287"/>
<stop offset="0.816" stop-color="#CFB18C" stop-opacity="0"/>
</linearGradient>
<radialGradient id="paint9_radial_406_1" cx="0" cy="0" r="1" gradientUnits="userSpaceOnUse" gradientTransform="translate(71.0243 44.891) rotate(90) scale(10.7464 4.97656)">
<stop stop-color="#FFDED3"/>
<stop offset="1" stop-color="#FFDED5" stop-opacity="0"/>
</radialGradient>
<linearGradient id="paint10_linear_406_1" x1="72.75" y1="44.891" x2="68.7899" y2="44.891" gradientUnits="userSpaceOnUse">
<stop stop-color="#D6C0AA"/>
<stop offset="0.042" stop-color="#F6D4BC"/>
<stop offset="0.192" stop-color="#FFDED4"/>
<stop offset="1" stop-color="#FFDED3" stop-opacity="0"/>
</linearGradient>
<linearGradient id="paint11_linear_406_1" x1="68.8646" y1="58.099" x2="70.3629" y2="61.7309" gradientUnits="userSpaceOnUse">
<stop offset="0.293" stop-color="#FFD6E3" stop-opacity="0"/>
<stop offset="0.589" stop-color="#F4A8DC" stop-opacity="0"/>
<stop offset="0.945" stop-color="#E596DD"/>
</linearGradient>
<radialGradient id="paint12_radial_406_1" cx="0" cy="0" r="1" gradientUnits="userSpaceOnUse" gradientTransform="translate(46.4699 34.8694) rotate(87.991) scale(2.89632 7.15996)">
<stop offset="0.52" stop-color="#B28162"/>
<stop offset="1" stop-color="#C29A79" stop-opacity="0"/>
</radialGradient>
<radialGradient id="paint13_radial_406_1" cx="0" cy="0" r="1" gradientUnits="userSpaceOnUse" gradientTransform="translate(50.3042 29.4835) rotate(113.864) scale(7.28003 7.56743)">
<stop offset="0.142" stop-color="#FF6A83"/>
<stop offset="0.521" stop-color="#EE2D47"/>
<stop offset="1" stop-color="#F32F59" stop-opacity="0"/>
</radialGradient>
<radialGradient id="paint14_radial_406_1" cx="0" cy="0" r="1" gradientUnits="userSpaceOnUse" gradientTransform="translate(50.6661 29.4403) rotate(90) scale(3.71088 3.3639)">
<stop stop-color="#B1EB67"/>
<stop offset="0.901" stop-color="#AFEA63" stop-opacity="0"/>
</radialGradient>
</defs>
</svg>
