<svg width="100" height="100" viewBox="0 0 100 100" fill="none" xmlns="http://www.w3.org/2000/svg">
<circle cx="50" cy="50" r="49.5" fill="white" stroke="#F95D5E"/>
<path d="M29.6624 36.8901C29.6624 36.8901 27.0421 37.0973 26.6927 37.6864C26.3393 38.2754 26.3189 39.1814 26.3189 40.1767C26.3189 41.1761 26.2783 43.4673 26.2783 43.4673L26.9039 44.812C26.9039 44.812 27.0218 61.9517 27.0218 62.4839C27.0218 63.012 27.0218 63.6579 27.7855 64.0683C28.5493 64.4786 47.9599 73.8548 48.5652 74.1067C49.4793 74.4845 49.9139 74.3423 49.9139 74.3423L71.4818 38.2714C71.4818 38.2714 71.4127 37.2842 70.5149 37.0486C69.9989 36.9186 29.6624 36.8901 29.6624 36.8901Z" fill="#F5B03E"/>
<path d="M49.6824 48.7489C49.3534 49.6548 49.5037 59.0229 49.5605 65.8357C49.6174 72.6445 49.3859 74.0542 49.5605 74.2898C49.7352 74.5254 50.2105 74.2979 51.5552 73.7007C54.0537 72.5957 66.0543 66.6564 66.9359 66.1282C67.8174 65.6001 69.9705 64.5073 70.324 63.9182C70.6774 63.3292 70.8684 57.8489 70.9862 53.4492C71.104 49.0454 71.2218 45.5232 71.2218 45.5232L71.7499 43.9389C71.7499 43.9389 71.6362 39.657 71.6159 39.1857C71.5793 38.4057 71.494 38.0036 71.2949 38.1011C71.0105 38.2351 68.638 40.1811 62.3574 43.2361C58.4127 45.1495 49.9099 48.1232 49.6824 48.7489Z" fill="#E07F14"/>
<path d="M49.7392 28.554C47.9801 28.4727 43.166 31.2555 38.5267 32.779C33.8873 34.3024 26.8835 37.3656 26.8226 37.5443C26.7657 37.719 29.642 39.0068 31.4782 39.8884C33.6598 40.9324 41.9879 44.8771 43.5114 45.5231C45.0389 46.169 48.6789 47.6802 49.2639 47.6356C50.0845 47.5787 57.8357 44.5237 61.7682 42.6468C65.7007 40.7699 70.6164 37.8612 70.6814 37.1543C70.7098 36.8374 63.4501 34.1277 59.8304 32.4905C52.8429 29.3259 51.027 28.6149 49.7392 28.554Z" fill="#FDD717"/>
<path d="M26.2986 44.2192C26.3596 44.9829 26.778 45.2551 27.8424 45.7182C28.9067 46.1813 49.0283 56.6342 49.4914 56.6342C49.9545 56.6342 50.0927 54.9767 49.5849 55.0213C49.3086 55.0457 42.6989 51.9054 36.5239 48.7692C31.2833 46.1123 26.2661 43.4595 26.2661 43.4595L26.2986 44.2192Z" fill="#E37D14"/>
<path d="M71.7542 43.9021C71.7542 43.9021 50.2676 54.8302 50.0564 54.9358C49.8451 55.0415 49.5079 55.0049 49.5079 55.0049L49.4917 56.634C49.4917 56.634 49.6908 56.6787 49.9142 56.6096C50.0442 56.569 71.1326 45.653 71.2261 45.6205C71.3195 45.588 71.7258 45.3443 71.8111 44.8283C71.8842 44.414 71.7542 43.9021 71.7542 43.9021Z" fill="#BA5E0D"/>
<path d="M34.7241 63.5766L38.9288 69.8329L40.7691 70.4626C40.7691 70.4626 40.9195 63.6376 40.9804 58.5798C41.0657 51.1901 41.0332 44.4504 41.1388 44.0685C41.3135 43.4226 49.4913 40.7698 49.4913 40.7698C49.4913 40.7698 58.7295 43.6663 59.022 44.3123C59.152 44.5966 59.0504 49.3823 59.022 54.9601C58.9854 62.0045 58.9976 70.1376 58.9976 70.1376C58.9976 70.1376 59.9523 70.1335 60.066 69.7801C60.1838 69.4266 60.6551 66.7007 60.6551 66.7007L64.2382 42.8173L66.0582 40.4691L63.5313 35.6591L53.1638 30.5566L49.601 31.357L45.7457 30.7679L33.5176 39.5551L34.9435 42.4476L38.4413 44.231L34.7241 63.5766Z" fill="#AF0F1B"/>
<path d="M60.0827 44.0646C59.8593 44.5561 59.9893 69.8858 59.9893 69.8858C59.9893 69.8858 61.1064 69.2683 62.5446 68.5777C63.9746 67.8911 65.0024 67.4646 65.0918 67.1071C65.1811 66.7496 65.3396 41.7002 65.3396 41.7002L60.0827 44.0646Z" fill="#F95D5E"/>
<path d="M39.7982 43.5406C39.9323 43.6869 39.7129 69.9712 39.4407 70.0322C39.2254 70.085 34.3301 67.8994 34.3301 67.6759C34.3301 67.4525 34.7241 42.3341 34.7241 42.3341C34.7241 42.3341 39.4001 43.0937 39.7982 43.5406ZM49.4995 29.7891C48.1466 29.7891 46.6516 30.175 46.217 31.3084C45.7823 32.4419 45.6848 34.1278 45.6848 35.3872C45.6848 36.5938 45.4898 39.6812 49.207 39.6325C52.9241 39.5837 53.0338 38.2066 53.0907 35.1678C53.1395 32.6328 52.8023 31.4019 52.4651 30.8737C52.1645 30.3984 51.1651 29.7891 49.4995 29.7891Z" fill="#F95D5E"/>
<path d="M47.3507 36.0617C48.1957 36.1104 48.5573 34.2539 49.2073 33.2383C49.8573 32.2267 50.5357 31.5483 50.2919 31.0201C50.0929 30.5814 48.3257 30.4392 47.371 31.7676C46.7007 32.7061 46.5829 36.017 47.3507 36.0617Z" fill="#FCC9D2"/>
<path d="M52.7905 30.6705C52.7905 30.6705 53.989 31.8893 54.3018 34.278C54.6146 36.6668 54.253 38.5234 54.253 38.5234C54.253 38.5234 60.2087 38.3446 62.2643 38.7387C64.2915 39.1327 64.9983 40.0265 64.9983 40.6765C64.9983 41.3265 63.6658 41.8505 62.313 41.753C60.9602 41.6555 60.0462 41.5824 59.8755 41.9237C59.7049 42.2649 59.9487 42.793 61.8296 42.9352C63.7105 43.0815 65.884 42.8134 66.5583 40.4734C67.2327 38.1334 67.2571 34.079 67.0174 31.158C66.7777 28.2371 66.2496 26.5674 64.9415 25.9337C63.5643 25.2715 60.1152 25.1618 56.8571 26.994C53.599 28.8262 52.7905 30.6705 52.7905 30.6705Z" fill="#F95D5E"/>
<path d="M59.5383 27.892C59.1158 27.3476 57.7549 27.3638 57.0277 28.2048C56.2558 29.0985 56.0852 32.4988 57.0765 32.6938C58.1977 32.9132 57.9946 31.077 58.8152 29.9435C59.6196 28.8345 59.9487 28.4241 59.5383 27.892Z" fill="#FCC9D2"/>
<path d="M45.9042 30.7883C45.9042 30.7883 41.342 25.4705 36.1299 25.5517C32.9936 25.6005 32.1974 27.4083 32.0267 28.1558C31.8561 28.9033 30.5561 36.3376 32.2908 40.3636C34.0255 44.3895 37.6249 43.3455 38.1895 43.2155C38.9127 43.0448 40.4524 42.5167 40.3061 41.9601C40.1599 41.4036 35.0452 43.4064 34.9964 41.1151C34.9477 38.8239 38.6161 38.5801 40.3061 38.5314C41.9961 38.4826 44.8927 38.8686 44.8927 38.8686C44.8927 38.8686 44.3849 36.0939 44.722 34.1155C45.0592 32.137 45.9042 30.7883 45.9042 30.7883Z" fill="#F95D5E"/>
<path d="M34.7324 27.4814C34.0824 28.1558 33.8142 32.0436 34.2246 33.9733C34.6349 35.903 34.9964 36.7236 35.8414 36.557C36.5483 36.4148 36.9749 32.6286 37.3121 31.2961C37.6736 29.8742 38.5674 28.363 38.2058 27.7008C37.6533 26.6851 35.4108 26.7786 34.7324 27.4814Z" fill="#FCC9D2"/>
</svg>
