<svg width="100" height="100" viewBox="0 0 100 100" fill="none" xmlns="http://www.w3.org/2000/svg">
<circle cx="50" cy="50" r="49.5" fill="white" stroke="#913E68"/>
<path d="M44.3594 32.2028C44.404 32.4753 44.2686 32.7015 43.8144 32.9295C42.8935 32.562 41.8975 32.4221 40.9109 32.5216C39.7763 32.6125 38.8233 32.9759 38.9516 33.7471C39.1297 34.5184 40.2216 34.9726 42.1721 34.791C46.9351 34.383 46.8906 31.1608 53.8767 30.5266C59.3202 30.0279 62.3608 31.7058 62.7687 33.7471C63.0857 35.3342 61.7712 36.8768 57.8239 37.1956C54.3309 37.5127 52.2896 36.5597 52.1079 35.6085C52.017 35.1098 52.286 34.383 53.9675 34.2014C54.1456 34.9726 55.1022 35.7885 57.3697 35.5622C59.0138 35.4233 60.3658 34.8248 60.1876 33.9342C60.0095 32.9812 58.2817 32.4379 55.5564 32.6641C50.022 33.1629 48.6612 36.2035 43.9426 36.6114C40.5939 36.9195 37.8721 35.6958 37.5088 33.8807C37.3734 33.2003 37.3734 31.6132 40.9109 31.2944C42.726 31.159 44.1778 31.4743 44.3594 32.2028ZM50.9821 40.6869C45.9999 40.7247 41.0269 40.2526 36.1408 39.2779C32.1098 38.2804 29.9776 37.1921 29.9776 35.7867C29.9776 35.1971 30.2502 34.6983 31.066 34.1087C28.5259 35.1062 27.165 35.9238 27.165 37.1939C27.3004 38.601 29.5697 40.0065 34.1974 41.0948C39.6604 42.3161 45.2499 42.8794 50.8468 42.7727C56.4421 42.8859 62.0306 42.3225 67.4908 41.0948C72.122 40.0065 74.3414 38.5547 74.3414 37.1939C74.3414 36.1964 73.3439 35.2345 71.5289 34.522C71.7402 34.6521 71.9168 34.8316 72.0434 35.0451C72.17 35.2586 72.2428 35.4996 72.2556 35.7475C72.2556 37.1547 70.168 38.2875 65.95 39.2405C61.0276 40.258 56.01 40.7423 50.9839 40.6851L50.9821 40.6869Z" fill="#6F4E37"/>
<path d="M26.666 51.1662C25.1953 52.9798 24.4518 55.2757 24.5802 57.6072C24.6546 58.6723 24.9562 59.7092 25.4647 60.6481C25.9732 61.587 26.6767 62.4062 27.5281 63.0507C28.3578 63.7177 29.3264 64.1903 30.3627 64.4339C31.399 64.6774 32.4768 64.6856 33.5167 64.4578C34.4268 64.2347 35.3197 63.9466 36.1886 63.5957C34.3912 63.593 32.6537 62.9495 31.2883 61.7806C30.4541 61.1999 29.7493 60.4527 29.2183 59.586C28.6873 58.7193 28.3417 57.752 28.2032 56.745C28.0033 55.8255 27.9973 54.8745 28.1857 53.9525C28.374 53.0306 28.7524 52.1581 29.2969 51.3906C29.8904 50.6369 30.6307 50.0114 31.473 49.5521C32.3153 49.0929 33.2421 48.8094 34.1971 48.7187C36.242 48.5747 38.2706 49.1702 39.9132 50.3967C39.445 49.8384 38.9289 49.3222 38.3706 48.8541C37.4984 48.2029 36.4918 47.755 35.4242 47.5429C34.3566 47.3309 33.2551 47.3602 32.2003 47.6286C29.9851 48.0926 28.0164 49.3498 26.666 51.1662ZM67.6775 44.588C62.2072 45.7638 56.623 46.3265 51.0282 46.2659C45.3886 46.3122 39.7605 45.7497 34.2417 44.588C30.3407 43.5905 28.2531 42.5004 27.5281 41.3675C28.2648 46.1401 29.8322 50.7466 32.1594 54.978C33.8373 57.5181 35.517 59.7411 37.195 62.1458C37.8852 63.4816 38.4035 64.8995 38.7375 66.3656C39.8699 67.9072 41.5099 68.9997 43.3688 69.4507C45.7508 70.3086 48.2811 70.6788 50.8091 70.539H51.0816C53.6801 70.6533 56.2772 70.2843 58.741 69.4507C60.5303 68.9313 62.1048 67.8495 63.2315 66.3656H63.3669C63.6502 64.9037 64.1233 63.4851 64.7741 62.1458C66.452 59.7411 68.1317 57.5145 69.8097 54.978C72.0912 50.7263 73.6548 46.127 74.4373 41.3657C73.5307 42.6358 71.4431 43.7312 67.6775 44.588Z" fill="#D0559A"/>
</svg>
