<svg width="100" height="100" viewBox="0 0 100 100" fill="none" xmlns="http://www.w3.org/2000/svg">
<circle cx="50" cy="50" r="49.5" fill="white" stroke="#3FAEC7"/>
<path d="M71.0707 61.3979C69.6836 59.2413 62.8528 51.8661 61.3871 49.9608C59.9215 48.0555 56.1528 37.1889 52.5253 36.1054C48.8979 35.0166 45.3176 35.2993 41.5279 36.4194C37.7382 37.5396 34.1946 37.4349 29.9861 36.2415C25.7777 35.048 21.2866 32.2319 21.2866 32.2319C19.3342 33.7237 18.3292 37.8903 18.1198 43.7842C17.9104 49.6781 19.0201 52.8815 19.4075 53.8551C19.7948 54.8287 22.7051 56.2682 25.9818 58.8016C26.2645 59.0162 49.5261 74.9078 50.0181 75.1329C53.5722 76.7503 55.8335 73.4788 55.8335 73.4788C55.8335 73.4788 57.7178 74.5571 59.5394 73.4788C61.764 72.1597 61.5023 70.5214 61.5023 70.5214C61.5023 70.5214 63.6589 70.8721 64.9622 70.0189C67.4486 68.391 66.6477 66.5119 66.6477 66.5119C66.6477 66.5119 68.8671 67.2237 70.1757 66.0512C71.4843 64.8787 72.4526 63.5544 71.0707 61.3979Z" fill="#FFDA6A"/>
<path d="M46.5688 70.3802C46.5374 70.2964 46.506 70.2127 46.4589 70.1289C45.4434 68.166 43.5119 68.2446 43.4281 68.1765C43.3182 68.0928 43.3392 66.6271 43.2188 66.0566C42.5802 63.0678 39.1255 63.1463 39.0365 63.0835C38.9161 63.005 39.5495 60.9635 37.5499 59.2414C37.0736 58.8279 36.3513 58.8698 35.7231 58.9431C33.9592 59.1577 33.1531 59.9847 33.0274 59.9585C32.7291 59.901 33.0641 57.713 30.8971 57.6397C29.3215 57.5874 28.2903 58.3568 27.4214 59.5503C26.5316 60.7751 25.9767 62.0157 26.987 63.4656C28.2589 65.2924 29.6513 64.8003 29.6513 64.8003C29.6513 64.8003 29.2325 67.0354 30.5149 68.2289C31.7974 69.4223 34.3831 69.349 34.3831 69.349C34.3831 69.349 34.1685 71.9871 36.032 73.2434C37.8954 74.4996 40.1305 73.3585 40.1305 73.3585C40.1305 73.3585 40.9994 75.6093 43.5381 75.2796C45.7627 74.9969 47.4115 72.5943 46.5688 70.3802Z" fill="#FFDA6A"/>
<path d="M71.4216 62.0784C71.3274 61.9318 71.2488 61.8114 71.2384 61.6334C71.2279 61.4345 65.9203 54.3943 63.6852 51.5625C64.1353 52.8554 64.7844 54.0855 65.6114 55.1795C66.9462 56.9487 68.8201 58.608 68.8567 60.8221C68.8724 61.9109 68.3909 62.9996 67.5691 63.7167C66.7473 64.4338 65.6062 64.7688 64.5279 64.6013C64.1824 64.549 63.6852 64.549 63.6433 64.8945C63.6276 64.9939 63.6695 65.0934 63.7009 65.1928C64.0463 66.2606 63.6224 67.5064 62.7482 68.2078C61.8741 68.9145 60.6283 69.0767 59.5657 68.7103C59.2883 68.6161 58.9219 68.5062 58.7492 68.7417C58.6131 68.9249 58.702 69.1762 58.7649 69.3908C59.0946 70.5633 58.3147 71.8614 57.1945 72.343C56.0796 72.8245 54.7449 72.5942 53.698 71.9766C53.4677 71.8405 53.1013 71.7201 52.9861 71.9661C52.9495 72.0394 52.9599 72.1284 52.9652 72.2069C53.0071 73.0182 52.6249 73.8452 51.9759 74.3373C51.3268 74.8293 50.4317 74.9759 49.6571 74.7141L49.4634 74.8345C49.6937 74.9706 49.8874 75.0701 50.013 75.1277C53.5671 76.7451 55.8284 73.4736 55.8284 73.4736C55.8284 73.4736 57.7128 74.5519 59.5343 73.4736C61.7589 72.1545 61.4972 70.5162 61.4972 70.5162C61.4972 70.5162 63.6538 70.8669 64.9571 70.0137C67.4435 68.3858 66.6426 66.5066 66.6426 66.5066C66.6426 66.5066 68.862 67.2185 70.1706 66.046C70.4951 65.7581 70.8039 65.4545 71.0709 65.1143C71.5943 64.4443 71.8613 63.6487 71.6833 62.8007C71.631 62.5495 71.5577 62.293 71.4216 62.0784Z" fill="#FFB300"/>
<path d="M54.5353 72.411C56.1161 73.395 56.7547 73.8243 56.7547 73.8243C56.1841 73.8923 54.9383 74.1279 51.96 71.8247C51.1382 71.1914 47.8615 68.6579 49.3794 68.035C50.4996 67.5744 52.3107 71.0291 54.5353 72.411ZM61.4551 70.7255C60.4711 70.6418 56.6081 68.3962 53.614 65.3079C53.3 64.9834 53.0068 64.706 52.7608 64.4704C52.4625 64.1825 52.452 63.7062 52.7399 63.4026C52.8085 63.331 52.8906 63.2736 52.9815 63.2337C53.0724 63.1939 53.1702 63.1723 53.2695 63.1704C53.3687 63.1685 53.4673 63.1861 53.5596 63.2224C53.652 63.2586 53.7363 63.3128 53.8077 63.3817C54.059 63.6225 54.3521 63.9104 54.6766 64.2349C55.3571 64.9101 57.0949 66.8625 60.5234 69.218C61.2929 69.7467 62.2612 70.2806 63.1511 70.5685C63.2505 70.5999 62.434 70.8093 61.4551 70.7255ZM65.4594 66.1297C63.3761 65.2137 61.3452 63.3293 57.8486 58.8435C57.5922 58.5137 57.634 58.0426 57.9586 57.7809C58.2831 57.5192 58.7594 57.5663 59.0211 57.8908C60.1413 59.2622 61.2929 60.6127 62.5282 61.8846C63.015 62.3871 65.2815 64.3343 65.5693 64.5385C68.286 66.4229 69.4009 66.5485 69.4009 66.5485C69.0816 66.6793 67.8463 67.1766 65.4594 66.1297ZM20.5066 55.059C20.2711 54.8863 20.4857 54.5199 20.7474 54.6403C22.2811 55.3312 24.4376 56.3414 26.0708 57.1737C27.573 57.9379 28.4943 58.3933 28.4943 58.3933L26.9815 59.8642L20.5066 55.059Z" fill="#D69513"/>
<path d="M80.545 41.4705C79.7703 36.3147 78.7496 32.8076 77.9906 31.9597C77.1217 30.9965 75.6299 32.9123 72.4736 34.0325C69.3172 35.1526 63.6327 35.5766 63.6327 35.5766C63.6327 35.5766 53.6926 35.5557 50.2118 36.5293C47.4637 37.2987 44.0614 39.4762 41.2034 41.2036C38.9212 42.5854 36.8641 43.491 36.6914 44.4908C36.5291 45.4434 37.5865 47.5738 40.2141 47.7884C44.4801 48.1391 48.9922 45.4434 48.9922 45.4434C50.4526 44.6164 50.9969 44.5169 53.9125 44.5169C56.828 44.5169 59.8326 46.7415 60.0472 47.0975C62.2247 50.683 64.1823 52.5046 66.1819 54.9333C67.6422 56.7078 71.076 61.403 71.076 61.403C71.076 61.403 74.9337 56.8439 75.9178 55.7918C76.9018 54.7397 80.5502 52.0754 80.5502 52.0754C80.5502 52.0754 81.3563 46.8672 80.545 41.4705Z" fill="#FFDA6A"/>
<path d="M71.2281 57.2628C70.9088 55.347 69.9823 53.4679 70.422 51.5887C70.49 51.3113 70.5529 51.0339 70.5843 50.7512C70.7308 49.2542 69.3175 49.9085 69.1082 49.9294C68.569 49.987 62.3715 49.7567 63.0625 50.4581L71.0711 61.2933C71.0711 61.2933 71.3851 61.1938 71.4584 60.4191C71.5369 59.634 71.2543 57.425 71.2281 57.2628Z" fill="#FFB300"/>
<path d="M66.1821 50.5785L59.749 48.3486C60.597 49.1861 61.3036 50.0917 62.1097 50.9239C64.5594 53.7767 68.2601 58.6237 71.0134 61.3875C71.1286 61.5026 71.3118 61.3561 71.228 61.22C69.6996 58.8069 65.7738 52.5728 65.5696 51.9604C65.1823 50.7721 66.1821 50.5785 66.1821 50.5785Z" fill="#D69513"/>
<path d="M54.4359 45.6008C56.8176 46.0248 57.5294 46.5953 59.4819 48.0871C64.2765 51.7407 68.6472 50.3536 69.2073 50.1809C72.2851 49.2753 66.6896 49.2753 65.8102 48.9351C58.7386 47.281 58.2884 42.1095 49.7197 44.4493C46.8251 45.5066 42.1037 49.312 38.403 46.6791C37.8744 46.3022 37.0264 45.5432 37.1206 44.7005C37.2986 43.0674 41.6222 42.0886 43.4908 40.4083C46.04 38.435 49.2329 36.917 52.3579 36.1109C50.8242 35.9382 49.0812 36.2679 47.8092 36.6814C44.4016 37.7964 42.0409 40.3664 38.4135 41.8007C35.4142 42.9836 35.6707 43.9886 35.6759 44.6848C35.6812 45.381 36.2308 47.2025 37.8901 48.0976C44.1504 51.4633 48.6153 44.5592 54.4359 45.6008ZM46.9194 72.9295C46.7309 73.4006 45.9353 74.2119 45.5218 74.348C45.5218 74.348 46.7728 71.6157 46.0976 70.3856C45.684 69.3492 44.4487 68.9671 43.428 69.1974C41.7844 69.7261 40.7585 72.2385 40.4863 73.7879C40.413 74.191 39.9733 73.4634 40.0361 72.6521C40.2508 69.9093 42.355 68.8467 42.5853 66.4336C42.7319 64.9418 41.3029 63.8636 39.8372 64.1724C37.9267 64.387 37.0421 66.219 36.1261 67.7056C35.723 68.4175 34.9065 69.7784 34.8227 70.5897C34.7494 71.2964 34.5767 71.4429 34.4092 70.5635C33.6816 66.8314 38.3716 63.6123 38.0837 61.5866C37.7801 59.4405 36.2046 59.0532 34.8437 59.676C32.8127 60.613 30.8237 63.9159 30.0542 65.4757C29.8344 65.7898 29.6616 66.643 29.6616 66.643C28.9288 64.8424 30.5044 62.4503 31.2895 61.3144C31.6297 60.7386 32.3678 60.0477 32.059 59.3463C31.5826 58.2575 30.7713 58.2837 30.1118 58.4146C28.4106 58.7548 26.4948 61.1888 26.4948 61.1888C26.432 60.5711 27.2015 59.3463 27.7982 58.6449C29.2847 56.8547 32.4882 56.5302 33.6083 59.2573C36.6547 57.174 39.8896 58.4198 39.7692 62.3194C39.8896 62.6753 41.2244 62.2514 42.8418 63.4919C44.4644 64.7325 43.9619 67.5485 43.9619 67.5485C43.9619 67.5485 45.5846 67.7213 46.4797 68.8467C47.3067 69.8883 47.4376 71.8355 46.9194 72.9295ZM70.2961 59.7284C70.2961 59.7284 74.1276 55.8916 75.5043 55.007C76.8809 54.1224 78.8909 52.9132 78.959 53.2535C79.027 53.5937 75.7555 55.8968 74.5254 57.3415C73.3006 58.7914 71.2383 61.215 71.2383 61.215L70.2961 59.7284Z" fill="#D69513"/>
</svg>
