<svg width="100" height="100" viewBox="0 0 100 100" fill="none" xmlns="http://www.w3.org/2000/svg">
<circle cx="50" cy="50" r="49.5" fill="white" stroke="#40C3B6"/>
<g clip-path="url(#clip0_406_2)">
<path d="M30.2222 55.5972C30.2222 55.5972 32.5174 63.8695 33.1111 67.8489C33.7813 72.3426 38.2692 75.8959 48.9999 75.8959C59.7307 75.8959 64.2186 72.3412 64.8888 67.8489C65.4825 63.8695 67.7777 55.5972 67.7777 55.5972H30.2222Z" fill="#BBDDF5"/>
<path d="M30.3579 55.7329C30.719 57.4937 31.3604 58.6131 32.2992 58.0354C33.2381 57.4576 34.6826 57.7566 34.2406 58.9381C33.8347 60.0215 35.6402 60.5184 36.4072 59.8857C37.1425 59.2805 38.6534 58.6131 38.7992 59.9752C38.935 61.2391 40.4864 61.5786 41.1912 60.6527C41.9135 59.7051 43.8996 60.0836 44.2607 61.2391C44.6218 62.3947 46.5631 62.2329 47.1048 61.4197C47.6176 60.6498 48.1347 60.1414 48.9999 60.1414V60.111C49.8666 60.111 50.3822 60.6498 50.895 61.4197C51.4367 62.2315 53.378 62.3947 53.7391 61.2391C54.1002 60.0836 56.0864 59.7051 56.8086 60.6527C57.5149 61.5786 59.0648 61.2391 59.2006 59.9752C59.3465 58.6131 60.8574 59.279 61.5926 59.8857C62.3596 60.5184 64.1651 60.0215 63.7592 58.9381C63.3158 57.7566 64.7617 57.4576 65.7006 58.0354C66.6395 58.6131 67.2808 57.4937 67.6419 55.7329H30.3579Z" fill="#662113"/>
<path d="M70.6665 51.3999C70.6665 44.2946 60.9439 38.5356 48.9521 38.5356C36.9589 38.5356 27.2378 44.2946 27.2378 51.3999C27.2378 57.1329 40.2378 60.1113 48.9521 60.1113C57.6665 60.1113 70.6665 57.2224 70.6665 51.3999Z" fill="#C1694F"/>
<path d="M49 75.278C48.8085 75.278 48.6248 75.2019 48.4893 75.0665C48.3539 74.931 48.2778 74.7473 48.2778 74.5558V62.0671C48.2778 61.8756 48.3539 61.6919 48.4893 61.5564C48.6248 61.421 48.8085 61.3449 49 61.3449C49.1916 61.3449 49.3753 61.421 49.5107 61.5564C49.6462 61.6919 49.7222 61.8756 49.7222 62.0671V74.5558C49.7222 74.7473 49.6462 74.931 49.5107 75.0665C49.3753 75.2019 49.1916 75.278 49 75.278ZM39.3237 73.4464C39.1481 73.4465 38.9786 73.3826 38.8467 73.2667C38.7148 73.1507 38.6297 72.9908 38.6072 72.8167L37.118 61.2871C37.1057 61.1929 37.112 61.0972 37.1367 61.0054C37.1614 60.9137 37.2039 60.8277 37.2619 60.7525C37.3198 60.6772 37.3921 60.6141 37.4745 60.5668C37.5569 60.5195 37.6478 60.4889 37.742 60.4768C37.8362 60.464 37.932 60.4701 38.0238 60.4946C38.1156 60.5192 38.2016 60.5617 38.2769 60.6197C38.3521 60.6778 38.4151 60.7502 38.4621 60.8328C38.5092 60.9153 38.5393 61.0064 38.5509 61.1008L40.0401 72.6303C40.053 72.7322 40.0441 72.8356 40.0141 72.9337C39.984 73.0319 39.9334 73.1226 39.8657 73.1997C39.798 73.2769 39.7146 73.3387 39.6212 73.3813C39.5277 73.4238 39.4263 73.446 39.3237 73.4464ZM43.9156 74.8562C43.7344 74.8561 43.5598 74.7879 43.4266 74.665C43.2933 74.5422 43.2111 74.3738 43.1962 74.1932L42.1736 61.8851C42.1658 61.7905 42.1767 61.6954 42.2057 61.605C42.2347 61.5147 42.2812 61.431 42.3426 61.3586C42.404 61.2862 42.479 61.2267 42.5634 61.1833C42.6477 61.1399 42.7399 61.1136 42.8344 61.1058C42.929 61.098 43.0241 61.109 43.1145 61.138C43.2048 61.167 43.2885 61.2135 43.3609 61.2748C43.4333 61.3362 43.4928 61.4112 43.5362 61.4956C43.5796 61.58 43.6059 61.6721 43.6137 61.7667L44.6364 74.0748C44.6519 74.2655 44.5912 74.4547 44.4674 74.6006C44.3436 74.7466 44.167 74.8375 43.9762 74.8533L43.9156 74.8562ZM35.3081 70.4637C35.1832 70.4634 35.0621 70.42 34.9655 70.3408C34.8689 70.2616 34.8027 70.1514 34.778 70.0289L32.6114 59.2851C32.5972 59.2155 32.597 59.1438 32.6106 59.074C32.6243 59.0043 32.6515 58.938 32.6908 58.8788C32.7302 58.8196 32.7808 58.7688 32.8397 58.7292C32.8987 58.6896 32.9649 58.6621 33.0346 58.6481C33.3206 58.5788 33.6124 58.7781 33.673 59.0713L35.8397 69.8151C35.8558 69.8938 35.8542 69.9751 35.8349 70.0531C35.8156 70.1311 35.7792 70.2038 35.7283 70.2659C35.6773 70.328 35.6132 70.378 35.5405 70.4122C35.4679 70.4464 35.3885 70.464 35.3081 70.4637ZM58.5637 73.2832C58.46 73.2834 58.3576 73.2613 58.2632 73.2184C58.1689 73.1756 58.0849 73.1129 58.0169 73.0346C57.9489 72.9564 57.8986 72.8644 57.8693 72.765C57.8401 72.6656 57.8325 72.561 57.8472 72.4584L59.4795 61.0921C59.5091 60.9036 59.6111 60.7342 59.7638 60.6198C59.9165 60.5054 60.1078 60.4551 60.297 60.4797C60.3909 60.4931 60.4813 60.5249 60.5629 60.5733C60.6445 60.6217 60.7157 60.6856 60.7726 60.7616C60.8295 60.8375 60.8708 60.9239 60.8943 61.0158C60.9178 61.1077 60.9229 61.2033 60.9095 61.2972L59.2772 72.6635C59.2526 72.8353 59.1669 72.9925 59.0359 73.1063C58.9049 73.2201 58.7372 73.2829 58.5637 73.2832ZM54.1697 74.8562L54.109 74.8533C53.9183 74.8375 53.7416 74.7466 53.6179 74.6006C53.4941 74.4547 53.4333 74.2655 53.4489 74.0748L54.4716 61.7667C54.5034 61.368 54.8934 61.082 55.2501 61.1065C55.4409 61.1224 55.6175 61.2133 55.7413 61.3592C55.8651 61.5052 55.9258 61.6943 55.9102 61.8851L54.8876 74.1932C54.8727 74.3736 54.7907 74.5418 54.6578 74.6646C54.5248 74.7873 54.3507 74.8557 54.1697 74.8562ZM62.8118 70.5229C62.7321 70.523 62.6533 70.5056 62.5811 70.4717C62.5089 70.4378 62.4451 70.3884 62.3943 70.3269C62.3435 70.2655 62.3069 70.1936 62.2872 70.1163C62.2675 70.039 62.2651 69.9584 62.2802 69.8801L64.3574 59.0771C64.3706 59.0073 64.3975 58.9408 64.4365 58.8814C64.4755 58.822 64.5258 58.7708 64.5845 58.7308C64.6433 58.6909 64.7093 58.6629 64.7789 58.6484C64.8485 58.634 64.9202 58.6334 64.99 58.6467C65.0598 58.6599 65.1263 58.6868 65.1857 58.7258C65.2452 58.7648 65.2963 58.8151 65.3363 58.8738C65.3762 58.9326 65.4043 58.9986 65.4187 59.0682C65.4331 59.1378 65.4337 59.2095 65.4205 59.2793L63.3434 70.0823C63.3201 70.2062 63.2542 70.3181 63.1571 70.3986C63.0601 70.479 62.9379 70.523 62.8118 70.5229Z" fill="#88C9F9"/>
<path d="M47.4284 23.9839C47.4284 23.9839 48.9985 25.6363 50.5701 25.6696C53.8461 25.7403 56.8606 27.569 56.8606 30.7338C56.8606 30.7338 64.4598 30.7338 64.7227 37.4851C64.7227 37.4851 68.5577 37.5501 69.4359 44.2336C70.0917 49.2256 65.0477 56.117 48.9999 56.0462C34.8516 55.9841 27.6135 50.956 28.5639 44.2364C29.4797 37.7653 34.8531 37.4866 34.8531 37.4866C34.8531 37.4866 33.9344 29.0467 44.2838 29.0481C44.2838 29.0481 45.3325 25.6724 47.4284 23.9839Z" fill="#FFE8B6"/>
<path d="M48.8698 39.1725C53.1107 37.572 56.9919 34.673 56.8619 30.7355C56.8619 29.4961 56.3896 28.4706 55.6312 27.666C56.56 31.722 50.3576 36.3327 43.4993 37.0636C34.9179 37.9779 35.9001 32.9151 35.9001 32.9151L35.89 32.9252C34.6146 35.1439 34.8543 37.4882 34.8543 37.4882C36.1616 40.9303 42.9086 41.4229 48.8698 39.1725Z" fill="#FFCC4D"/>
<path d="M64.7227 37.4866C64.714 37.28 64.6794 37.0995 64.6577 36.9059C64.4901 35.928 64.0034 34.7306 63.5397 33.8177C63.2653 33.4354 62.9619 33.0974 62.6297 32.8037C64.2316 39.1968 54.5943 46.8856 45.3975 48.6666C33.41 50.9864 28.5639 44.2394 28.5639 44.2394C28.0699 47.7277 29.8033 50.7524 33.5458 52.8714C48.3181 58.8933 64.8513 44.0675 64.7227 37.4866Z" fill="#FFCC4D"/>
<path d="M35.5507 44.5128L33.8448 46.8441C33.6177 47.1524 33.2779 47.3582 32.8995 47.4167C32.5211 47.4752 32.135 47.3815 31.8254 47.1561C31.5172 46.929 31.3113 46.5892 31.2528 46.2108C31.1944 45.8324 31.2881 45.4463 31.5134 45.1368L33.2193 42.8054C33.4464 42.4971 33.7862 42.2913 34.1646 42.2328C34.543 42.1744 34.9292 42.268 35.2387 42.4934C35.88 42.9629 36.0201 43.8714 35.5507 44.5128Z" fill="#DD2E44"/>
<path d="M44.5726 35.8257L41.7473 35.2205C41.3729 35.1402 41.0457 34.9144 40.8377 34.5929C40.6296 34.2714 40.5578 33.8804 40.6379 33.506C40.8041 32.7288 41.5768 32.2291 42.3525 32.3966L45.1778 33.0018C45.9549 33.168 46.4547 33.9407 46.2872 34.7164C46.2068 35.0908 45.9811 35.418 45.6595 35.626C45.338 35.834 44.9471 35.9059 44.5726 35.8257Z" fill="#55ACEE"/>
<path d="M46.7335 44.4722L48.63 46.6519C49.1515 47.2513 49.0879 48.1685 48.4885 48.69C48.199 48.9404 47.8221 49.0661 47.4402 49.0396C47.0583 49.0131 46.7025 48.8365 46.4503 48.5484L44.5538 46.3688C44.3033 46.0793 44.1776 45.7024 44.2042 45.3205C44.2307 44.9386 44.4073 44.5828 44.6953 44.3306C44.9849 44.0802 45.3617 43.9545 45.7436 43.981C46.1255 44.0075 46.4814 44.1841 46.7335 44.4722Z" fill="#77B255"/>
<path d="M58.2038 40.6095L55.5013 41.6308C55.1428 41.765 54.7458 41.752 54.397 41.5944C54.0481 41.4369 53.7757 41.1478 53.6394 40.7901C53.5051 40.4316 53.5182 40.0346 53.6757 39.6858C53.8332 39.3369 54.1224 39.0645 54.4801 38.9282L57.1826 37.907C57.5411 37.7727 57.9381 37.7858 58.287 37.9433C58.6358 38.1008 58.9082 38.39 59.0445 38.7476C59.1788 39.1061 59.1657 39.5031 59.0082 39.852C58.8507 40.2008 58.5615 40.4732 58.2038 40.6095Z" fill="#F4900C"/>
<path d="M66.8618 44.2958L65.4173 46.7976C65.0201 47.4851 64.1318 47.7235 63.4442 47.3262C63.1134 47.1339 62.8721 46.8184 62.773 46.4487C62.6739 46.079 62.7252 45.6852 62.9156 45.3531L64.36 42.8514C64.7572 42.1638 65.6456 41.9255 66.3331 42.3227C67.0207 42.7199 67.259 43.6068 66.8618 44.2958Z" fill="#AA8DD8"/>
</g>
<defs>
<clipPath id="clip0_406_2">
<rect width="52" height="52" fill="white" transform="translate(23 24)"/>
</clipPath>
</defs>
</svg>
