<svg width="100" height="100" viewBox="0 0 100 100" fill="none" xmlns="http://www.w3.org/2000/svg">
<circle cx="50" cy="50" r="49.5" fill="white" stroke="#D47647"/>
<path d="M72.3002 53.4847L59.8844 45.3889L45.1737 55.9147L45.7137 62.053L51.5862 67.723C51.5862 67.723 52.4637 71.4355 50.9112 72.448C49.3587 73.4605 47.1312 74.2705 42.1404 74.0005C37.1454 73.7305 35.5296 72.043 35.0571 71.503C34.5846 70.963 33.8421 69.0055 33.8421 69.0055C33.8421 69.0055 29.8765 68.0984 27.7713 65.0905C25.8813 62.3905 26.2188 60.028 26.5563 58.8172C26.8938 57.6022 27.7713 56.8597 27.7713 56.8597L27.5013 56.1847C27.5013 56.1847 25.0038 54.9697 24.6663 52.0672C24.3288 49.1647 25.6113 44.9164 27.8388 41.7439C30.0663 38.5714 30.7413 38.9089 30.7413 38.9089C30.7413 38.9089 29.7963 38.3689 30.0663 36.0064C30.3363 33.6439 33.7113 30.8764 36.9471 28.8556C40.1829 26.8348 42.5623 25.738 44.9248 26.143C47.2873 26.548 48.1183 27.822 48.1183 27.822C48.1183 27.822 51.6579 25.4806 55.9737 26.3581C60.2894 27.2356 62.3144 30.2056 62.6519 30.8131C62.9894 31.4206 63.5294 31.2856 63.5294 31.2856C63.5294 31.2856 65.2169 30.8131 67.9844 32.2306C70.7519 33.6481 71.6969 36.4831 71.8994 37.2931C72.1019 38.1031 72.3719 39.5881 72.3719 39.5881C72.3719 39.5881 73.5827 40.415 74.4138 42.2881C75.4938 44.7181 75.6794 47.4856 75.0719 50.3206C74.4771 53.105 73.9244 53.9656 73.9244 53.9656L72.3002 53.4847Z" fill="#F6AF3D"/>
<path d="M34.2388 33.973C35.1205 35.15 36.538 34.2008 38.1918 32.8719C39.8455 31.543 40.858 30.5727 40.0312 29.6572C39.2043 28.7418 37.0907 30.1171 35.9854 30.9439C34.8843 31.7666 33.4119 32.8677 34.2388 33.973ZM30.6107 58.3405C29.7669 58.3405 29.3999 59.3404 29.3999 60.2347C29.3999 61.1291 29.3999 62.0235 30.3449 62.0741C31.0832 62.1163 31.5557 61.6016 31.6063 60.1799C31.6612 58.8636 31.349 58.3405 30.6107 58.3405Z" fill="#F9E0CA"/>
<path d="M49.2826 65.4997L48.4726 65.8245L44.1484 65.082L39.6976 65.6684L36.7403 66.9214C35.7109 69.2586 38.1493 73.7811 42.136 73.9962C47.131 74.2662 49.3543 73.4562 50.9068 72.4437C52.4593 71.4312 51.5818 67.7188 51.5818 67.7188L49.2826 65.4997Z" fill="url(#paint0_radial_406_3)"/>
<path d="M46.6039 59.3866L49.249 52.0924L43.1572 43.195L37.5462 39.9888C37.5462 39.9888 34.5636 41.7944 33.2178 45.3592C31.6147 49.6075 33.1376 54.4971 33.1376 54.4971L40.5247 55.4589L46.6039 59.3866Z" fill="url(#paint1_radial_406_3)"/>
<path d="M46.9246 47.6035L41.9549 41.8323L34.146 38.0185C34.146 38.0185 42.7987 36.563 46.8065 34.479C50.8143 32.3949 50.7552 28.8301 50.7552 28.8301L55.1807 33.8124L57.906 40.4654L58.6274 46.7977L49.4896 49.6834L47.4857 49.2826L46.9246 47.6035Z" fill="url(#paint2_radial_406_3)"/>
<path d="M51.7046 29.9188C51.7046 29.9188 54.1515 28.9485 57.4885 29.5771C61.4499 30.3238 64.5676 32.4374 64.5676 32.4374L66.2762 38.6221L65.7615 44.2331L63.998 47.1187L58.6276 45.3595L57.7458 38.947L55.1007 34.378L51.7046 29.9188Z" fill="url(#paint3_radial_406_3)"/>
<path d="M33.4668 60.7534C34.2853 65.8707 37.3861 66.6807 37.3861 66.6807L42.5962 65.1578L46.4437 65.6387L44.3597 56.8215L37.3861 54.5771C37.3861 54.5771 32.505 54.7417 33.4668 60.7534Z" fill="url(#paint4_radial_406_3)"/>
<path d="M33.0447 41.6469C31.0324 40.5416 29.0749 43.8407 28.4041 45.0472C27.7164 46.2875 27.3621 49.7258 28.4505 50.0549C29.5094 50.3755 30.0536 48.013 31.0239 46.7474C32.5385 44.7688 35.3903 42.9336 33.0447 41.6469Z" fill="#F9E0CA"/>
<path d="M63.9641 48.0467L67.8158 50.5568L70.2795 48.0846L72.0598 43.0517L72.372 39.5796C72.372 39.5796 72.102 38.0946 71.8995 37.2846C71.697 36.4746 70.7352 33.6692 67.9845 32.2221C65.7402 31.0409 64.0442 31.159 63.5 31.2307L66.2802 38.6178L65.2255 44.7054L63.9641 48.0467Z" fill="url(#paint5_radial_406_3)"/>
<path d="M74.4095 42.2838C73.7134 40.7018 72.6967 39.8243 72.3718 39.5923L72.0596 43.0601L70.4945 48.6415L67.9126 50.6243L72.3043 53.4888L73.9243 53.9613C73.9243 53.9613 74.4728 53.1007 75.0718 50.3163C75.6751 47.4771 75.481 44.7138 74.4095 42.2838Z" fill="url(#paint6_radial_406_3)"/>
<path d="M45.9921 46.8612C45.9921 46.8612 49.2912 48.7175 53.5901 45.0345C56.7668 42.3092 57.3279 39.5459 57.3279 39.5459C57.3279 39.5459 58.7243 42.3936 61.458 43.3976C64.1918 44.4017 65.9257 43.3976 65.9257 43.3976C65.9257 43.3976 65.9805 45.5745 67.4908 46.9161C68.9969 48.2576 70.2837 48.0889 70.2837 48.0889C70.2837 48.0889 69.7816 50.7678 71.6252 51.8309C73.4688 52.8898 74.4729 52.5565 74.4729 52.5565C74.4729 52.5565 73.6924 56.6487 71.0135 56.6867C66.993 56.7415 66.6597 51.4934 66.6597 51.4934C66.6597 51.4934 65.5418 51.3246 64.7613 50.9914C63.9808 50.6581 63.1962 50.1518 63.1962 50.1518C63.1962 50.1518 62.0233 50.6539 61.0741 50.7678C60.1249 50.8775 58.8424 50.5442 58.8424 50.5442C58.8424 50.5442 58.2265 52.7759 55.7163 54.7882C53.2062 56.8006 50.1897 57.3575 50.1897 57.3575C50.1897 57.3575 50.4682 58.4164 49.9662 59.7031C49.5274 60.8211 48.2913 61.9939 48.2913 61.9939C48.2913 61.9939 48.9621 62.4411 49.2954 63.3354C49.6287 64.2298 49.6287 65.2339 49.6287 65.2339C49.6287 65.2339 52.4974 65.8287 53.088 68.2503C53.7588 70.984 50.6876 72.6589 50.6876 72.6589C50.6876 72.6589 51.9532 69.9968 50.5779 67.9676C48.5697 65.0103 43.3765 64.9512 43.3765 64.9512C43.3765 64.9512 43.7688 62.7195 43.3216 60.5975C42.8744 58.4754 40.5288 55.4632 40.5288 55.4632C40.5288 55.4632 42.596 54.7925 44.1569 52.2823C45.7179 49.7722 45.9921 46.8612 45.9921 46.8612Z" fill="#CF7118"/>
<path d="M48.266 61.8251C47.861 62.8039 44.9121 56.0244 37.2382 55.9737C29.5643 55.9231 26.9233 57.927 26.9233 57.927C26.9233 57.927 27.1596 57.2225 27.1722 56.8386C27.1849 56.4547 27.1385 55.9737 27.1385 55.9737C27.1385 55.9737 29.3744 53.5606 34.5719 53.4383C39.5121 53.3201 43.1866 54.3495 45.7094 56.9272C48.2365 59.5006 48.5065 61.2472 48.266 61.8251Z" fill="url(#paint7_radial_406_3)"/>
<path d="M48.4728 65.8288C48.4179 66.7569 45.0556 65.3901 40.415 66.6093C35.7743 67.8285 34.2134 70.1741 34.2134 70.1741C34.2134 70.1741 33.9307 69.651 33.6565 69.3093C33.3823 68.9676 32.7959 68.5626 32.7959 68.5626C32.7959 68.5626 35.0445 65.5335 39.9256 64.656C44.8067 63.7785 48.5234 64.9977 48.4728 65.8288Z" fill="url(#paint8_radial_406_3)"/>
<path d="M30.0325 37.348C30.0325 37.348 30.1127 37.947 30.0157 38.5292C29.9186 39.1156 29.7119 39.4784 29.7119 39.4784C29.7119 39.4784 35.5296 39.643 39.3897 42.3303C43.2499 45.0176 46.3718 48.7808 47.8399 51.7128C49.308 54.6448 49.2068 56.7922 49.8902 56.5011C50.5736 56.21 50.3796 52.5945 48.5233 49.1731C46.6671 45.7517 43.4439 41.2123 38.6557 39.2084C33.8674 37.2045 30.0325 37.348 30.0325 37.348Z" fill="url(#paint9_radial_406_3)"/>
<path d="M48.2113 27.7883C48.089 28.1174 52.7887 31.5093 55.0077 35.8293C57.2268 40.1535 57.6866 44.4777 57.9524 46.6208C58.2182 48.7639 58.0663 50.2953 58.678 50.1393C59.2898 49.9874 59.4248 48.5319 59.5977 45.4733C59.7876 42.0308 58.4334 37.6813 56.729 34.6438C54.9866 31.543 51.9955 28.8978 50.0338 28.0119C49.1732 27.6238 48.359 27.3833 48.2113 27.7883Z" fill="url(#paint10_radial_406_3)"/>
<path d="M62.863 31.1167C62.7112 31.2939 65.4407 34.4116 65.2973 39.7694C65.1665 44.7897 62.9263 49.1814 63.306 49.3333C63.6899 49.4851 64.4535 48.6077 65.5251 46.3506C66.5966 44.0936 67.5543 40.5709 66.9426 37.1664C66.487 34.6267 65.234 32.3359 64.1751 31.5639C63.8165 31.3023 63.0529 30.8931 62.863 31.1167Z" fill="url(#paint11_radial_406_3)"/>
<path d="M67.2885 51.0968C67.5964 51.6115 70.3681 50.4514 71.7055 47.5024C73.0428 44.5578 73.0471 40.3685 72.2919 40.4234C71.8996 40.4529 71.8785 43.6339 70.0813 47.2662C68.9 49.654 67.1703 50.907 67.2885 51.0968Z" fill="url(#paint12_radial_406_3)"/>
<defs>
<radialGradient id="paint0_radial_406_3" cx="0" cy="0" r="1" gradientUnits="userSpaceOnUse" gradientTransform="translate(50.8292 64.1712) scale(16.4472 16.4472)">
<stop offset="0.34" stop-color="#E07F16"/>
<stop offset="0.821" stop-color="#E07F16" stop-opacity="0"/>
</radialGradient>
<radialGradient id="paint1_radial_406_3" cx="0" cy="0" r="1" gradientUnits="userSpaceOnUse" gradientTransform="translate(45.8335 50.3935) scale(13.1629)">
<stop offset="0.254" stop-color="#E07F16"/>
<stop offset="1" stop-color="#E07F16" stop-opacity="0"/>
</radialGradient>
<radialGradient id="paint2_radial_406_3" cx="0" cy="0" r="1" gradientUnits="userSpaceOnUse" gradientTransform="translate(44.1924 32.3477) rotate(54.463) scale(15.9954 36.4262)">
<stop offset="0.243" stop-color="#E07F16" stop-opacity="0"/>
<stop offset="0.924" stop-color="#E07F16"/>
</radialGradient>
<radialGradient id="paint3_radial_406_3" cx="0" cy="0" r="1" gradientUnits="userSpaceOnUse" gradientTransform="translate(58.9539 25.5122) rotate(73.6981) scale(22.5561 29.5382)">
<stop offset="0.31" stop-color="#E07F16" stop-opacity="0"/>
<stop offset="0.6" stop-color="#E07F16"/>
</radialGradient>
<radialGradient id="paint4_radial_406_3" cx="0" cy="0" r="1" gradientUnits="userSpaceOnUse" gradientTransform="translate(51.7231 59.6278) scale(18.3507 18.3507)">
<stop offset="0.454" stop-color="#E07F16"/>
<stop offset="0.913" stop-color="#E07F16" stop-opacity="0"/>
</radialGradient>
<radialGradient id="paint5_radial_406_3" cx="0" cy="0" r="1" gradientUnits="userSpaceOnUse" gradientTransform="translate(63.1633 47.3388) scale(16.2143 16.2143)">
<stop offset="0.585" stop-color="#E07F16"/>
<stop offset="1" stop-color="#E07F16" stop-opacity="0"/>
</radialGradient>
<radialGradient id="paint6_radial_406_3" cx="0" cy="0" r="1" gradientUnits="userSpaceOnUse" gradientTransform="translate(70.8758 51.9423) scale(14.9091 14.9091)">
<stop offset="0.098" stop-color="#E07F16"/>
<stop offset="0.759" stop-color="#E07F16" stop-opacity="0.125"/>
<stop offset="0.854" stop-color="#E07F16" stop-opacity="0"/>
</radialGradient>
<radialGradient id="paint7_radial_406_3" cx="0" cy="0" r="1" gradientUnits="userSpaceOnUse" gradientTransform="translate(26.3015 56.993) scale(12.8773 12.8773)">
<stop offset="0.353" stop-color="#F8C975"/>
<stop offset="0.508" stop-color="#F9C368"/>
<stop offset="0.794" stop-color="#FCB445"/>
<stop offset="1" stop-color="#FFA828"/>
</radialGradient>
<radialGradient id="paint8_radial_406_3" cx="0" cy="0" r="1" gradientUnits="userSpaceOnUse" gradientTransform="translate(32.0669 69.9547) scale(11.2636 11.2636)">
<stop offset="0.353" stop-color="#F8C975"/>
<stop offset="0.508" stop-color="#F9C368"/>
<stop offset="0.794" stop-color="#FCB445"/>
<stop offset="1" stop-color="#FFA828"/>
</radialGradient>
<radialGradient id="paint9_radial_406_3" cx="0" cy="0" r="1" gradientUnits="userSpaceOnUse" gradientTransform="translate(28.2375 38.1689) scale(18.808 18.808)">
<stop offset="0.221" stop-color="#F8C975"/>
<stop offset="0.535" stop-color="#FBBA53"/>
<stop offset="0.881" stop-color="#FFA828"/>
</radialGradient>
<radialGradient id="paint10_radial_406_3" cx="0" cy="0" r="1" gradientUnits="userSpaceOnUse" gradientTransform="translate(48.9306 27.134) scale(15.3364 15.3364)">
<stop offset="0.353" stop-color="#F8C975"/>
<stop offset="0.508" stop-color="#F9C368"/>
<stop offset="0.794" stop-color="#FCB445"/>
<stop offset="1" stop-color="#FFA828"/>
</radialGradient>
<radialGradient id="paint11_radial_406_3" cx="0" cy="0" r="1" gradientUnits="userSpaceOnUse" gradientTransform="translate(62.6838 30.2455) scale(11.5024 11.5024)">
<stop offset="0.353" stop-color="#F8C975"/>
<stop offset="0.508" stop-color="#F9C368"/>
<stop offset="0.794" stop-color="#FCB445"/>
<stop offset="1" stop-color="#FFA828"/>
</radialGradient>
<radialGradient id="paint12_radial_406_3" cx="0" cy="0" r="1" gradientUnits="userSpaceOnUse" gradientTransform="translate(72.3569 37.4876) scale(8.2485 8.2485)">
<stop offset="0.353" stop-color="#F8C975"/>
<stop offset="0.508" stop-color="#F9C368"/>
<stop offset="0.794" stop-color="#FCB445"/>
<stop offset="1" stop-color="#FFA828"/>
</radialGradient>
</defs>
</svg>
