<svg width="50" height="32" viewBox="0 0 50 32" fill="none" xmlns="http://www.w3.org/2000/svg">
<path d="M49.4969 14.7129L42.8753 6.84964C42.7097 6.6841 42.4614 6.51855 42.2131 6.51855H33.1083V19.7619H0V25.5558C0 26.0525 0.331083 26.3835 0.827708 26.3835H5.62842C5.54564 26.6319 5.54564 26.9629 5.54564 27.2113C5.54564 29.5288 7.3666 31.3498 9.68418 31.3498C12.0018 31.3498 13.8227 29.5288 13.8227 27.2113C13.8227 26.9629 13.8227 26.6319 13.74 26.3835H36.5019C36.4192 26.6319 36.4192 26.9629 36.4192 27.2113C36.4192 29.5288 38.2401 31.3498 40.5577 31.3498C42.8753 31.3498 44.6962 29.5288 44.6962 27.2113C44.6962 26.9629 44.6962 26.6319 44.6135 26.3835H48.8348C49.3314 26.3835 49.6625 26.0525 49.6625 25.5558V15.2923V15.2095C49.6625 15.0439 49.5797 14.8784 49.4969 14.7129ZM47.0966 14.3818H41.3854V11.4848H44.6135L47.0966 14.3818ZM9.68418 29.6944C8.27708 29.6944 7.20106 28.6184 7.20106 27.2113C7.20106 26.7974 7.28383 26.3835 7.53214 25.9697C7.946 25.2248 8.77371 24.7281 9.68418 24.7281C9.9325 24.7281 10.098 24.7281 10.3464 24.8109C10.7602 24.8937 11.1741 25.142 11.4224 25.4731C11.5879 25.6386 11.6707 25.8042 11.8362 25.9697C12.0845 26.3835 12.1673 26.7974 12.1673 27.2113C12.1673 28.6184 11.0085 29.6944 9.68418 29.6944ZM40.5577 29.6944C39.1506 29.6944 38.0746 28.6184 38.0746 27.2113C38.0746 26.7974 38.1573 26.3835 38.4057 25.9697C38.8195 25.2248 39.6472 24.7281 40.5577 24.7281C40.806 24.7281 40.9716 24.7281 41.2199 24.8109C41.6337 24.8937 42.0476 25.142 42.2959 25.4731C42.4614 25.6386 42.5442 25.8042 42.7097 25.9697C42.9581 26.3835 43.0408 26.7974 43.0408 27.2113C43.0408 28.6184 41.9648 29.6944 40.5577 29.6944ZM48.0071 24.7281H43.8685C43.8685 24.6454 43.7858 24.6454 43.7858 24.5626C43.703 24.4798 43.6202 24.3971 43.5374 24.3143C43.4547 24.2315 43.4547 24.2315 43.3719 24.1487C43.2891 24.066 43.2064 23.9832 43.1236 23.9832C43.0408 23.9004 43.0408 23.9004 42.9581 23.9004C42.8753 23.8177 42.7925 23.8177 42.7097 23.7349C42.627 23.7349 42.627 23.6521 42.5442 23.6521C42.4614 23.5693 42.3787 23.5693 42.2959 23.4866C42.2131 23.4866 42.1303 23.4038 42.1303 23.4038C42.0476 23.4038 41.9648 23.321 41.7993 23.321C41.7165 23.321 41.6337 23.321 41.6337 23.2383C41.5509 23.2383 41.3854 23.1555 41.3026 23.1555C41.2199 23.1555 41.2199 23.1555 41.1371 23.1555C40.9716 23.1555 40.806 23.1555 40.6405 23.1555C40.4749 23.1555 40.3094 23.1555 40.1438 23.1555C40.0611 23.1555 40.0611 23.1555 39.9783 23.1555C39.8955 23.1555 39.73 23.1555 39.6472 23.2383C39.5644 23.2383 39.4817 23.2383 39.4817 23.321C39.3989 23.321 39.3161 23.4038 39.1506 23.4038C39.0678 23.4038 38.9851 23.4866 38.9851 23.4866C38.9023 23.5693 38.8195 23.5693 38.7367 23.6521C38.654 23.6521 38.654 23.7349 38.5712 23.7349C38.4884 23.8177 38.4057 23.8177 38.3229 23.9004C38.2401 23.9004 38.2401 23.9832 38.1573 23.9832C38.0746 24.066 37.9918 24.1487 37.909 24.1487C37.8263 24.2315 37.8263 24.2315 37.7435 24.3143C37.6607 24.3971 37.5779 24.4798 37.4952 24.5626C37.4952 24.6454 37.4124 24.6454 37.4124 24.7281H12.995C12.995 24.6454 12.9122 24.6454 12.9122 24.5626C12.8295 24.4798 12.7467 24.3971 12.6639 24.3143C12.5812 24.2315 12.5812 24.2315 12.4984 24.1487C12.4156 24.066 12.3329 23.9832 12.2501 23.9832C12.1673 23.9004 12.1673 23.9004 12.0845 23.9004C12.0018 23.8177 11.919 23.8177 11.8362 23.7349C11.7535 23.7349 11.7535 23.6521 11.6707 23.6521C11.5879 23.5693 11.5051 23.5693 11.4224 23.4866C11.3396 23.4866 11.2568 23.4038 11.2568 23.4038C11.1741 23.4038 11.0913 23.321 10.9257 23.321C10.843 23.321 10.7602 23.321 10.7602 23.2383C10.6774 23.2383 10.5119 23.1555 10.4291 23.1555C10.3464 23.1555 10.3464 23.1555 10.2636 23.1555C10.098 23.1555 9.9325 23.1555 9.76696 23.1555C9.60141 23.1555 9.43587 23.1555 9.27033 23.1555C9.18756 23.1555 9.18756 23.1555 9.10479 23.1555C9.02202 23.1555 8.85648 23.1555 8.77371 23.2383C8.69094 23.2383 8.60816 23.2383 8.60816 23.321C8.52539 23.321 8.44262 23.4038 8.35985 23.4038C8.27708 23.4038 8.19431 23.4866 8.11154 23.4866C8.02877 23.4866 7.946 23.5693 7.86323 23.5693C7.78046 23.5693 7.69769 23.6521 7.61491 23.6521C7.53214 23.7349 7.44937 23.7349 7.3666 23.8177C7.28383 23.9004 7.20106 23.9004 7.20106 23.9832C7.11829 24.066 7.11829 24.066 7.03552 24.1487C6.95275 24.2315 6.86998 24.2315 6.86998 24.3143C6.62167 24.3971 6.62167 24.4798 6.53889 24.5626C6.45612 24.6454 6.45612 24.7281 6.37335 24.7281H1.65542V21.4173H33.936C34.4327 21.4173 34.7637 21.0862 34.7637 20.5896V8.17397H41.7993L43.2064 9.82939H40.5577C40.0611 9.82939 39.73 10.1605 39.73 10.6571V15.2095C39.73 15.7061 40.0611 16.0372 40.5577 16.0372H48.0071V24.7281Z" fill="#F95D5E"/>
<path d="M14.0653 1.65831L14.4912 1.50974C16.44 0.830085 18.56 0.830085 20.5088 1.50974L20.9347 1.65831C22.1395 2.07849 22.777 3.40004 22.3587 4.61007C22.3162 4.73291 22.2635 4.85194 22.2012 4.96591C21.3336 6.55229 20.812 8.30593 20.671 10.1103L20.5088 12.1864C18.6108 13.1207 16.3892 13.1207 14.4912 12.1864L14.329 10.1103C14.188 8.30593 13.6664 6.55229 12.7988 4.96591C12.1848 3.84323 12.5932 2.43318 13.711 1.81648C13.8244 1.75387 13.943 1.70096 14.0653 1.65831ZM8.96371 11.7353L11.3032 13.1173C11.8203 13.4227 12.4856 13.2556 12.7988 12.7418C13.1629 12.1443 13.7271 11.6966 14.3901 11.479L14.4912 11.4458L14.4032 10.4921C14.2132 8.43449 13.604 6.43813 12.6134 4.627L12.1406 3.7625L11.1636 4.1601C9.53587 4.82248 8.24944 6.1257 7.60396 7.76615C7.02209 9.24498 7.59905 10.9291 8.96371 11.7353ZM7.29839 10.7515L8.00357 11.1681L9.41393 12.0012L10.0942 12.4031C10.4729 12.6268 10.6057 13.1126 10.3937 13.4992L8.47369 17C7.16964 15.366 6.69642 13.2157 7.19325 11.1819L7.29839 10.7515ZM26.0363 11.7353L23.6968 13.1173C23.1797 13.4227 22.5144 13.2556 22.2012 12.7418C21.8371 12.1443 21.2729 11.6966 20.6099 11.479L20.5088 11.4458L20.5968 10.4921C20.7868 8.43449 21.396 6.43813 22.3866 4.627L22.8594 3.7625L23.8364 4.1601C25.4641 4.82248 26.7506 6.1257 27.396 7.76615C27.9779 9.24498 27.4009 10.9291 26.0363 11.7353ZM27.7016 10.7515L26.9964 11.1681L25.5861 12.0012L24.9058 12.4031C24.5271 12.6268 24.3943 13.1126 24.6063 13.4992L26.5263 17C27.8304 15.366 28.3036 13.2157 27.8067 11.1819L27.7016 10.7515Z" stroke="#F95D5E" stroke-width="1.55963" stroke-linejoin="round"/>
</svg>
