<svg width="42" height="42" viewBox="0 0 42 42" fill="none" xmlns="http://www.w3.org/2000/svg">
<path d="M26.6197 15.3808L6.06494 35.9357M15.5888 26.4119L15.9429 26.1261C16.2864 25.8282 16.5975 25.4942 16.8709 25.1297C18.9952 22.2973 18.4212 18.279 15.5888 16.1546L15.2347 16.4404C14.8912 16.7383 14.58 17.0723 14.3066 17.4367C12.1823 20.2692 12.7563 24.2875 15.5888 26.4119ZM15.5888 26.4119L15.8745 26.766C16.1725 27.1095 16.5064 27.4207 16.8709 27.694C19.7034 29.8184 23.7216 29.2443 25.8459 26.4119L25.5602 26.0578C25.2622 25.7142 24.9282 25.4031 24.5637 25.1297C21.7313 23.0054 17.7131 23.5794 15.5888 26.4119ZM20.7173 21.2832L21.0714 20.9975C21.4149 20.6995 21.7261 20.3656 21.9995 20.0011C24.1238 17.1687 23.5498 13.1504 20.7173 11.026L20.3632 11.3118C20.0197 11.6097 19.7086 11.9436 19.4352 12.3081C17.3109 15.1406 17.8849 19.1589 20.7173 21.2832ZM20.7173 21.2832L21.0031 21.6374C21.3011 21.9809 21.635 22.2921 21.9995 22.5654C24.832 24.6897 28.8502 24.1157 30.9745 21.2832L30.6887 20.9291C30.3908 20.5856 30.0568 20.2744 29.6923 20.0011C26.8599 17.8768 22.8416 18.4508 20.7173 21.2832ZM25.8459 16.1546L26.2 15.8689C26.5435 15.5709 26.8547 15.237 27.128 14.8725C29.2524 12.04 28.6784 8.02174 25.8459 5.89737L25.4918 6.18313C25.1483 6.48108 24.8371 6.81503 24.5638 7.17949C22.4394 10.012 23.0135 14.0303 25.8459 16.1546ZM25.8459 16.1546L26.1317 16.5087C26.4296 16.8523 26.7636 17.1634 27.1281 17.4368C29.9605 19.5611 33.9788 18.9871 36.1031 16.1546L35.8173 15.8005C35.5193 15.457 35.1854 15.1458 34.8209 14.8724C31.9885 12.7481 27.9702 13.3222 25.8459 16.1546ZM10.3388 31.6619L10.6928 31.3761C11.0364 31.0782 11.3475 30.7442 11.6209 30.3797C13.7452 27.5473 13.1712 23.529 10.3388 21.4046L9.98467 21.6904C9.64115 21.9883 9.32999 22.3223 9.05663 22.6867C6.93227 25.5192 7.5063 29.5375 10.3388 31.6619ZM10.3388 31.6619L10.6245 32.016C10.9225 32.3595 11.2564 32.6707 11.6209 32.944C14.4534 35.0684 18.4716 34.4943 20.5959 31.6619L20.3102 31.3078C20.0122 30.9642 19.6782 30.6531 19.3137 30.3797C16.4813 28.2554 12.4631 28.8294 10.3388 31.6619ZM30.8517 12.9633C30.4007 13.0277 29.9445 13.0438 29.4909 13.0116L29.0384 12.9632C28.5377 9.45824 30.9732 6.21101 34.4781 5.7103C35.0795 5.6244 35.69 5.6244 36.2914 5.71031C36.7921 9.21534 34.3567 12.4626 30.8517 12.9633Z" stroke="#F95D5E" stroke-width="1.55963"/>
</svg>
