<svg width="54" height="54" viewBox="0 0 54 54" fill="none" xmlns="http://www.w3.org/2000/svg">
<path d="M49.3002 30.4847L36.8844 22.3889L22.1737 32.9147L22.7137 39.053L28.5862 44.723C28.5862 44.723 29.4637 48.4355 27.9112 49.448C26.3587 50.4605 24.1312 51.2705 19.1404 51.0005C14.1454 50.7305 12.5296 49.043 12.0571 48.503C11.5846 47.963 10.8421 46.0055 10.8421 46.0055C10.8421 46.0055 6.87647 45.0984 4.77132 42.0905C2.88132 39.3905 3.21882 37.028 3.55632 35.8172C3.89382 34.6022 4.77132 33.8597 4.77132 33.8597L4.50132 33.1847C4.50132 33.1847 2.00382 31.9697 1.66632 29.0672C1.32882 26.1647 2.61132 21.9164 4.83882 18.7439C7.06632 15.5714 7.74132 15.9089 7.74132 15.9089C7.74132 15.9089 6.79632 15.3689 7.06632 13.0064C7.33632 10.6439 10.7113 7.87639 13.9471 5.85561C17.1829 3.83483 19.5623 2.73796 21.9248 3.14296C24.2873 3.54796 25.1183 4.82202 25.1183 4.82202C25.1183 4.82202 28.6579 2.48061 32.9737 3.35811C37.2894 4.23561 39.3144 7.20561 39.6519 7.81311C39.9894 8.42061 40.5294 8.28561 40.5294 8.28561C40.5294 8.28561 42.2169 7.81311 44.9844 9.23061C47.7519 10.6481 48.6969 13.4831 48.8994 14.2931C49.1019 15.1031 49.3719 16.5881 49.3719 16.5881C49.3719 16.5881 50.5827 17.415 51.4138 19.2881C52.4938 21.7181 52.6794 24.4856 52.0719 27.3206C51.4771 30.105 50.9244 30.9656 50.9244 30.9656L49.3002 30.4847Z" fill="#F6AF3D"/>
<path d="M11.2388 10.973C12.1205 12.15 13.538 11.2008 15.1918 9.87192C16.8455 8.54301 17.858 7.5727 17.0312 6.65723C16.2043 5.74176 14.0907 7.11707 12.9854 7.94395C11.8843 8.7666 10.4119 9.8677 11.2388 10.973ZM7.61068 35.3405C6.76693 35.3405 6.3999 36.3404 6.3999 37.2347C6.3999 38.1291 6.3999 39.0235 7.3449 39.0741C8.08318 39.1163 8.55568 38.6016 8.60631 37.1799C8.66115 35.8636 8.34897 35.3405 7.61068 35.3405Z" fill="#F9E0CA"/>
<path d="M26.2826 42.4997L25.4726 42.8245L21.1484 42.082L16.6976 42.6684L13.7403 43.9214C12.7109 46.2586 15.1493 50.7811 19.136 50.9962C24.131 51.2662 26.3543 50.4562 27.9068 49.4437C29.4593 48.4312 28.5818 44.7188 28.5818 44.7188L26.2826 42.4997Z" fill="url(#paint0_radial_8310_996)"/>
<path d="M23.6039 36.3866L26.249 29.0924L20.1572 20.195L14.5462 16.9888C14.5462 16.9888 11.5636 18.7944 10.2178 22.3592C8.61465 26.6075 10.1376 31.4971 10.1376 31.4971L17.5247 32.4589L23.6039 36.3866Z" fill="url(#paint1_radial_8310_996)"/>
<path d="M23.9246 24.6035L18.9549 18.8323L11.146 15.0185C11.146 15.0185 19.7987 13.563 23.8065 11.479C27.8143 9.39492 27.7552 5.83008 27.7552 5.83008L32.1807 10.8124L34.906 17.4654L35.6274 23.7977L26.4896 26.6834L24.4857 26.2826L23.9246 24.6035Z" fill="url(#paint2_radial_8310_996)"/>
<path d="M28.7046 6.91883C28.7046 6.91883 31.1515 5.94852 34.4885 6.57711C38.4499 7.32383 41.5676 9.43742 41.5676 9.43742L43.2762 15.6221L42.7615 21.2331L40.998 24.1187L35.6276 22.3595L34.7458 15.947L32.1007 11.378L28.7046 6.91883Z" fill="url(#paint3_radial_8310_996)"/>
<path d="M10.4668 37.7534C11.2853 42.8707 14.3861 43.6807 14.3861 43.6807L19.5962 42.1578L23.4437 42.6387L21.3597 33.8215L14.3861 31.5771C14.3861 31.5771 9.50497 31.7417 10.4668 37.7534Z" fill="url(#paint4_radial_8310_996)"/>
<path d="M10.0447 18.6469C8.03238 17.5416 6.07488 20.8407 5.4041 22.0472C4.71644 23.2875 4.36207 26.7258 5.45051 27.0549C6.50941 27.3755 7.05363 25.013 8.02394 23.7474C9.53847 21.7688 12.3903 19.9336 10.0447 18.6469Z" fill="#F9E0CA"/>
<path d="M40.9641 25.0467L44.8158 27.5568L47.2795 25.0846L49.0598 20.0517L49.372 16.5796C49.372 16.5796 49.102 15.0946 48.8995 14.2846C48.697 13.4746 47.7352 10.6692 44.9845 9.22213C42.7402 8.04088 41.0442 8.159 40.5 8.23072L43.2802 15.6178L42.2255 21.7054L40.9641 25.0467Z" fill="url(#paint5_radial_8310_996)"/>
<path d="M51.4095 19.2838C50.7134 17.7018 49.6967 16.8243 49.3718 16.5923L49.0596 20.0601L47.4945 25.6415L44.9126 27.6243L49.3043 30.4888L50.9243 30.9613C50.9243 30.9613 51.4728 30.1007 52.0718 27.3163C52.6751 24.4771 52.481 21.7138 51.4095 19.2838Z" fill="url(#paint6_radial_8310_996)"/>
<path d="M22.9921 23.8612C22.9921 23.8612 26.2912 25.7175 30.5901 22.0345C33.7668 19.3092 34.3279 16.5459 34.3279 16.5459C34.3279 16.5459 35.7243 19.3936 38.458 20.3976C41.1918 21.4017 42.9257 20.3976 42.9257 20.3976C42.9257 20.3976 42.9805 22.5745 44.4908 23.9161C45.9969 25.2576 47.2837 25.0889 47.2837 25.0889C47.2837 25.0889 46.7816 27.7678 48.6252 28.8309C50.4688 29.8898 51.4729 29.5565 51.4729 29.5565C51.4729 29.5565 50.6924 33.6487 48.0135 33.6867C43.993 33.7415 43.6597 28.4934 43.6597 28.4934C43.6597 28.4934 42.5418 28.3246 41.7613 27.9914C40.9808 27.6581 40.1962 27.1518 40.1962 27.1518C40.1962 27.1518 39.0233 27.6539 38.0741 27.7678C37.1249 27.8775 35.8424 27.5442 35.8424 27.5442C35.8424 27.5442 35.2265 29.7759 32.7163 31.7882C30.2062 33.8006 27.1897 34.3575 27.1897 34.3575C27.1897 34.3575 27.4682 35.4164 26.9662 36.7031C26.5274 37.8211 25.2913 38.9939 25.2913 38.9939C25.2913 38.9939 25.9621 39.4411 26.2954 40.3354C26.6287 41.2298 26.6287 42.2339 26.6287 42.2339C26.6287 42.2339 29.4974 42.8287 30.088 45.2503C30.7588 47.984 27.6876 49.6589 27.6876 49.6589C27.6876 49.6589 28.9532 46.9968 27.5779 44.9676C25.5697 42.0103 20.3765 41.9512 20.3765 41.9512C20.3765 41.9512 20.7688 39.7195 20.3216 37.5975C19.8744 35.4754 17.5288 32.4632 17.5288 32.4632C17.5288 32.4632 19.596 31.7925 21.1569 29.2823C22.7179 26.7722 22.9921 23.8612 22.9921 23.8612Z" fill="#CF7118"/>
<path d="M25.266 38.8251C24.861 39.8039 21.9121 33.0244 14.2382 32.9737C6.56428 32.9231 3.92334 34.927 3.92334 34.927C3.92334 34.927 4.15959 34.2225 4.17225 33.8386C4.1849 33.4547 4.1385 32.9737 4.1385 32.9737C4.1385 32.9737 6.37443 30.5606 11.5719 30.4383C16.5121 30.3201 20.1866 31.3495 22.7094 33.9272C25.2365 36.5006 25.5065 38.2472 25.266 38.8251Z" fill="url(#paint7_radial_8310_996)"/>
<path d="M25.4728 42.8288C25.4179 43.7569 22.0556 42.3901 17.415 43.6093C12.7743 44.8285 11.2134 47.1741 11.2134 47.1741C11.2134 47.1741 10.9307 46.651 10.6565 46.3093C10.3823 45.9676 9.7959 45.5626 9.7959 45.5626C9.7959 45.5626 12.0445 42.5335 16.9256 41.656C21.8067 40.7785 25.5234 41.9977 25.4728 42.8288Z" fill="url(#paint8_radial_8310_996)"/>
<path d="M7.03254 14.348C7.03254 14.348 7.1127 14.947 7.01566 15.5292C6.91863 16.1156 6.71191 16.4784 6.71191 16.4784C6.71191 16.4784 12.5296 16.643 16.3897 19.3303C20.2499 22.0176 23.3718 25.7808 24.8399 28.7128C26.308 31.6448 26.2068 33.7922 26.8902 33.5011C27.5736 33.21 27.3796 29.5945 25.5233 26.1731C23.6671 22.7517 20.4439 18.2123 15.6557 16.2084C10.8674 14.2045 7.03254 14.348 7.03254 14.348Z" fill="url(#paint9_radial_8310_996)"/>
<path d="M25.2113 4.78832C25.089 5.11738 29.7887 8.50926 32.0077 12.8293C34.2268 17.1535 34.6866 21.4777 34.9524 23.6208C35.2182 25.7639 35.0663 27.2953 35.678 27.1393C36.2898 26.9874 36.4248 25.5319 36.5977 22.4733C36.7876 19.0308 35.4334 14.6813 33.729 11.6438C31.9866 8.54301 28.9955 5.89785 27.0338 5.01191C26.1732 4.62379 25.359 4.38332 25.2113 4.78832Z" fill="url(#paint10_radial_8310_996)"/>
<path d="M39.863 8.11671C39.7112 8.2939 42.4407 11.4116 42.2973 16.7694C42.1665 21.7897 39.9263 26.1814 40.306 26.3333C40.6899 26.4851 41.4535 25.6077 42.5251 23.3506C43.5966 21.0936 44.5543 17.5709 43.9426 14.1664C43.487 11.6267 42.234 9.33593 41.1751 8.5639C40.8165 8.30234 40.0529 7.89312 39.863 8.11671Z" fill="url(#paint11_radial_8310_996)"/>
<path d="M44.2885 28.0968C44.5964 28.6115 47.3681 27.4514 48.7055 24.5024C50.0428 21.5578 50.0471 17.3685 49.2919 17.4234C48.8996 17.4529 48.8785 20.6339 47.0813 24.2662C45.9 26.654 44.1703 27.907 44.2885 28.0968Z" fill="url(#paint12_radial_8310_996)"/>
<defs>
<radialGradient id="paint0_radial_8310_996" cx="0" cy="0" r="1" gradientUnits="userSpaceOnUse" gradientTransform="translate(27.8292 41.1712) scale(16.4472 16.4472)">
<stop offset="0.34" stop-color="#E07F16"/>
<stop offset="0.821" stop-color="#E07F16" stop-opacity="0"/>
</radialGradient>
<radialGradient id="paint1_radial_8310_996" cx="0" cy="0" r="1" gradientUnits="userSpaceOnUse" gradientTransform="translate(22.8335 27.3935) scale(13.1629)">
<stop offset="0.254" stop-color="#E07F16"/>
<stop offset="1" stop-color="#E07F16" stop-opacity="0"/>
</radialGradient>
<radialGradient id="paint2_radial_8310_996" cx="0" cy="0" r="1" gradientUnits="userSpaceOnUse" gradientTransform="translate(21.1924 9.34768) rotate(54.463) scale(15.9954 36.4262)">
<stop offset="0.243" stop-color="#E07F16" stop-opacity="0"/>
<stop offset="0.924" stop-color="#E07F16"/>
</radialGradient>
<radialGradient id="paint3_radial_8310_996" cx="0" cy="0" r="1" gradientUnits="userSpaceOnUse" gradientTransform="translate(35.9539 2.51216) rotate(73.6981) scale(22.5561 29.5382)">
<stop offset="0.31" stop-color="#E07F16" stop-opacity="0"/>
<stop offset="0.6" stop-color="#E07F16"/>
</radialGradient>
<radialGradient id="paint4_radial_8310_996" cx="0" cy="0" r="1" gradientUnits="userSpaceOnUse" gradientTransform="translate(28.7231 36.6278) scale(18.3507 18.3507)">
<stop offset="0.454" stop-color="#E07F16"/>
<stop offset="0.913" stop-color="#E07F16" stop-opacity="0"/>
</radialGradient>
<radialGradient id="paint5_radial_8310_996" cx="0" cy="0" r="1" gradientUnits="userSpaceOnUse" gradientTransform="translate(40.1633 24.3388) scale(16.2143 16.2143)">
<stop offset="0.585" stop-color="#E07F16"/>
<stop offset="1" stop-color="#E07F16" stop-opacity="0"/>
</radialGradient>
<radialGradient id="paint6_radial_8310_996" cx="0" cy="0" r="1" gradientUnits="userSpaceOnUse" gradientTransform="translate(47.8758 28.9423) scale(14.9091 14.9091)">
<stop offset="0.098" stop-color="#E07F16"/>
<stop offset="0.759" stop-color="#E07F16" stop-opacity="0.125"/>
<stop offset="0.854" stop-color="#E07F16" stop-opacity="0"/>
</radialGradient>
<radialGradient id="paint7_radial_8310_996" cx="0" cy="0" r="1" gradientUnits="userSpaceOnUse" gradientTransform="translate(3.3015 33.993) scale(12.8773 12.8773)">
<stop offset="0.353" stop-color="#F8C975"/>
<stop offset="0.508" stop-color="#F9C368"/>
<stop offset="0.794" stop-color="#FCB445"/>
<stop offset="1" stop-color="#FFA828"/>
</radialGradient>
<radialGradient id="paint8_radial_8310_996" cx="0" cy="0" r="1" gradientUnits="userSpaceOnUse" gradientTransform="translate(9.0669 46.9547) scale(11.2636 11.2636)">
<stop offset="0.353" stop-color="#F8C975"/>
<stop offset="0.508" stop-color="#F9C368"/>
<stop offset="0.794" stop-color="#FCB445"/>
<stop offset="1" stop-color="#FFA828"/>
</radialGradient>
<radialGradient id="paint9_radial_8310_996" cx="0" cy="0" r="1" gradientUnits="userSpaceOnUse" gradientTransform="translate(5.23746 15.1689) scale(18.808 18.808)">
<stop offset="0.221" stop-color="#F8C975"/>
<stop offset="0.535" stop-color="#FBBA53"/>
<stop offset="0.881" stop-color="#FFA828"/>
</radialGradient>
<radialGradient id="paint10_radial_8310_996" cx="0" cy="0" r="1" gradientUnits="userSpaceOnUse" gradientTransform="translate(25.9306 4.13399) scale(15.3364 15.3364)">
<stop offset="0.353" stop-color="#F8C975"/>
<stop offset="0.508" stop-color="#F9C368"/>
<stop offset="0.794" stop-color="#FCB445"/>
<stop offset="1" stop-color="#FFA828"/>
</radialGradient>
<radialGradient id="paint11_radial_8310_996" cx="0" cy="0" r="1" gradientUnits="userSpaceOnUse" gradientTransform="translate(39.6838 7.24554) scale(11.5024 11.5024)">
<stop offset="0.353" stop-color="#F8C975"/>
<stop offset="0.508" stop-color="#F9C368"/>
<stop offset="0.794" stop-color="#FCB445"/>
<stop offset="1" stop-color="#FFA828"/>
</radialGradient>
<radialGradient id="paint12_radial_8310_996" cx="0" cy="0" r="1" gradientUnits="userSpaceOnUse" gradientTransform="translate(49.3569 14.4876) scale(8.2485 8.2485)">
<stop offset="0.353" stop-color="#F8C975"/>
<stop offset="0.508" stop-color="#F9C368"/>
<stop offset="0.794" stop-color="#FCB445"/>
<stop offset="1" stop-color="#FFA828"/>
</radialGradient>
</defs>
</svg>
